<mxfile host="app.diagrams.net" modified="2022-10-20T01:42:33.865Z" agent="5.0 (Windows NT 10.0; Win64; x64) AppleWebKit/537.36 (KHTML, like Gecko) Chrome/106.0.0.0 Safari/537.36 Edg/106.0.1370.47" etag="wxu0SJ1qLPgVju98KqPN" version="20.4.1" type="github" pages="8">
  <diagram id="AXFCHK8sxA6AtM3hxfqH" name="第 1 页">
    <mxGraphModel dx="1967" dy="1114" grid="1" gridSize="10" guides="1" tooltips="1" connect="1" arrows="1" fold="1" page="1" pageScale="1" pageWidth="827" pageHeight="1169" math="0" shadow="0">
      <root>
        <mxCell id="0" />
        <mxCell id="1" parent="0" />
        <mxCell id="SW06G8s6xXcMQh3IS-n2-1" value="" style="shape=parallelogram;perimeter=parallelogramPerimeter;whiteSpace=wrap;html=1;fixedSize=1;size=80;fillColor=#dae8fc;strokeColor=#6c8ebf;" parent="1" vertex="1">
          <mxGeometry x="870" y="610" width="160" height="80" as="geometry" />
        </mxCell>
        <mxCell id="SW06G8s6xXcMQh3IS-n2-2" value="" style="shape=parallelogram;perimeter=parallelogramPerimeter;whiteSpace=wrap;html=1;fixedSize=1;size=80;fillColor=#dae8fc;strokeColor=#6c8ebf;" parent="1" vertex="1">
          <mxGeometry x="870" y="530" width="160" height="80" as="geometry" />
        </mxCell>
        <mxCell id="SW06G8s6xXcMQh3IS-n2-3" value="" style="shape=parallelogram;perimeter=parallelogramPerimeter;whiteSpace=wrap;html=1;fixedSize=1;size=80;fillColor=#dae8fc;strokeColor=#6c8ebf;" parent="1" vertex="1">
          <mxGeometry x="510" y="610" width="160" height="80" as="geometry" />
        </mxCell>
        <mxCell id="SW06G8s6xXcMQh3IS-n2-4" value="" style="shape=parallelogram;perimeter=parallelogramPerimeter;whiteSpace=wrap;html=1;fixedSize=1;size=80;fillColor=#dae8fc;strokeColor=#6c8ebf;" parent="1" vertex="1">
          <mxGeometry x="510" y="530" width="160" height="80" as="geometry" />
        </mxCell>
        <mxCell id="SW06G8s6xXcMQh3IS-n2-5" value="" style="shape=parallelogram;perimeter=parallelogramPerimeter;whiteSpace=wrap;html=1;fixedSize=1;size=80;fillColor=#ffe6cc;strokeColor=#d79b00;" parent="1" vertex="1">
          <mxGeometry x="590" y="530" width="160" height="80" as="geometry" />
        </mxCell>
        <mxCell id="SW06G8s6xXcMQh3IS-n2-6" value="" style="ellipse;whiteSpace=wrap;html=1;aspect=fixed;" parent="1" vertex="1">
          <mxGeometry x="580" y="440" width="20" height="20" as="geometry" />
        </mxCell>
        <mxCell id="SW06G8s6xXcMQh3IS-n2-7" value="" style="ellipse;whiteSpace=wrap;html=1;aspect=fixed;" parent="1" vertex="1">
          <mxGeometry x="620" y="440" width="20" height="20" as="geometry" />
        </mxCell>
        <mxCell id="SW06G8s6xXcMQh3IS-n2-8" value="" style="ellipse;whiteSpace=wrap;html=1;aspect=fixed;" parent="1" vertex="1">
          <mxGeometry x="660" y="440" width="20" height="20" as="geometry" />
        </mxCell>
        <mxCell id="SW06G8s6xXcMQh3IS-n2-9" value="" style="ellipse;whiteSpace=wrap;html=1;aspect=fixed;" parent="1" vertex="1">
          <mxGeometry x="700" y="440" width="20" height="20" as="geometry" />
        </mxCell>
        <mxCell id="SW06G8s6xXcMQh3IS-n2-10" value="" style="ellipse;whiteSpace=wrap;html=1;aspect=fixed;" parent="1" vertex="1">
          <mxGeometry x="580" y="480" width="20" height="20" as="geometry" />
        </mxCell>
        <mxCell id="SW06G8s6xXcMQh3IS-n2-11" value="" style="ellipse;whiteSpace=wrap;html=1;aspect=fixed;" parent="1" vertex="1">
          <mxGeometry x="620" y="480" width="20" height="20" as="geometry" />
        </mxCell>
        <mxCell id="SW06G8s6xXcMQh3IS-n2-12" value="" style="ellipse;whiteSpace=wrap;html=1;aspect=fixed;" parent="1" vertex="1">
          <mxGeometry x="660" y="480" width="20" height="20" as="geometry" />
        </mxCell>
        <mxCell id="SW06G8s6xXcMQh3IS-n2-13" value="" style="ellipse;whiteSpace=wrap;html=1;aspect=fixed;" parent="1" vertex="1">
          <mxGeometry x="700" y="480" width="20" height="20" as="geometry" />
        </mxCell>
        <mxCell id="SW06G8s6xXcMQh3IS-n2-14" value="" style="endArrow=none;html=1;" parent="1" edge="1">
          <mxGeometry width="50" height="50" relative="1" as="geometry">
            <mxPoint x="520" y="520" as="sourcePoint" />
            <mxPoint x="720" y="520" as="targetPoint" />
          </mxGeometry>
        </mxCell>
        <mxCell id="SW06G8s6xXcMQh3IS-n2-15" value="" style="endArrow=none;html=1;" parent="1" edge="1">
          <mxGeometry width="50" height="50" relative="1" as="geometry">
            <mxPoint x="520" y="500" as="sourcePoint" />
            <mxPoint x="540" y="480" as="targetPoint" />
          </mxGeometry>
        </mxCell>
        <mxCell id="SW06G8s6xXcMQh3IS-n2-16" value="" style="endArrow=none;html=1;" parent="1" edge="1">
          <mxGeometry width="50" height="50" relative="1" as="geometry">
            <mxPoint x="520" y="480" as="sourcePoint" />
            <mxPoint x="540" y="500" as="targetPoint" />
          </mxGeometry>
        </mxCell>
        <mxCell id="SW06G8s6xXcMQh3IS-n2-17" value="" style="ellipse;whiteSpace=wrap;html=1;aspect=fixed;" parent="1" vertex="1">
          <mxGeometry x="580" y="540" width="20" height="20" as="geometry" />
        </mxCell>
        <mxCell id="SW06G8s6xXcMQh3IS-n2-18" value="" style="ellipse;whiteSpace=wrap;html=1;aspect=fixed;" parent="1" vertex="1">
          <mxGeometry x="620" y="540" width="20" height="20" as="geometry" />
        </mxCell>
        <mxCell id="SW06G8s6xXcMQh3IS-n2-19" value="" style="ellipse;whiteSpace=wrap;html=1;aspect=fixed;" parent="1" vertex="1">
          <mxGeometry x="660" y="540" width="20" height="20" as="geometry" />
        </mxCell>
        <mxCell id="SW06G8s6xXcMQh3IS-n2-20" value="" style="ellipse;whiteSpace=wrap;html=1;aspect=fixed;" parent="1" vertex="1">
          <mxGeometry x="700" y="540" width="20" height="20" as="geometry" />
        </mxCell>
        <mxCell id="SW06G8s6xXcMQh3IS-n2-21" value="" style="ellipse;whiteSpace=wrap;html=1;aspect=fixed;" parent="1" vertex="1">
          <mxGeometry x="540" y="580" width="20" height="20" as="geometry" />
        </mxCell>
        <mxCell id="SW06G8s6xXcMQh3IS-n2-22" value="" style="ellipse;whiteSpace=wrap;html=1;aspect=fixed;" parent="1" vertex="1">
          <mxGeometry x="580" y="580" width="20" height="20" as="geometry" />
        </mxCell>
        <mxCell id="SW06G8s6xXcMQh3IS-n2-23" value="" style="ellipse;whiteSpace=wrap;html=1;aspect=fixed;" parent="1" vertex="1">
          <mxGeometry x="620" y="580" width="20" height="20" as="geometry" />
        </mxCell>
        <mxCell id="SW06G8s6xXcMQh3IS-n2-24" value="" style="ellipse;whiteSpace=wrap;html=1;aspect=fixed;" parent="1" vertex="1">
          <mxGeometry x="660" y="580" width="20" height="20" as="geometry" />
        </mxCell>
        <mxCell id="SW06G8s6xXcMQh3IS-n2-25" value="" style="ellipse;whiteSpace=wrap;html=1;aspect=fixed;" parent="1" vertex="1">
          <mxGeometry x="500" y="620" width="20" height="20" as="geometry" />
        </mxCell>
        <mxCell id="SW06G8s6xXcMQh3IS-n2-26" value="" style="ellipse;whiteSpace=wrap;html=1;aspect=fixed;" parent="1" vertex="1">
          <mxGeometry x="540" y="620" width="20" height="20" as="geometry" />
        </mxCell>
        <mxCell id="SW06G8s6xXcMQh3IS-n2-27" value="" style="ellipse;whiteSpace=wrap;html=1;aspect=fixed;" parent="1" vertex="1">
          <mxGeometry x="580" y="620" width="20" height="20" as="geometry" />
        </mxCell>
        <mxCell id="SW06G8s6xXcMQh3IS-n2-28" value="" style="ellipse;whiteSpace=wrap;html=1;aspect=fixed;" parent="1" vertex="1">
          <mxGeometry x="620" y="620" width="20" height="20" as="geometry" />
        </mxCell>
        <mxCell id="SW06G8s6xXcMQh3IS-n2-29" value="" style="ellipse;whiteSpace=wrap;html=1;aspect=fixed;" parent="1" vertex="1">
          <mxGeometry x="460" y="660" width="20" height="20" as="geometry" />
        </mxCell>
        <mxCell id="SW06G8s6xXcMQh3IS-n2-30" value="" style="ellipse;whiteSpace=wrap;html=1;aspect=fixed;" parent="1" vertex="1">
          <mxGeometry x="500" y="660" width="20" height="20" as="geometry" />
        </mxCell>
        <mxCell id="SW06G8s6xXcMQh3IS-n2-31" value="" style="ellipse;whiteSpace=wrap;html=1;aspect=fixed;" parent="1" vertex="1">
          <mxGeometry x="540" y="660" width="20" height="20" as="geometry" />
        </mxCell>
        <mxCell id="SW06G8s6xXcMQh3IS-n2-32" value="" style="ellipse;whiteSpace=wrap;html=1;aspect=fixed;" parent="1" vertex="1">
          <mxGeometry x="580" y="660" width="20" height="20" as="geometry" />
        </mxCell>
        <mxCell id="SW06G8s6xXcMQh3IS-n2-33" value="" style="endArrow=none;html=1;" parent="1" edge="1">
          <mxGeometry width="50" height="50" relative="1" as="geometry">
            <mxPoint x="400" y="700" as="sourcePoint" />
            <mxPoint x="720" y="700" as="targetPoint" />
          </mxGeometry>
        </mxCell>
        <mxCell id="SW06G8s6xXcMQh3IS-n2-34" value="" style="ellipse;whiteSpace=wrap;html=1;aspect=fixed;" parent="1" vertex="1">
          <mxGeometry x="580" y="720" width="20" height="20" as="geometry" />
        </mxCell>
        <mxCell id="SW06G8s6xXcMQh3IS-n2-35" value="" style="ellipse;whiteSpace=wrap;html=1;aspect=fixed;" parent="1" vertex="1">
          <mxGeometry x="620" y="720" width="20" height="20" as="geometry" />
        </mxCell>
        <mxCell id="SW06G8s6xXcMQh3IS-n2-36" value="" style="ellipse;whiteSpace=wrap;html=1;aspect=fixed;" parent="1" vertex="1">
          <mxGeometry x="660" y="720" width="20" height="20" as="geometry" />
        </mxCell>
        <mxCell id="SW06G8s6xXcMQh3IS-n2-37" value="" style="ellipse;whiteSpace=wrap;html=1;aspect=fixed;" parent="1" vertex="1">
          <mxGeometry x="700" y="720" width="20" height="20" as="geometry" />
        </mxCell>
        <mxCell id="SW06G8s6xXcMQh3IS-n2-38" value="" style="ellipse;whiteSpace=wrap;html=1;aspect=fixed;" parent="1" vertex="1">
          <mxGeometry x="420" y="720" width="20" height="20" as="geometry" />
        </mxCell>
        <mxCell id="SW06G8s6xXcMQh3IS-n2-39" value="" style="ellipse;whiteSpace=wrap;html=1;aspect=fixed;" parent="1" vertex="1">
          <mxGeometry x="460" y="720" width="20" height="20" as="geometry" />
        </mxCell>
        <mxCell id="SW06G8s6xXcMQh3IS-n2-40" value="" style="ellipse;whiteSpace=wrap;html=1;aspect=fixed;" parent="1" vertex="1">
          <mxGeometry x="500" y="720" width="20" height="20" as="geometry" />
        </mxCell>
        <mxCell id="SW06G8s6xXcMQh3IS-n2-41" value="" style="ellipse;whiteSpace=wrap;html=1;aspect=fixed;" parent="1" vertex="1">
          <mxGeometry x="540" y="720" width="20" height="20" as="geometry" />
        </mxCell>
        <mxCell id="SW06G8s6xXcMQh3IS-n2-42" value="carry" style="text;html=1;align=center;verticalAlign=middle;resizable=0;points=[];autosize=1;strokeColor=none;fillColor=none;" parent="1" vertex="1">
          <mxGeometry x="410" y="740" width="40" height="20" as="geometry" />
        </mxCell>
        <mxCell id="SW06G8s6xXcMQh3IS-n2-43" value="low-bits" style="text;html=1;align=center;verticalAlign=middle;resizable=0;points=[];autosize=1;strokeColor=none;fillColor=none;" parent="1" vertex="1">
          <mxGeometry x="450" y="770" width="60" height="20" as="geometry" />
        </mxCell>
        <mxCell id="SW06G8s6xXcMQh3IS-n2-44" value="" style="rounded=0;whiteSpace=wrap;html=1;fillColor=#ffe6cc;strokeColor=#d79b00;" parent="1" vertex="1">
          <mxGeometry x="520" y="770" width="40" height="20" as="geometry" />
        </mxCell>
        <mxCell id="SW06G8s6xXcMQh3IS-n2-45" value="+" style="text;html=1;align=center;verticalAlign=middle;resizable=0;points=[];autosize=1;strokeColor=none;fillColor=none;" parent="1" vertex="1">
          <mxGeometry x="560" y="770" width="20" height="20" as="geometry" />
        </mxCell>
        <mxCell id="SW06G8s6xXcMQh3IS-n2-46" value="" style="rounded=0;whiteSpace=wrap;html=1;fillColor=#dae8fc;strokeColor=#6c8ebf;" parent="1" vertex="1">
          <mxGeometry x="580" y="770" width="40" height="20" as="geometry" />
        </mxCell>
        <mxCell id="SW06G8s6xXcMQh3IS-n2-47" value="+" style="text;html=1;align=center;verticalAlign=middle;resizable=0;points=[];autosize=1;strokeColor=none;fillColor=none;" parent="1" vertex="1">
          <mxGeometry x="620" y="770" width="20" height="20" as="geometry" />
        </mxCell>
        <mxCell id="SW06G8s6xXcMQh3IS-n2-48" value="" style="rounded=0;whiteSpace=wrap;html=1;fillColor=#d5e8d4;strokeColor=#82b366;" parent="1" vertex="1">
          <mxGeometry x="640" y="770" width="40" height="20" as="geometry" />
        </mxCell>
        <mxCell id="SW06G8s6xXcMQh3IS-n2-49" value="" style="shape=parallelogram;perimeter=parallelogramPerimeter;whiteSpace=wrap;html=1;fixedSize=1;size=80;fillColor=#d5e8d4;strokeColor=#82b366;" parent="1" vertex="1">
          <mxGeometry x="790" y="610" width="160" height="80" as="geometry" />
        </mxCell>
        <mxCell id="SW06G8s6xXcMQh3IS-n2-50" value="" style="shape=parallelogram;perimeter=parallelogramPerimeter;whiteSpace=wrap;html=1;fixedSize=1;size=80;fillColor=#ffe6cc;strokeColor=#d79b00;" parent="1" vertex="1">
          <mxGeometry x="950" y="530" width="160" height="80" as="geometry" />
        </mxCell>
        <mxCell id="SW06G8s6xXcMQh3IS-n2-51" value="" style="ellipse;whiteSpace=wrap;html=1;aspect=fixed;" parent="1" vertex="1">
          <mxGeometry x="940" y="480" width="20" height="20" as="geometry" />
        </mxCell>
        <mxCell id="SW06G8s6xXcMQh3IS-n2-52" value="" style="ellipse;whiteSpace=wrap;html=1;aspect=fixed;" parent="1" vertex="1">
          <mxGeometry x="980" y="480" width="20" height="20" as="geometry" />
        </mxCell>
        <mxCell id="SW06G8s6xXcMQh3IS-n2-53" value="" style="ellipse;whiteSpace=wrap;html=1;aspect=fixed;" parent="1" vertex="1">
          <mxGeometry x="1020" y="480" width="20" height="20" as="geometry" />
        </mxCell>
        <mxCell id="SW06G8s6xXcMQh3IS-n2-54" value="" style="ellipse;whiteSpace=wrap;html=1;aspect=fixed;" parent="1" vertex="1">
          <mxGeometry x="1060" y="480" width="20" height="20" as="geometry" />
        </mxCell>
        <mxCell id="SW06G8s6xXcMQh3IS-n2-55" value="" style="endArrow=none;html=1;" parent="1" edge="1">
          <mxGeometry width="50" height="50" relative="1" as="geometry">
            <mxPoint x="880" y="520" as="sourcePoint" />
            <mxPoint x="1080" y="520" as="targetPoint" />
          </mxGeometry>
        </mxCell>
        <mxCell id="SW06G8s6xXcMQh3IS-n2-56" value="" style="endArrow=none;html=1;" parent="1" edge="1">
          <mxGeometry width="50" height="50" relative="1" as="geometry">
            <mxPoint x="880" y="500" as="sourcePoint" />
            <mxPoint x="900" y="480" as="targetPoint" />
          </mxGeometry>
        </mxCell>
        <mxCell id="SW06G8s6xXcMQh3IS-n2-57" value="" style="endArrow=none;html=1;" parent="1" edge="1">
          <mxGeometry width="50" height="50" relative="1" as="geometry">
            <mxPoint x="880" y="480" as="sourcePoint" />
            <mxPoint x="900" y="500" as="targetPoint" />
          </mxGeometry>
        </mxCell>
        <mxCell id="SW06G8s6xXcMQh3IS-n2-58" value="" style="ellipse;whiteSpace=wrap;html=1;aspect=fixed;" parent="1" vertex="1">
          <mxGeometry x="940" y="540" width="20" height="20" as="geometry" />
        </mxCell>
        <mxCell id="SW06G8s6xXcMQh3IS-n2-59" value="" style="ellipse;whiteSpace=wrap;html=1;aspect=fixed;" parent="1" vertex="1">
          <mxGeometry x="980" y="540" width="20" height="20" as="geometry" />
        </mxCell>
        <mxCell id="SW06G8s6xXcMQh3IS-n2-60" value="" style="ellipse;whiteSpace=wrap;html=1;aspect=fixed;" parent="1" vertex="1">
          <mxGeometry x="1020" y="540" width="20" height="20" as="geometry" />
        </mxCell>
        <mxCell id="SW06G8s6xXcMQh3IS-n2-61" value="" style="ellipse;whiteSpace=wrap;html=1;aspect=fixed;" parent="1" vertex="1">
          <mxGeometry x="1060" y="540" width="20" height="20" as="geometry" />
        </mxCell>
        <mxCell id="SW06G8s6xXcMQh3IS-n2-62" value="" style="ellipse;whiteSpace=wrap;html=1;aspect=fixed;" parent="1" vertex="1">
          <mxGeometry x="900" y="580" width="20" height="20" as="geometry" />
        </mxCell>
        <mxCell id="SW06G8s6xXcMQh3IS-n2-63" value="" style="ellipse;whiteSpace=wrap;html=1;aspect=fixed;" parent="1" vertex="1">
          <mxGeometry x="940" y="580" width="20" height="20" as="geometry" />
        </mxCell>
        <mxCell id="SW06G8s6xXcMQh3IS-n2-64" value="" style="ellipse;whiteSpace=wrap;html=1;aspect=fixed;" parent="1" vertex="1">
          <mxGeometry x="980" y="580" width="20" height="20" as="geometry" />
        </mxCell>
        <mxCell id="SW06G8s6xXcMQh3IS-n2-65" value="" style="ellipse;whiteSpace=wrap;html=1;aspect=fixed;" parent="1" vertex="1">
          <mxGeometry x="1020" y="580" width="20" height="20" as="geometry" />
        </mxCell>
        <mxCell id="SW06G8s6xXcMQh3IS-n2-66" value="" style="ellipse;whiteSpace=wrap;html=1;aspect=fixed;" parent="1" vertex="1">
          <mxGeometry x="860" y="620" width="20" height="20" as="geometry" />
        </mxCell>
        <mxCell id="SW06G8s6xXcMQh3IS-n2-67" value="" style="ellipse;whiteSpace=wrap;html=1;aspect=fixed;" parent="1" vertex="1">
          <mxGeometry x="900" y="620" width="20" height="20" as="geometry" />
        </mxCell>
        <mxCell id="SW06G8s6xXcMQh3IS-n2-68" value="" style="ellipse;whiteSpace=wrap;html=1;aspect=fixed;" parent="1" vertex="1">
          <mxGeometry x="940" y="620" width="20" height="20" as="geometry" />
        </mxCell>
        <mxCell id="SW06G8s6xXcMQh3IS-n2-69" value="" style="ellipse;whiteSpace=wrap;html=1;aspect=fixed;" parent="1" vertex="1">
          <mxGeometry x="980" y="620" width="20" height="20" as="geometry" />
        </mxCell>
        <mxCell id="SW06G8s6xXcMQh3IS-n2-70" value="" style="ellipse;whiteSpace=wrap;html=1;aspect=fixed;" parent="1" vertex="1">
          <mxGeometry x="820" y="660" width="20" height="20" as="geometry" />
        </mxCell>
        <mxCell id="SW06G8s6xXcMQh3IS-n2-71" value="" style="ellipse;whiteSpace=wrap;html=1;aspect=fixed;" parent="1" vertex="1">
          <mxGeometry x="860" y="660" width="20" height="20" as="geometry" />
        </mxCell>
        <mxCell id="SW06G8s6xXcMQh3IS-n2-72" value="" style="ellipse;whiteSpace=wrap;html=1;aspect=fixed;" parent="1" vertex="1">
          <mxGeometry x="900" y="660" width="20" height="20" as="geometry" />
        </mxCell>
        <mxCell id="SW06G8s6xXcMQh3IS-n2-73" value="" style="ellipse;whiteSpace=wrap;html=1;aspect=fixed;" parent="1" vertex="1">
          <mxGeometry x="940" y="660" width="20" height="20" as="geometry" />
        </mxCell>
        <mxCell id="SW06G8s6xXcMQh3IS-n2-74" value="" style="endArrow=none;html=1;" parent="1" edge="1">
          <mxGeometry width="50" height="50" relative="1" as="geometry">
            <mxPoint x="760" y="700" as="sourcePoint" />
            <mxPoint x="1080" y="700" as="targetPoint" />
          </mxGeometry>
        </mxCell>
        <mxCell id="SW06G8s6xXcMQh3IS-n2-75" value="" style="ellipse;whiteSpace=wrap;html=1;aspect=fixed;" parent="1" vertex="1">
          <mxGeometry x="940" y="720" width="20" height="20" as="geometry" />
        </mxCell>
        <mxCell id="SW06G8s6xXcMQh3IS-n2-76" value="" style="ellipse;whiteSpace=wrap;html=1;aspect=fixed;" parent="1" vertex="1">
          <mxGeometry x="980" y="720" width="20" height="20" as="geometry" />
        </mxCell>
        <mxCell id="SW06G8s6xXcMQh3IS-n2-77" value="" style="ellipse;whiteSpace=wrap;html=1;aspect=fixed;" parent="1" vertex="1">
          <mxGeometry x="1020" y="720" width="20" height="20" as="geometry" />
        </mxCell>
        <mxCell id="SW06G8s6xXcMQh3IS-n2-78" value="" style="ellipse;whiteSpace=wrap;html=1;aspect=fixed;" parent="1" vertex="1">
          <mxGeometry x="1060" y="720" width="20" height="20" as="geometry" />
        </mxCell>
        <mxCell id="SW06G8s6xXcMQh3IS-n2-79" value="" style="ellipse;whiteSpace=wrap;html=1;aspect=fixed;" parent="1" vertex="1">
          <mxGeometry x="780" y="720" width="20" height="20" as="geometry" />
        </mxCell>
        <mxCell id="SW06G8s6xXcMQh3IS-n2-80" value="" style="ellipse;whiteSpace=wrap;html=1;aspect=fixed;" parent="1" vertex="1">
          <mxGeometry x="820" y="720" width="20" height="20" as="geometry" />
        </mxCell>
        <mxCell id="SW06G8s6xXcMQh3IS-n2-81" value="" style="ellipse;whiteSpace=wrap;html=1;aspect=fixed;" parent="1" vertex="1">
          <mxGeometry x="860" y="720" width="20" height="20" as="geometry" />
        </mxCell>
        <mxCell id="SW06G8s6xXcMQh3IS-n2-82" value="" style="ellipse;whiteSpace=wrap;html=1;aspect=fixed;" parent="1" vertex="1">
          <mxGeometry x="900" y="720" width="20" height="20" as="geometry" />
        </mxCell>
        <mxCell id="SW06G8s6xXcMQh3IS-n2-83" value="carry" style="text;html=1;align=center;verticalAlign=middle;resizable=0;points=[];autosize=1;strokeColor=none;fillColor=none;" parent="1" vertex="1">
          <mxGeometry x="770" y="740" width="40" height="20" as="geometry" />
        </mxCell>
        <mxCell id="SW06G8s6xXcMQh3IS-n2-84" value="squaring" style="text;html=1;align=center;verticalAlign=middle;resizable=0;points=[];autosize=1;strokeColor=none;fillColor=none;" parent="1" vertex="1">
          <mxGeometry x="810" y="770" width="60" height="20" as="geometry" />
        </mxCell>
        <mxCell id="SW06G8s6xXcMQh3IS-n2-85" value="" style="rounded=0;whiteSpace=wrap;html=1;fillColor=#ffe6cc;strokeColor=#d79b00;" parent="1" vertex="1">
          <mxGeometry x="880" y="770" width="40" height="20" as="geometry" />
        </mxCell>
        <mxCell id="SW06G8s6xXcMQh3IS-n2-86" value="+" style="text;html=1;align=center;verticalAlign=middle;resizable=0;points=[];autosize=1;strokeColor=none;fillColor=none;" parent="1" vertex="1">
          <mxGeometry x="920" y="770" width="20" height="20" as="geometry" />
        </mxCell>
        <mxCell id="SW06G8s6xXcMQh3IS-n2-87" value="" style="rounded=0;whiteSpace=wrap;html=1;fillColor=#dae8fc;strokeColor=#6c8ebf;" parent="1" vertex="1">
          <mxGeometry x="940" y="770" width="40" height="20" as="geometry" />
        </mxCell>
        <mxCell id="SW06G8s6xXcMQh3IS-n2-88" value="+" style="text;html=1;align=center;verticalAlign=middle;resizable=0;points=[];autosize=1;strokeColor=none;fillColor=none;" parent="1" vertex="1">
          <mxGeometry x="980" y="770" width="20" height="20" as="geometry" />
        </mxCell>
        <mxCell id="SW06G8s6xXcMQh3IS-n2-89" value="" style="rounded=0;whiteSpace=wrap;html=1;fillColor=#d5e8d4;strokeColor=#82b366;" parent="1" vertex="1">
          <mxGeometry x="1000" y="770" width="40" height="20" as="geometry" />
        </mxCell>
        <mxCell id="SW06G8s6xXcMQh3IS-n2-90" value="" style="endArrow=none;dashed=1;html=1;dashPattern=1 3;strokeWidth=2;" parent="1" edge="1">
          <mxGeometry width="50" height="50" relative="1" as="geometry">
            <mxPoint x="569.6599999999999" y="760" as="sourcePoint" />
            <mxPoint x="569.6599999999999" y="440" as="targetPoint" />
          </mxGeometry>
        </mxCell>
        <mxCell id="SW06G8s6xXcMQh3IS-n2-91" value="" style="shape=parallelogram;perimeter=parallelogramPerimeter;whiteSpace=wrap;html=1;fixedSize=1;size=80;fillColor=#d5e8d4;strokeColor=#82b366;" parent="1" vertex="1">
          <mxGeometry x="150" y="210" width="160" height="80" as="geometry" />
        </mxCell>
        <mxCell id="SW06G8s6xXcMQh3IS-n2-92" value="" style="shape=parallelogram;perimeter=parallelogramPerimeter;whiteSpace=wrap;html=1;fixedSize=1;size=80;fillColor=#dae8fc;strokeColor=#6c8ebf;" parent="1" vertex="1">
          <mxGeometry x="150" y="130" width="160" height="80" as="geometry" />
        </mxCell>
        <mxCell id="SW06G8s6xXcMQh3IS-n2-93" value="" style="shape=parallelogram;perimeter=parallelogramPerimeter;whiteSpace=wrap;html=1;fixedSize=1;size=80;fillColor=#ffe6cc;strokeColor=#d79b00;" parent="1" vertex="1">
          <mxGeometry x="70" y="210" width="160" height="80" as="geometry" />
        </mxCell>
        <mxCell id="SW06G8s6xXcMQh3IS-n2-94" value="" style="ellipse;whiteSpace=wrap;html=1;aspect=fixed;" parent="1" vertex="1">
          <mxGeometry x="220" y="40" width="20" height="20" as="geometry" />
        </mxCell>
        <mxCell id="SW06G8s6xXcMQh3IS-n2-95" value="" style="ellipse;whiteSpace=wrap;html=1;aspect=fixed;" parent="1" vertex="1">
          <mxGeometry x="260" y="40" width="20" height="20" as="geometry" />
        </mxCell>
        <mxCell id="SW06G8s6xXcMQh3IS-n2-96" value="" style="ellipse;whiteSpace=wrap;html=1;aspect=fixed;" parent="1" vertex="1">
          <mxGeometry x="300" y="40" width="20" height="20" as="geometry" />
        </mxCell>
        <mxCell id="SW06G8s6xXcMQh3IS-n2-97" value="" style="ellipse;whiteSpace=wrap;html=1;aspect=fixed;" parent="1" vertex="1">
          <mxGeometry x="340" y="40" width="20" height="20" as="geometry" />
        </mxCell>
        <mxCell id="SW06G8s6xXcMQh3IS-n2-98" value="" style="ellipse;whiteSpace=wrap;html=1;aspect=fixed;" parent="1" vertex="1">
          <mxGeometry x="220" y="80" width="20" height="20" as="geometry" />
        </mxCell>
        <mxCell id="SW06G8s6xXcMQh3IS-n2-99" value="" style="ellipse;whiteSpace=wrap;html=1;aspect=fixed;" parent="1" vertex="1">
          <mxGeometry x="260" y="80" width="20" height="20" as="geometry" />
        </mxCell>
        <mxCell id="SW06G8s6xXcMQh3IS-n2-100" value="" style="ellipse;whiteSpace=wrap;html=1;aspect=fixed;" parent="1" vertex="1">
          <mxGeometry x="300" y="80" width="20" height="20" as="geometry" />
        </mxCell>
        <mxCell id="SW06G8s6xXcMQh3IS-n2-101" value="" style="ellipse;whiteSpace=wrap;html=1;aspect=fixed;" parent="1" vertex="1">
          <mxGeometry x="340" y="80" width="20" height="20" as="geometry" />
        </mxCell>
        <mxCell id="SW06G8s6xXcMQh3IS-n2-102" value="" style="endArrow=none;html=1;" parent="1" edge="1">
          <mxGeometry width="50" height="50" relative="1" as="geometry">
            <mxPoint x="160" y="120" as="sourcePoint" />
            <mxPoint x="360" y="120" as="targetPoint" />
          </mxGeometry>
        </mxCell>
        <mxCell id="SW06G8s6xXcMQh3IS-n2-103" value="" style="endArrow=none;html=1;" parent="1" edge="1">
          <mxGeometry width="50" height="50" relative="1" as="geometry">
            <mxPoint x="160" y="100" as="sourcePoint" />
            <mxPoint x="180" y="80" as="targetPoint" />
          </mxGeometry>
        </mxCell>
        <mxCell id="SW06G8s6xXcMQh3IS-n2-104" value="" style="endArrow=none;html=1;" parent="1" edge="1">
          <mxGeometry width="50" height="50" relative="1" as="geometry">
            <mxPoint x="160" y="80" as="sourcePoint" />
            <mxPoint x="180" y="100" as="targetPoint" />
          </mxGeometry>
        </mxCell>
        <mxCell id="SW06G8s6xXcMQh3IS-n2-105" value="" style="ellipse;whiteSpace=wrap;html=1;aspect=fixed;" parent="1" vertex="1">
          <mxGeometry x="220" y="140" width="20" height="20" as="geometry" />
        </mxCell>
        <mxCell id="SW06G8s6xXcMQh3IS-n2-106" value="" style="ellipse;whiteSpace=wrap;html=1;aspect=fixed;" parent="1" vertex="1">
          <mxGeometry x="260" y="140" width="20" height="20" as="geometry" />
        </mxCell>
        <mxCell id="SW06G8s6xXcMQh3IS-n2-107" value="" style="ellipse;whiteSpace=wrap;html=1;aspect=fixed;" parent="1" vertex="1">
          <mxGeometry x="300" y="140" width="20" height="20" as="geometry" />
        </mxCell>
        <mxCell id="SW06G8s6xXcMQh3IS-n2-108" value="" style="ellipse;whiteSpace=wrap;html=1;aspect=fixed;" parent="1" vertex="1">
          <mxGeometry x="340" y="140" width="20" height="20" as="geometry" />
        </mxCell>
        <mxCell id="SW06G8s6xXcMQh3IS-n2-109" value="" style="ellipse;whiteSpace=wrap;html=1;aspect=fixed;" parent="1" vertex="1">
          <mxGeometry x="180" y="180" width="20" height="20" as="geometry" />
        </mxCell>
        <mxCell id="SW06G8s6xXcMQh3IS-n2-110" value="" style="ellipse;whiteSpace=wrap;html=1;aspect=fixed;" parent="1" vertex="1">
          <mxGeometry x="220" y="180" width="20" height="20" as="geometry" />
        </mxCell>
        <mxCell id="SW06G8s6xXcMQh3IS-n2-111" value="" style="ellipse;whiteSpace=wrap;html=1;aspect=fixed;" parent="1" vertex="1">
          <mxGeometry x="260" y="180" width="20" height="20" as="geometry" />
        </mxCell>
        <mxCell id="SW06G8s6xXcMQh3IS-n2-112" value="" style="ellipse;whiteSpace=wrap;html=1;aspect=fixed;" parent="1" vertex="1">
          <mxGeometry x="300" y="180" width="20" height="20" as="geometry" />
        </mxCell>
        <mxCell id="SW06G8s6xXcMQh3IS-n2-113" value="" style="ellipse;whiteSpace=wrap;html=1;aspect=fixed;" parent="1" vertex="1">
          <mxGeometry x="140" y="220" width="20" height="20" as="geometry" />
        </mxCell>
        <mxCell id="SW06G8s6xXcMQh3IS-n2-114" value="" style="ellipse;whiteSpace=wrap;html=1;aspect=fixed;" parent="1" vertex="1">
          <mxGeometry x="180" y="220" width="20" height="20" as="geometry" />
        </mxCell>
        <mxCell id="SW06G8s6xXcMQh3IS-n2-115" value="" style="ellipse;whiteSpace=wrap;html=1;aspect=fixed;" parent="1" vertex="1">
          <mxGeometry x="220" y="220" width="20" height="20" as="geometry" />
        </mxCell>
        <mxCell id="SW06G8s6xXcMQh3IS-n2-116" value="" style="ellipse;whiteSpace=wrap;html=1;aspect=fixed;" parent="1" vertex="1">
          <mxGeometry x="260" y="220" width="20" height="20" as="geometry" />
        </mxCell>
        <mxCell id="SW06G8s6xXcMQh3IS-n2-117" value="" style="ellipse;whiteSpace=wrap;html=1;aspect=fixed;" parent="1" vertex="1">
          <mxGeometry x="100" y="260" width="20" height="20" as="geometry" />
        </mxCell>
        <mxCell id="SW06G8s6xXcMQh3IS-n2-118" value="" style="ellipse;whiteSpace=wrap;html=1;aspect=fixed;" parent="1" vertex="1">
          <mxGeometry x="140" y="260" width="20" height="20" as="geometry" />
        </mxCell>
        <mxCell id="SW06G8s6xXcMQh3IS-n2-119" value="" style="ellipse;whiteSpace=wrap;html=1;aspect=fixed;" parent="1" vertex="1">
          <mxGeometry x="180" y="260" width="20" height="20" as="geometry" />
        </mxCell>
        <mxCell id="SW06G8s6xXcMQh3IS-n2-120" value="" style="ellipse;whiteSpace=wrap;html=1;aspect=fixed;" parent="1" vertex="1">
          <mxGeometry x="220" y="260" width="20" height="20" as="geometry" />
        </mxCell>
        <mxCell id="SW06G8s6xXcMQh3IS-n2-121" value="" style="endArrow=none;html=1;" parent="1" edge="1">
          <mxGeometry width="50" height="50" relative="1" as="geometry">
            <mxPoint x="40" y="300" as="sourcePoint" />
            <mxPoint x="360" y="300" as="targetPoint" />
          </mxGeometry>
        </mxCell>
        <mxCell id="SW06G8s6xXcMQh3IS-n2-122" value="" style="ellipse;whiteSpace=wrap;html=1;aspect=fixed;" parent="1" vertex="1">
          <mxGeometry x="220" y="320" width="20" height="20" as="geometry" />
        </mxCell>
        <mxCell id="SW06G8s6xXcMQh3IS-n2-123" value="" style="ellipse;whiteSpace=wrap;html=1;aspect=fixed;" parent="1" vertex="1">
          <mxGeometry x="260" y="320" width="20" height="20" as="geometry" />
        </mxCell>
        <mxCell id="SW06G8s6xXcMQh3IS-n2-124" value="" style="ellipse;whiteSpace=wrap;html=1;aspect=fixed;" parent="1" vertex="1">
          <mxGeometry x="300" y="320" width="20" height="20" as="geometry" />
        </mxCell>
        <mxCell id="SW06G8s6xXcMQh3IS-n2-125" value="" style="ellipse;whiteSpace=wrap;html=1;aspect=fixed;" parent="1" vertex="1">
          <mxGeometry x="340" y="320" width="20" height="20" as="geometry" />
        </mxCell>
        <mxCell id="SW06G8s6xXcMQh3IS-n2-126" value="" style="ellipse;whiteSpace=wrap;html=1;aspect=fixed;" parent="1" vertex="1">
          <mxGeometry x="60" y="320" width="20" height="20" as="geometry" />
        </mxCell>
        <mxCell id="SW06G8s6xXcMQh3IS-n2-127" value="" style="ellipse;whiteSpace=wrap;html=1;aspect=fixed;" parent="1" vertex="1">
          <mxGeometry x="100" y="320" width="20" height="20" as="geometry" />
        </mxCell>
        <mxCell id="SW06G8s6xXcMQh3IS-n2-128" value="" style="ellipse;whiteSpace=wrap;html=1;aspect=fixed;" parent="1" vertex="1">
          <mxGeometry x="140" y="320" width="20" height="20" as="geometry" />
        </mxCell>
        <mxCell id="SW06G8s6xXcMQh3IS-n2-129" value="" style="ellipse;whiteSpace=wrap;html=1;aspect=fixed;" parent="1" vertex="1">
          <mxGeometry x="180" y="320" width="20" height="20" as="geometry" />
        </mxCell>
        <mxCell id="SW06G8s6xXcMQh3IS-n2-130" value="carry" style="text;html=1;align=center;verticalAlign=middle;resizable=0;points=[];autosize=1;strokeColor=none;fillColor=none;" parent="1" vertex="1">
          <mxGeometry x="50" y="340" width="40" height="20" as="geometry" />
        </mxCell>
        <mxCell id="SW06G8s6xXcMQh3IS-n2-131" value="high-bits" style="text;html=1;align=center;verticalAlign=middle;resizable=0;points=[];autosize=1;strokeColor=none;fillColor=none;" parent="1" vertex="1">
          <mxGeometry x="90" y="370" width="60" height="20" as="geometry" />
        </mxCell>
        <mxCell id="SW06G8s6xXcMQh3IS-n2-132" value="" style="rounded=0;whiteSpace=wrap;html=1;fillColor=#ffe6cc;strokeColor=#d79b00;" parent="1" vertex="1">
          <mxGeometry x="160" y="370" width="40" height="20" as="geometry" />
        </mxCell>
        <mxCell id="SW06G8s6xXcMQh3IS-n2-133" value="+" style="text;html=1;align=center;verticalAlign=middle;resizable=0;points=[];autosize=1;strokeColor=none;fillColor=none;" parent="1" vertex="1">
          <mxGeometry x="200" y="370" width="20" height="20" as="geometry" />
        </mxCell>
        <mxCell id="SW06G8s6xXcMQh3IS-n2-134" value="" style="rounded=0;whiteSpace=wrap;html=1;fillColor=#dae8fc;strokeColor=#6c8ebf;" parent="1" vertex="1">
          <mxGeometry x="220" y="370" width="40" height="20" as="geometry" />
        </mxCell>
        <mxCell id="SW06G8s6xXcMQh3IS-n2-135" value="+" style="text;html=1;align=center;verticalAlign=middle;resizable=0;points=[];autosize=1;strokeColor=none;fillColor=none;" parent="1" vertex="1">
          <mxGeometry x="260" y="370" width="20" height="20" as="geometry" />
        </mxCell>
        <mxCell id="SW06G8s6xXcMQh3IS-n2-136" value="" style="rounded=0;whiteSpace=wrap;html=1;fillColor=#d5e8d4;strokeColor=#82b366;" parent="1" vertex="1">
          <mxGeometry x="280" y="370" width="40" height="20" as="geometry" />
        </mxCell>
        <mxCell id="SW06G8s6xXcMQh3IS-n2-137" value="" style="endArrow=none;dashed=1;html=1;dashPattern=1 3;strokeWidth=2;" parent="1" edge="1">
          <mxGeometry width="50" height="50" relative="1" as="geometry">
            <mxPoint x="209.65999999999985" y="360" as="sourcePoint" />
            <mxPoint x="209.65999999999985" y="40" as="targetPoint" />
          </mxGeometry>
        </mxCell>
        <mxCell id="SW06G8s6xXcMQh3IS-n2-138" value="" style="shape=parallelogram;perimeter=parallelogramPerimeter;whiteSpace=wrap;html=1;fixedSize=1;size=180;fillColor=#ffe6cc;strokeColor=#d79b00;" parent="1" vertex="1">
          <mxGeometry x="770" y="120" width="360" height="180" as="geometry" />
        </mxCell>
        <mxCell id="SW06G8s6xXcMQh3IS-n2-141" value="" style="shape=parallelogram;perimeter=parallelogramPerimeter;whiteSpace=wrap;html=1;fixedSize=1;size=80;fillColor=#d5e8d4;strokeColor=#82b366;" parent="1" vertex="1">
          <mxGeometry x="790" y="210" width="160" height="80" as="geometry" />
        </mxCell>
        <mxCell id="SW06G8s6xXcMQh3IS-n2-142" value="" style="shape=parallelogram;perimeter=parallelogramPerimeter;whiteSpace=wrap;html=1;fixedSize=1;size=80;fillColor=#dae8fc;strokeColor=#6c8ebf;" parent="1" vertex="1">
          <mxGeometry x="950" y="130" width="160" height="80" as="geometry" />
        </mxCell>
        <mxCell id="SW06G8s6xXcMQh3IS-n2-143" value="" style="ellipse;whiteSpace=wrap;html=1;aspect=fixed;" parent="1" vertex="1">
          <mxGeometry x="940" y="40" width="20" height="20" as="geometry" />
        </mxCell>
        <mxCell id="SW06G8s6xXcMQh3IS-n2-144" value="" style="ellipse;whiteSpace=wrap;html=1;aspect=fixed;" parent="1" vertex="1">
          <mxGeometry x="980" y="40" width="20" height="20" as="geometry" />
        </mxCell>
        <mxCell id="SW06G8s6xXcMQh3IS-n2-145" value="" style="ellipse;whiteSpace=wrap;html=1;aspect=fixed;" parent="1" vertex="1">
          <mxGeometry x="1020" y="40" width="20" height="20" as="geometry" />
        </mxCell>
        <mxCell id="SW06G8s6xXcMQh3IS-n2-146" value="" style="ellipse;whiteSpace=wrap;html=1;aspect=fixed;" parent="1" vertex="1">
          <mxGeometry x="1060" y="40" width="20" height="20" as="geometry" />
        </mxCell>
        <mxCell id="SW06G8s6xXcMQh3IS-n2-147" value="" style="ellipse;whiteSpace=wrap;html=1;aspect=fixed;" parent="1" vertex="1">
          <mxGeometry x="940" y="80" width="20" height="20" as="geometry" />
        </mxCell>
        <mxCell id="SW06G8s6xXcMQh3IS-n2-148" value="" style="ellipse;whiteSpace=wrap;html=1;aspect=fixed;" parent="1" vertex="1">
          <mxGeometry x="980" y="80" width="20" height="20" as="geometry" />
        </mxCell>
        <mxCell id="SW06G8s6xXcMQh3IS-n2-149" value="" style="ellipse;whiteSpace=wrap;html=1;aspect=fixed;" parent="1" vertex="1">
          <mxGeometry x="1020" y="80" width="20" height="20" as="geometry" />
        </mxCell>
        <mxCell id="SW06G8s6xXcMQh3IS-n2-150" value="" style="ellipse;whiteSpace=wrap;html=1;aspect=fixed;" parent="1" vertex="1">
          <mxGeometry x="1060" y="80" width="20" height="20" as="geometry" />
        </mxCell>
        <mxCell id="SW06G8s6xXcMQh3IS-n2-151" value="" style="endArrow=none;html=1;" parent="1" edge="1">
          <mxGeometry width="50" height="50" relative="1" as="geometry">
            <mxPoint x="880" y="120" as="sourcePoint" />
            <mxPoint x="1080" y="120" as="targetPoint" />
          </mxGeometry>
        </mxCell>
        <mxCell id="SW06G8s6xXcMQh3IS-n2-152" value="" style="endArrow=none;html=1;" parent="1" edge="1">
          <mxGeometry width="50" height="50" relative="1" as="geometry">
            <mxPoint x="880" y="100" as="sourcePoint" />
            <mxPoint x="900" y="80" as="targetPoint" />
          </mxGeometry>
        </mxCell>
        <mxCell id="SW06G8s6xXcMQh3IS-n2-153" value="" style="endArrow=none;html=1;" parent="1" edge="1">
          <mxGeometry width="50" height="50" relative="1" as="geometry">
            <mxPoint x="880" y="80" as="sourcePoint" />
            <mxPoint x="900" y="100" as="targetPoint" />
          </mxGeometry>
        </mxCell>
        <mxCell id="SW06G8s6xXcMQh3IS-n2-154" value="" style="ellipse;whiteSpace=wrap;html=1;aspect=fixed;" parent="1" vertex="1">
          <mxGeometry x="940" y="140" width="20" height="20" as="geometry" />
        </mxCell>
        <mxCell id="SW06G8s6xXcMQh3IS-n2-155" value="" style="ellipse;whiteSpace=wrap;html=1;aspect=fixed;" parent="1" vertex="1">
          <mxGeometry x="980" y="140" width="20" height="20" as="geometry" />
        </mxCell>
        <mxCell id="SW06G8s6xXcMQh3IS-n2-156" value="" style="ellipse;whiteSpace=wrap;html=1;aspect=fixed;" parent="1" vertex="1">
          <mxGeometry x="1020" y="140" width="20" height="20" as="geometry" />
        </mxCell>
        <mxCell id="SW06G8s6xXcMQh3IS-n2-157" value="" style="ellipse;whiteSpace=wrap;html=1;aspect=fixed;" parent="1" vertex="1">
          <mxGeometry x="1060" y="140" width="20" height="20" as="geometry" />
        </mxCell>
        <mxCell id="SW06G8s6xXcMQh3IS-n2-158" value="" style="ellipse;whiteSpace=wrap;html=1;aspect=fixed;" parent="1" vertex="1">
          <mxGeometry x="900" y="180" width="20" height="20" as="geometry" />
        </mxCell>
        <mxCell id="SW06G8s6xXcMQh3IS-n2-159" value="" style="ellipse;whiteSpace=wrap;html=1;aspect=fixed;" parent="1" vertex="1">
          <mxGeometry x="940" y="180" width="20" height="20" as="geometry" />
        </mxCell>
        <mxCell id="SW06G8s6xXcMQh3IS-n2-160" value="" style="ellipse;whiteSpace=wrap;html=1;aspect=fixed;" parent="1" vertex="1">
          <mxGeometry x="980" y="180" width="20" height="20" as="geometry" />
        </mxCell>
        <mxCell id="SW06G8s6xXcMQh3IS-n2-161" value="" style="ellipse;whiteSpace=wrap;html=1;aspect=fixed;" parent="1" vertex="1">
          <mxGeometry x="1020" y="180" width="20" height="20" as="geometry" />
        </mxCell>
        <mxCell id="SW06G8s6xXcMQh3IS-n2-162" value="" style="ellipse;whiteSpace=wrap;html=1;aspect=fixed;" parent="1" vertex="1">
          <mxGeometry x="860" y="220" width="20" height="20" as="geometry" />
        </mxCell>
        <mxCell id="SW06G8s6xXcMQh3IS-n2-163" value="" style="ellipse;whiteSpace=wrap;html=1;aspect=fixed;" parent="1" vertex="1">
          <mxGeometry x="900" y="220" width="20" height="20" as="geometry" />
        </mxCell>
        <mxCell id="SW06G8s6xXcMQh3IS-n2-164" value="" style="ellipse;whiteSpace=wrap;html=1;aspect=fixed;" parent="1" vertex="1">
          <mxGeometry x="940" y="220" width="20" height="20" as="geometry" />
        </mxCell>
        <mxCell id="SW06G8s6xXcMQh3IS-n2-165" value="" style="ellipse;whiteSpace=wrap;html=1;aspect=fixed;" parent="1" vertex="1">
          <mxGeometry x="980" y="220" width="20" height="20" as="geometry" />
        </mxCell>
        <mxCell id="SW06G8s6xXcMQh3IS-n2-166" value="" style="ellipse;whiteSpace=wrap;html=1;aspect=fixed;" parent="1" vertex="1">
          <mxGeometry x="820" y="260" width="20" height="20" as="geometry" />
        </mxCell>
        <mxCell id="SW06G8s6xXcMQh3IS-n2-167" value="" style="ellipse;whiteSpace=wrap;html=1;aspect=fixed;" parent="1" vertex="1">
          <mxGeometry x="860" y="260" width="20" height="20" as="geometry" />
        </mxCell>
        <mxCell id="SW06G8s6xXcMQh3IS-n2-168" value="" style="ellipse;whiteSpace=wrap;html=1;aspect=fixed;" parent="1" vertex="1">
          <mxGeometry x="900" y="260" width="20" height="20" as="geometry" />
        </mxCell>
        <mxCell id="SW06G8s6xXcMQh3IS-n2-169" value="" style="ellipse;whiteSpace=wrap;html=1;aspect=fixed;" parent="1" vertex="1">
          <mxGeometry x="940" y="260" width="20" height="20" as="geometry" />
        </mxCell>
        <mxCell id="SW06G8s6xXcMQh3IS-n2-170" value="" style="endArrow=none;html=1;" parent="1" edge="1">
          <mxGeometry width="50" height="50" relative="1" as="geometry">
            <mxPoint x="760" y="300" as="sourcePoint" />
            <mxPoint x="1080" y="300" as="targetPoint" />
          </mxGeometry>
        </mxCell>
        <mxCell id="SW06G8s6xXcMQh3IS-n2-171" value="" style="ellipse;whiteSpace=wrap;html=1;aspect=fixed;" parent="1" vertex="1">
          <mxGeometry x="940" y="320" width="20" height="20" as="geometry" />
        </mxCell>
        <mxCell id="SW06G8s6xXcMQh3IS-n2-172" value="" style="ellipse;whiteSpace=wrap;html=1;aspect=fixed;" parent="1" vertex="1">
          <mxGeometry x="980" y="320" width="20" height="20" as="geometry" />
        </mxCell>
        <mxCell id="SW06G8s6xXcMQh3IS-n2-173" value="" style="ellipse;whiteSpace=wrap;html=1;aspect=fixed;" parent="1" vertex="1">
          <mxGeometry x="1020" y="320" width="20" height="20" as="geometry" />
        </mxCell>
        <mxCell id="SW06G8s6xXcMQh3IS-n2-174" value="" style="ellipse;whiteSpace=wrap;html=1;aspect=fixed;" parent="1" vertex="1">
          <mxGeometry x="1060" y="320" width="20" height="20" as="geometry" />
        </mxCell>
        <mxCell id="SW06G8s6xXcMQh3IS-n2-175" value="" style="ellipse;whiteSpace=wrap;html=1;aspect=fixed;" parent="1" vertex="1">
          <mxGeometry x="780" y="320" width="20" height="20" as="geometry" />
        </mxCell>
        <mxCell id="SW06G8s6xXcMQh3IS-n2-176" value="" style="ellipse;whiteSpace=wrap;html=1;aspect=fixed;" parent="1" vertex="1">
          <mxGeometry x="820" y="320" width="20" height="20" as="geometry" />
        </mxCell>
        <mxCell id="SW06G8s6xXcMQh3IS-n2-177" value="" style="ellipse;whiteSpace=wrap;html=1;aspect=fixed;" parent="1" vertex="1">
          <mxGeometry x="860" y="320" width="20" height="20" as="geometry" />
        </mxCell>
        <mxCell id="SW06G8s6xXcMQh3IS-n2-178" value="" style="ellipse;whiteSpace=wrap;html=1;aspect=fixed;" parent="1" vertex="1">
          <mxGeometry x="900" y="320" width="20" height="20" as="geometry" />
        </mxCell>
        <mxCell id="SW06G8s6xXcMQh3IS-n2-179" value="carry" style="text;html=1;align=center;verticalAlign=middle;resizable=0;points=[];autosize=1;strokeColor=none;fillColor=none;" parent="1" vertex="1">
          <mxGeometry x="770" y="340" width="40" height="20" as="geometry" />
        </mxCell>
        <mxCell id="SW06G8s6xXcMQh3IS-n2-180" value="karatsuba:" style="text;html=1;align=center;verticalAlign=middle;resizable=0;points=[];autosize=1;strokeColor=none;fillColor=none;" parent="1" vertex="1">
          <mxGeometry x="740" y="370" width="70" height="20" as="geometry" />
        </mxCell>
        <mxCell id="SW06G8s6xXcMQh3IS-n2-181" value="" style="rounded=0;whiteSpace=wrap;html=1;fillColor=#ffe6cc;strokeColor=#d79b00;" parent="1" vertex="1">
          <mxGeometry x="880" y="370" width="40" height="20" as="geometry" />
        </mxCell>
        <mxCell id="SW06G8s6xXcMQh3IS-n2-182" value="-" style="text;html=1;align=center;verticalAlign=middle;resizable=0;points=[];autosize=1;strokeColor=none;fillColor=none;" parent="1" vertex="1">
          <mxGeometry x="920" y="370" width="20" height="20" as="geometry" />
        </mxCell>
        <mxCell id="SW06G8s6xXcMQh3IS-n2-183" value="" style="rounded=0;whiteSpace=wrap;html=1;fillColor=#dae8fc;strokeColor=#6c8ebf;" parent="1" vertex="1">
          <mxGeometry x="940" y="370" width="40" height="20" as="geometry" />
        </mxCell>
        <mxCell id="SW06G8s6xXcMQh3IS-n2-184" value="-" style="text;html=1;align=center;verticalAlign=middle;resizable=0;points=[];autosize=1;strokeColor=none;fillColor=none;" parent="1" vertex="1">
          <mxGeometry x="980" y="370" width="20" height="20" as="geometry" />
        </mxCell>
        <mxCell id="SW06G8s6xXcMQh3IS-n2-185" value="" style="rounded=0;whiteSpace=wrap;html=1;fillColor=#d5e8d4;strokeColor=#82b366;" parent="1" vertex="1">
          <mxGeometry x="1000" y="370" width="40" height="20" as="geometry" />
        </mxCell>
        <mxCell id="SW06G8s6xXcMQh3IS-n2-187" value="" style="rounded=0;whiteSpace=wrap;html=1;fillColor=#fff2cc;strokeColor=#d6b656;" parent="1" vertex="1">
          <mxGeometry x="880" y="400" width="40" height="20" as="geometry" />
        </mxCell>
        <mxCell id="SW06G8s6xXcMQh3IS-n2-188" value="+" style="text;html=1;align=center;verticalAlign=middle;resizable=0;points=[];autosize=1;strokeColor=none;fillColor=none;" parent="1" vertex="1">
          <mxGeometry x="920" y="400" width="20" height="20" as="geometry" />
        </mxCell>
        <mxCell id="SW06G8s6xXcMQh3IS-n2-189" value="" style="rounded=0;whiteSpace=wrap;html=1;fillColor=#dae8fc;strokeColor=#6c8ebf;" parent="1" vertex="1">
          <mxGeometry x="940" y="400" width="40" height="20" as="geometry" />
        </mxCell>
        <mxCell id="SW06G8s6xXcMQh3IS-n2-190" value="+" style="text;html=1;align=center;verticalAlign=middle;resizable=0;points=[];autosize=1;strokeColor=none;fillColor=none;" parent="1" vertex="1">
          <mxGeometry x="980" y="400" width="20" height="20" as="geometry" />
        </mxCell>
        <mxCell id="SW06G8s6xXcMQh3IS-n2-191" value="" style="rounded=0;whiteSpace=wrap;html=1;fillColor=#d5e8d4;strokeColor=#82b366;" parent="1" vertex="1">
          <mxGeometry x="1000" y="400" width="40" height="20" as="geometry" />
        </mxCell>
        <mxCell id="SW06G8s6xXcMQh3IS-n2-192" value="" style="rounded=0;whiteSpace=wrap;html=1;fillColor=#fff2cc;strokeColor=#d6b656;" parent="1" vertex="1">
          <mxGeometry x="820" y="370" width="40" height="20" as="geometry" />
        </mxCell>
        <mxCell id="SW06G8s6xXcMQh3IS-n2-193" value="=" style="text;html=1;align=center;verticalAlign=middle;resizable=0;points=[];autosize=1;strokeColor=none;fillColor=none;" parent="1" vertex="1">
          <mxGeometry x="855" y="365" width="30" height="30" as="geometry" />
        </mxCell>
        <mxCell id="SW06G8s6xXcMQh3IS-n2-249" value="" style="shape=parallelogram;perimeter=parallelogramPerimeter;whiteSpace=wrap;html=1;fixedSize=1;size=80;fillColor=#d5e8d4;strokeColor=#82b366;" parent="1" vertex="1">
          <mxGeometry x="510" y="210" width="160" height="80" as="geometry" />
        </mxCell>
        <mxCell id="SW06G8s6xXcMQh3IS-n2-250" value="" style="shape=parallelogram;perimeter=parallelogramPerimeter;whiteSpace=wrap;html=1;fixedSize=1;size=80;fillColor=#dae8fc;strokeColor=#6c8ebf;" parent="1" vertex="1">
          <mxGeometry x="510" y="130" width="160" height="80" as="geometry" />
        </mxCell>
        <mxCell id="SW06G8s6xXcMQh3IS-n2-251" value="" style="shape=parallelogram;perimeter=parallelogramPerimeter;whiteSpace=wrap;html=1;fixedSize=1;size=80;fillColor=#ffe6cc;strokeColor=#d79b00;" parent="1" vertex="1">
          <mxGeometry x="590" y="130" width="160" height="80" as="geometry" />
        </mxCell>
        <mxCell id="SW06G8s6xXcMQh3IS-n2-252" value="" style="ellipse;whiteSpace=wrap;html=1;aspect=fixed;" parent="1" vertex="1">
          <mxGeometry x="580" y="40" width="20" height="20" as="geometry" />
        </mxCell>
        <mxCell id="SW06G8s6xXcMQh3IS-n2-253" value="" style="ellipse;whiteSpace=wrap;html=1;aspect=fixed;" parent="1" vertex="1">
          <mxGeometry x="620" y="40" width="20" height="20" as="geometry" />
        </mxCell>
        <mxCell id="SW06G8s6xXcMQh3IS-n2-254" value="" style="ellipse;whiteSpace=wrap;html=1;aspect=fixed;" parent="1" vertex="1">
          <mxGeometry x="660" y="40" width="20" height="20" as="geometry" />
        </mxCell>
        <mxCell id="SW06G8s6xXcMQh3IS-n2-255" value="" style="ellipse;whiteSpace=wrap;html=1;aspect=fixed;" parent="1" vertex="1">
          <mxGeometry x="700" y="40" width="20" height="20" as="geometry" />
        </mxCell>
        <mxCell id="SW06G8s6xXcMQh3IS-n2-256" value="" style="ellipse;whiteSpace=wrap;html=1;aspect=fixed;" parent="1" vertex="1">
          <mxGeometry x="580" y="80" width="20" height="20" as="geometry" />
        </mxCell>
        <mxCell id="SW06G8s6xXcMQh3IS-n2-257" value="" style="ellipse;whiteSpace=wrap;html=1;aspect=fixed;" parent="1" vertex="1">
          <mxGeometry x="620" y="80" width="20" height="20" as="geometry" />
        </mxCell>
        <mxCell id="SW06G8s6xXcMQh3IS-n2-258" value="" style="ellipse;whiteSpace=wrap;html=1;aspect=fixed;" parent="1" vertex="1">
          <mxGeometry x="660" y="80" width="20" height="20" as="geometry" />
        </mxCell>
        <mxCell id="SW06G8s6xXcMQh3IS-n2-259" value="" style="ellipse;whiteSpace=wrap;html=1;aspect=fixed;" parent="1" vertex="1">
          <mxGeometry x="700" y="80" width="20" height="20" as="geometry" />
        </mxCell>
        <mxCell id="SW06G8s6xXcMQh3IS-n2-260" value="" style="endArrow=none;html=1;" parent="1" edge="1">
          <mxGeometry width="50" height="50" relative="1" as="geometry">
            <mxPoint x="520" y="120" as="sourcePoint" />
            <mxPoint x="720.0000000000002" y="120" as="targetPoint" />
          </mxGeometry>
        </mxCell>
        <mxCell id="SW06G8s6xXcMQh3IS-n2-261" value="" style="endArrow=none;html=1;" parent="1" edge="1">
          <mxGeometry width="50" height="50" relative="1" as="geometry">
            <mxPoint x="520" y="100" as="sourcePoint" />
            <mxPoint x="540" y="80" as="targetPoint" />
          </mxGeometry>
        </mxCell>
        <mxCell id="SW06G8s6xXcMQh3IS-n2-262" value="" style="endArrow=none;html=1;" parent="1" edge="1">
          <mxGeometry width="50" height="50" relative="1" as="geometry">
            <mxPoint x="520" y="80" as="sourcePoint" />
            <mxPoint x="540" y="100" as="targetPoint" />
          </mxGeometry>
        </mxCell>
        <mxCell id="SW06G8s6xXcMQh3IS-n2-263" value="" style="ellipse;whiteSpace=wrap;html=1;aspect=fixed;" parent="1" vertex="1">
          <mxGeometry x="580" y="140" width="20" height="20" as="geometry" />
        </mxCell>
        <mxCell id="SW06G8s6xXcMQh3IS-n2-264" value="" style="ellipse;whiteSpace=wrap;html=1;aspect=fixed;" parent="1" vertex="1">
          <mxGeometry x="620" y="140" width="20" height="20" as="geometry" />
        </mxCell>
        <mxCell id="SW06G8s6xXcMQh3IS-n2-265" value="" style="ellipse;whiteSpace=wrap;html=1;aspect=fixed;" parent="1" vertex="1">
          <mxGeometry x="660" y="140" width="20" height="20" as="geometry" />
        </mxCell>
        <mxCell id="SW06G8s6xXcMQh3IS-n2-266" value="" style="ellipse;whiteSpace=wrap;html=1;aspect=fixed;" parent="1" vertex="1">
          <mxGeometry x="700" y="140" width="20" height="20" as="geometry" />
        </mxCell>
        <mxCell id="SW06G8s6xXcMQh3IS-n2-267" value="" style="ellipse;whiteSpace=wrap;html=1;aspect=fixed;" parent="1" vertex="1">
          <mxGeometry x="540" y="180" width="20" height="20" as="geometry" />
        </mxCell>
        <mxCell id="SW06G8s6xXcMQh3IS-n2-268" value="" style="ellipse;whiteSpace=wrap;html=1;aspect=fixed;" parent="1" vertex="1">
          <mxGeometry x="580" y="180" width="20" height="20" as="geometry" />
        </mxCell>
        <mxCell id="SW06G8s6xXcMQh3IS-n2-269" value="" style="ellipse;whiteSpace=wrap;html=1;aspect=fixed;" parent="1" vertex="1">
          <mxGeometry x="620" y="180" width="20" height="20" as="geometry" />
        </mxCell>
        <mxCell id="SW06G8s6xXcMQh3IS-n2-270" value="" style="ellipse;whiteSpace=wrap;html=1;aspect=fixed;" parent="1" vertex="1">
          <mxGeometry x="660" y="180" width="20" height="20" as="geometry" />
        </mxCell>
        <mxCell id="SW06G8s6xXcMQh3IS-n2-271" value="" style="ellipse;whiteSpace=wrap;html=1;aspect=fixed;" parent="1" vertex="1">
          <mxGeometry x="500" y="220" width="20" height="20" as="geometry" />
        </mxCell>
        <mxCell id="SW06G8s6xXcMQh3IS-n2-272" value="" style="ellipse;whiteSpace=wrap;html=1;aspect=fixed;" parent="1" vertex="1">
          <mxGeometry x="540" y="220" width="20" height="20" as="geometry" />
        </mxCell>
        <mxCell id="SW06G8s6xXcMQh3IS-n2-273" value="" style="ellipse;whiteSpace=wrap;html=1;aspect=fixed;" parent="1" vertex="1">
          <mxGeometry x="580" y="220" width="20" height="20" as="geometry" />
        </mxCell>
        <mxCell id="SW06G8s6xXcMQh3IS-n2-274" value="" style="ellipse;whiteSpace=wrap;html=1;aspect=fixed;" parent="1" vertex="1">
          <mxGeometry x="620" y="220" width="20" height="20" as="geometry" />
        </mxCell>
        <mxCell id="SW06G8s6xXcMQh3IS-n2-275" value="" style="ellipse;whiteSpace=wrap;html=1;aspect=fixed;" parent="1" vertex="1">
          <mxGeometry x="460" y="260" width="20" height="20" as="geometry" />
        </mxCell>
        <mxCell id="SW06G8s6xXcMQh3IS-n2-276" value="" style="ellipse;whiteSpace=wrap;html=1;aspect=fixed;" parent="1" vertex="1">
          <mxGeometry x="500" y="260" width="20" height="20" as="geometry" />
        </mxCell>
        <mxCell id="SW06G8s6xXcMQh3IS-n2-277" value="" style="ellipse;whiteSpace=wrap;html=1;aspect=fixed;" parent="1" vertex="1">
          <mxGeometry x="540" y="260" width="20" height="20" as="geometry" />
        </mxCell>
        <mxCell id="SW06G8s6xXcMQh3IS-n2-278" value="" style="ellipse;whiteSpace=wrap;html=1;aspect=fixed;" parent="1" vertex="1">
          <mxGeometry x="580" y="260" width="20" height="20" as="geometry" />
        </mxCell>
        <mxCell id="SW06G8s6xXcMQh3IS-n2-279" value="" style="endArrow=none;html=1;" parent="1" edge="1">
          <mxGeometry width="50" height="50" relative="1" as="geometry">
            <mxPoint x="400" y="300" as="sourcePoint" />
            <mxPoint x="720.0000000000002" y="300" as="targetPoint" />
          </mxGeometry>
        </mxCell>
        <mxCell id="SW06G8s6xXcMQh3IS-n2-280" value="" style="ellipse;whiteSpace=wrap;html=1;aspect=fixed;" parent="1" vertex="1">
          <mxGeometry x="580" y="320" width="20" height="20" as="geometry" />
        </mxCell>
        <mxCell id="SW06G8s6xXcMQh3IS-n2-281" value="" style="ellipse;whiteSpace=wrap;html=1;aspect=fixed;" parent="1" vertex="1">
          <mxGeometry x="620" y="320" width="20" height="20" as="geometry" />
        </mxCell>
        <mxCell id="SW06G8s6xXcMQh3IS-n2-282" value="" style="ellipse;whiteSpace=wrap;html=1;aspect=fixed;" parent="1" vertex="1">
          <mxGeometry x="660" y="320" width="20" height="20" as="geometry" />
        </mxCell>
        <mxCell id="SW06G8s6xXcMQh3IS-n2-283" value="" style="ellipse;whiteSpace=wrap;html=1;aspect=fixed;" parent="1" vertex="1">
          <mxGeometry x="700" y="320" width="20" height="20" as="geometry" />
        </mxCell>
        <mxCell id="SW06G8s6xXcMQh3IS-n2-284" value="" style="ellipse;whiteSpace=wrap;html=1;aspect=fixed;" parent="1" vertex="1">
          <mxGeometry x="420" y="320" width="20" height="20" as="geometry" />
        </mxCell>
        <mxCell id="SW06G8s6xXcMQh3IS-n2-285" value="" style="ellipse;whiteSpace=wrap;html=1;aspect=fixed;" parent="1" vertex="1">
          <mxGeometry x="460" y="320" width="20" height="20" as="geometry" />
        </mxCell>
        <mxCell id="SW06G8s6xXcMQh3IS-n2-286" value="" style="ellipse;whiteSpace=wrap;html=1;aspect=fixed;" parent="1" vertex="1">
          <mxGeometry x="500" y="320" width="20" height="20" as="geometry" />
        </mxCell>
        <mxCell id="SW06G8s6xXcMQh3IS-n2-287" value="" style="ellipse;whiteSpace=wrap;html=1;aspect=fixed;" parent="1" vertex="1">
          <mxGeometry x="540" y="320" width="20" height="20" as="geometry" />
        </mxCell>
        <mxCell id="SW06G8s6xXcMQh3IS-n2-288" value="carry" style="text;html=1;align=center;verticalAlign=middle;resizable=0;points=[];autosize=1;strokeColor=none;fillColor=none;" parent="1" vertex="1">
          <mxGeometry x="410" y="340" width="40" height="20" as="geometry" />
        </mxCell>
        <mxCell id="SW06G8s6xXcMQh3IS-n2-289" value="low-bits" style="text;html=1;align=center;verticalAlign=middle;resizable=0;points=[];autosize=1;strokeColor=none;fillColor=none;" parent="1" vertex="1">
          <mxGeometry x="450" y="370" width="60" height="20" as="geometry" />
        </mxCell>
        <mxCell id="SW06G8s6xXcMQh3IS-n2-290" value="" style="rounded=0;whiteSpace=wrap;html=1;fillColor=#ffe6cc;strokeColor=#d79b00;" parent="1" vertex="1">
          <mxGeometry x="520" y="370" width="40" height="20" as="geometry" />
        </mxCell>
        <mxCell id="SW06G8s6xXcMQh3IS-n2-291" value="+" style="text;html=1;align=center;verticalAlign=middle;resizable=0;points=[];autosize=1;strokeColor=none;fillColor=none;" parent="1" vertex="1">
          <mxGeometry x="560" y="370" width="20" height="20" as="geometry" />
        </mxCell>
        <mxCell id="SW06G8s6xXcMQh3IS-n2-292" value="" style="rounded=0;whiteSpace=wrap;html=1;fillColor=#dae8fc;strokeColor=#6c8ebf;" parent="1" vertex="1">
          <mxGeometry x="580" y="370" width="40" height="20" as="geometry" />
        </mxCell>
        <mxCell id="SW06G8s6xXcMQh3IS-n2-293" value="+" style="text;html=1;align=center;verticalAlign=middle;resizable=0;points=[];autosize=1;strokeColor=none;fillColor=none;" parent="1" vertex="1">
          <mxGeometry x="620" y="370" width="20" height="20" as="geometry" />
        </mxCell>
        <mxCell id="SW06G8s6xXcMQh3IS-n2-294" value="" style="rounded=0;whiteSpace=wrap;html=1;fillColor=#d5e8d4;strokeColor=#82b366;" parent="1" vertex="1">
          <mxGeometry x="640" y="370" width="40" height="20" as="geometry" />
        </mxCell>
        <mxCell id="SW06G8s6xXcMQh3IS-n2-295" value="" style="endArrow=none;dashed=1;html=1;dashPattern=1 3;strokeWidth=2;" parent="1" edge="1">
          <mxGeometry width="50" height="50" relative="1" as="geometry">
            <mxPoint x="569.6599999999999" y="360" as="sourcePoint" />
            <mxPoint x="569.6599999999999" y="40" as="targetPoint" />
          </mxGeometry>
        </mxCell>
        <mxCell id="SW06G8s6xXcMQh3IS-n2-296" value="" style="ellipse;whiteSpace=wrap;html=1;aspect=fixed;" parent="1" vertex="1">
          <mxGeometry x="940" y="440" width="20" height="20" as="geometry" />
        </mxCell>
        <mxCell id="SW06G8s6xXcMQh3IS-n2-297" value="" style="ellipse;whiteSpace=wrap;html=1;aspect=fixed;" parent="1" vertex="1">
          <mxGeometry x="980" y="440" width="20" height="20" as="geometry" />
        </mxCell>
        <mxCell id="SW06G8s6xXcMQh3IS-n2-298" value="" style="ellipse;whiteSpace=wrap;html=1;aspect=fixed;" parent="1" vertex="1">
          <mxGeometry x="1020" y="440" width="20" height="20" as="geometry" />
        </mxCell>
        <mxCell id="SW06G8s6xXcMQh3IS-n2-299" value="" style="ellipse;whiteSpace=wrap;html=1;aspect=fixed;" parent="1" vertex="1">
          <mxGeometry x="1060" y="440" width="20" height="20" as="geometry" />
        </mxCell>
        <mxCell id="SW06G8s6xXcMQh3IS-n2-300" value="" style="shape=parallelogram;perimeter=parallelogramPerimeter;whiteSpace=wrap;html=1;fixedSize=1;size=80;fillColor=#d5e8d4;strokeColor=#82b366;" parent="1" vertex="1">
          <mxGeometry x="150" y="610" width="160" height="80" as="geometry" />
        </mxCell>
        <mxCell id="SW06G8s6xXcMQh3IS-n2-301" value="" style="shape=parallelogram;perimeter=parallelogramPerimeter;whiteSpace=wrap;html=1;fixedSize=1;size=80;fillColor=#d5e8d4;strokeColor=#82b366;" parent="1" vertex="1">
          <mxGeometry x="150" y="530" width="160" height="80" as="geometry" />
        </mxCell>
        <mxCell id="SW06G8s6xXcMQh3IS-n2-302" value="" style="shape=parallelogram;perimeter=parallelogramPerimeter;whiteSpace=wrap;html=1;fixedSize=1;size=80;fillColor=#ffe6cc;strokeColor=#d79b00;" parent="1" vertex="1">
          <mxGeometry x="70" y="610" width="160" height="80" as="geometry" />
        </mxCell>
        <mxCell id="SW06G8s6xXcMQh3IS-n2-303" value="" style="ellipse;whiteSpace=wrap;html=1;aspect=fixed;" parent="1" vertex="1">
          <mxGeometry x="220" y="440" width="20" height="20" as="geometry" />
        </mxCell>
        <mxCell id="SW06G8s6xXcMQh3IS-n2-304" value="" style="ellipse;whiteSpace=wrap;html=1;aspect=fixed;" parent="1" vertex="1">
          <mxGeometry x="260" y="440" width="20" height="20" as="geometry" />
        </mxCell>
        <mxCell id="SW06G8s6xXcMQh3IS-n2-305" value="" style="ellipse;whiteSpace=wrap;html=1;aspect=fixed;" parent="1" vertex="1">
          <mxGeometry x="300" y="440" width="20" height="20" as="geometry" />
        </mxCell>
        <mxCell id="SW06G8s6xXcMQh3IS-n2-306" value="" style="ellipse;whiteSpace=wrap;html=1;aspect=fixed;" parent="1" vertex="1">
          <mxGeometry x="340" y="440" width="20" height="20" as="geometry" />
        </mxCell>
        <mxCell id="SW06G8s6xXcMQh3IS-n2-307" value="" style="ellipse;whiteSpace=wrap;html=1;aspect=fixed;" parent="1" vertex="1">
          <mxGeometry x="220" y="480" width="20" height="20" as="geometry" />
        </mxCell>
        <mxCell id="SW06G8s6xXcMQh3IS-n2-308" value="" style="ellipse;whiteSpace=wrap;html=1;aspect=fixed;" parent="1" vertex="1">
          <mxGeometry x="260" y="480" width="20" height="20" as="geometry" />
        </mxCell>
        <mxCell id="SW06G8s6xXcMQh3IS-n2-309" value="" style="ellipse;whiteSpace=wrap;html=1;aspect=fixed;" parent="1" vertex="1">
          <mxGeometry x="300" y="480" width="20" height="20" as="geometry" />
        </mxCell>
        <mxCell id="SW06G8s6xXcMQh3IS-n2-310" value="" style="ellipse;whiteSpace=wrap;html=1;aspect=fixed;" parent="1" vertex="1">
          <mxGeometry x="340" y="480" width="20" height="20" as="geometry" />
        </mxCell>
        <mxCell id="SW06G8s6xXcMQh3IS-n2-311" value="" style="endArrow=none;html=1;" parent="1" edge="1">
          <mxGeometry width="50" height="50" relative="1" as="geometry">
            <mxPoint x="160" y="520" as="sourcePoint" />
            <mxPoint x="360.0000000000002" y="520" as="targetPoint" />
          </mxGeometry>
        </mxCell>
        <mxCell id="SW06G8s6xXcMQh3IS-n2-312" value="" style="endArrow=none;html=1;" parent="1" edge="1">
          <mxGeometry width="50" height="50" relative="1" as="geometry">
            <mxPoint x="160" y="500" as="sourcePoint" />
            <mxPoint x="180" y="480" as="targetPoint" />
          </mxGeometry>
        </mxCell>
        <mxCell id="SW06G8s6xXcMQh3IS-n2-313" value="" style="endArrow=none;html=1;" parent="1" edge="1">
          <mxGeometry width="50" height="50" relative="1" as="geometry">
            <mxPoint x="160" y="480" as="sourcePoint" />
            <mxPoint x="180" y="500" as="targetPoint" />
          </mxGeometry>
        </mxCell>
        <mxCell id="SW06G8s6xXcMQh3IS-n2-314" value="" style="ellipse;whiteSpace=wrap;html=1;aspect=fixed;" parent="1" vertex="1">
          <mxGeometry x="220" y="540" width="20" height="20" as="geometry" />
        </mxCell>
        <mxCell id="SW06G8s6xXcMQh3IS-n2-315" value="" style="ellipse;whiteSpace=wrap;html=1;aspect=fixed;" parent="1" vertex="1">
          <mxGeometry x="260" y="540" width="20" height="20" as="geometry" />
        </mxCell>
        <mxCell id="SW06G8s6xXcMQh3IS-n2-316" value="" style="ellipse;whiteSpace=wrap;html=1;aspect=fixed;" parent="1" vertex="1">
          <mxGeometry x="300" y="540" width="20" height="20" as="geometry" />
        </mxCell>
        <mxCell id="SW06G8s6xXcMQh3IS-n2-317" value="" style="ellipse;whiteSpace=wrap;html=1;aspect=fixed;" parent="1" vertex="1">
          <mxGeometry x="340" y="540" width="20" height="20" as="geometry" />
        </mxCell>
        <mxCell id="SW06G8s6xXcMQh3IS-n2-318" value="" style="ellipse;whiteSpace=wrap;html=1;aspect=fixed;" parent="1" vertex="1">
          <mxGeometry x="180" y="580" width="20" height="20" as="geometry" />
        </mxCell>
        <mxCell id="SW06G8s6xXcMQh3IS-n2-319" value="" style="ellipse;whiteSpace=wrap;html=1;aspect=fixed;" parent="1" vertex="1">
          <mxGeometry x="220" y="580" width="20" height="20" as="geometry" />
        </mxCell>
        <mxCell id="SW06G8s6xXcMQh3IS-n2-320" value="" style="ellipse;whiteSpace=wrap;html=1;aspect=fixed;" parent="1" vertex="1">
          <mxGeometry x="260" y="580" width="20" height="20" as="geometry" />
        </mxCell>
        <mxCell id="SW06G8s6xXcMQh3IS-n2-321" value="" style="ellipse;whiteSpace=wrap;html=1;aspect=fixed;" parent="1" vertex="1">
          <mxGeometry x="300" y="580" width="20" height="20" as="geometry" />
        </mxCell>
        <mxCell id="SW06G8s6xXcMQh3IS-n2-322" value="" style="ellipse;whiteSpace=wrap;html=1;aspect=fixed;" parent="1" vertex="1">
          <mxGeometry x="140" y="620" width="20" height="20" as="geometry" />
        </mxCell>
        <mxCell id="SW06G8s6xXcMQh3IS-n2-323" value="" style="ellipse;whiteSpace=wrap;html=1;aspect=fixed;" parent="1" vertex="1">
          <mxGeometry x="180" y="620" width="20" height="20" as="geometry" />
        </mxCell>
        <mxCell id="SW06G8s6xXcMQh3IS-n2-324" value="" style="ellipse;whiteSpace=wrap;html=1;aspect=fixed;" parent="1" vertex="1">
          <mxGeometry x="220" y="620" width="20" height="20" as="geometry" />
        </mxCell>
        <mxCell id="SW06G8s6xXcMQh3IS-n2-325" value="" style="ellipse;whiteSpace=wrap;html=1;aspect=fixed;" parent="1" vertex="1">
          <mxGeometry x="260" y="620" width="20" height="20" as="geometry" />
        </mxCell>
        <mxCell id="SW06G8s6xXcMQh3IS-n2-326" value="" style="ellipse;whiteSpace=wrap;html=1;aspect=fixed;" parent="1" vertex="1">
          <mxGeometry x="100" y="660" width="20" height="20" as="geometry" />
        </mxCell>
        <mxCell id="SW06G8s6xXcMQh3IS-n2-327" value="" style="ellipse;whiteSpace=wrap;html=1;aspect=fixed;" parent="1" vertex="1">
          <mxGeometry x="140" y="660" width="20" height="20" as="geometry" />
        </mxCell>
        <mxCell id="SW06G8s6xXcMQh3IS-n2-328" value="" style="ellipse;whiteSpace=wrap;html=1;aspect=fixed;" parent="1" vertex="1">
          <mxGeometry x="180" y="660" width="20" height="20" as="geometry" />
        </mxCell>
        <mxCell id="SW06G8s6xXcMQh3IS-n2-329" value="" style="ellipse;whiteSpace=wrap;html=1;aspect=fixed;" parent="1" vertex="1">
          <mxGeometry x="220" y="660" width="20" height="20" as="geometry" />
        </mxCell>
        <mxCell id="SW06G8s6xXcMQh3IS-n2-330" value="" style="endArrow=none;html=1;" parent="1" edge="1">
          <mxGeometry width="50" height="50" relative="1" as="geometry">
            <mxPoint x="40" y="700" as="sourcePoint" />
            <mxPoint x="360.0000000000002" y="700" as="targetPoint" />
          </mxGeometry>
        </mxCell>
        <mxCell id="SW06G8s6xXcMQh3IS-n2-331" value="" style="ellipse;whiteSpace=wrap;html=1;aspect=fixed;" parent="1" vertex="1">
          <mxGeometry x="220" y="720" width="20" height="20" as="geometry" />
        </mxCell>
        <mxCell id="SW06G8s6xXcMQh3IS-n2-332" value="" style="ellipse;whiteSpace=wrap;html=1;aspect=fixed;" parent="1" vertex="1">
          <mxGeometry x="260" y="720" width="20" height="20" as="geometry" />
        </mxCell>
        <mxCell id="SW06G8s6xXcMQh3IS-n2-333" value="" style="ellipse;whiteSpace=wrap;html=1;aspect=fixed;" parent="1" vertex="1">
          <mxGeometry x="300" y="720" width="20" height="20" as="geometry" />
        </mxCell>
        <mxCell id="SW06G8s6xXcMQh3IS-n2-334" value="" style="ellipse;whiteSpace=wrap;html=1;aspect=fixed;" parent="1" vertex="1">
          <mxGeometry x="340" y="720" width="20" height="20" as="geometry" />
        </mxCell>
        <mxCell id="SW06G8s6xXcMQh3IS-n2-335" value="" style="ellipse;whiteSpace=wrap;html=1;aspect=fixed;" parent="1" vertex="1">
          <mxGeometry x="60" y="720" width="20" height="20" as="geometry" />
        </mxCell>
        <mxCell id="SW06G8s6xXcMQh3IS-n2-336" value="" style="ellipse;whiteSpace=wrap;html=1;aspect=fixed;" parent="1" vertex="1">
          <mxGeometry x="100" y="720" width="20" height="20" as="geometry" />
        </mxCell>
        <mxCell id="SW06G8s6xXcMQh3IS-n2-337" value="" style="ellipse;whiteSpace=wrap;html=1;aspect=fixed;" parent="1" vertex="1">
          <mxGeometry x="140" y="720" width="20" height="20" as="geometry" />
        </mxCell>
        <mxCell id="SW06G8s6xXcMQh3IS-n2-338" value="" style="ellipse;whiteSpace=wrap;html=1;aspect=fixed;" parent="1" vertex="1">
          <mxGeometry x="180" y="720" width="20" height="20" as="geometry" />
        </mxCell>
        <mxCell id="SW06G8s6xXcMQh3IS-n2-339" value="carry" style="text;html=1;align=center;verticalAlign=middle;resizable=0;points=[];autosize=1;strokeColor=none;fillColor=none;" parent="1" vertex="1">
          <mxGeometry x="50" y="740" width="40" height="20" as="geometry" />
        </mxCell>
        <mxCell id="SW06G8s6xXcMQh3IS-n2-340" value="high-bits" style="text;html=1;align=center;verticalAlign=middle;resizable=0;points=[];autosize=1;strokeColor=none;fillColor=none;" parent="1" vertex="1">
          <mxGeometry x="90" y="770" width="60" height="20" as="geometry" />
        </mxCell>
        <mxCell id="SW06G8s6xXcMQh3IS-n2-341" value="" style="rounded=0;whiteSpace=wrap;html=1;fillColor=#ffe6cc;strokeColor=#d79b00;" parent="1" vertex="1">
          <mxGeometry x="160" y="770" width="40" height="20" as="geometry" />
        </mxCell>
        <mxCell id="SW06G8s6xXcMQh3IS-n2-342" value="+" style="text;html=1;align=center;verticalAlign=middle;resizable=0;points=[];autosize=1;strokeColor=none;fillColor=none;" parent="1" vertex="1">
          <mxGeometry x="200" y="770" width="20" height="20" as="geometry" />
        </mxCell>
        <mxCell id="SW06G8s6xXcMQh3IS-n2-343" value="" style="rounded=0;whiteSpace=wrap;html=1;fillColor=#dae8fc;strokeColor=#6c8ebf;" parent="1" vertex="1">
          <mxGeometry x="220" y="770" width="40" height="20" as="geometry" />
        </mxCell>
        <mxCell id="SW06G8s6xXcMQh3IS-n2-344" value="+" style="text;html=1;align=center;verticalAlign=middle;resizable=0;points=[];autosize=1;strokeColor=none;fillColor=none;" parent="1" vertex="1">
          <mxGeometry x="260" y="770" width="20" height="20" as="geometry" />
        </mxCell>
        <mxCell id="SW06G8s6xXcMQh3IS-n2-345" value="" style="rounded=0;whiteSpace=wrap;html=1;fillColor=#d5e8d4;strokeColor=#82b366;" parent="1" vertex="1">
          <mxGeometry x="280" y="770" width="40" height="20" as="geometry" />
        </mxCell>
        <mxCell id="SW06G8s6xXcMQh3IS-n2-346" value="" style="endArrow=none;dashed=1;html=1;dashPattern=1 3;strokeWidth=2;" parent="1" edge="1">
          <mxGeometry width="50" height="50" relative="1" as="geometry">
            <mxPoint x="209.65999999999985" y="760" as="sourcePoint" />
            <mxPoint x="209.65999999999985" y="440" as="targetPoint" />
          </mxGeometry>
        </mxCell>
      </root>
    </mxGraphModel>
  </diagram>
  <diagram id="IVq7GiJwg-56EfYNLiwd" name="n-split">
    <mxGraphModel dx="1124" dy="637" grid="1" gridSize="10" guides="1" tooltips="1" connect="1" arrows="1" fold="1" page="1" pageScale="1" pageWidth="827" pageHeight="1169" math="0" shadow="0">
      <root>
        <mxCell id="0" />
        <mxCell id="1" parent="0" />
        <mxCell id="eN85J-rcCC1jnokJrJpV-14" value="" style="shape=parallelogram;perimeter=parallelogramPerimeter;whiteSpace=wrap;html=1;fixedSize=1;size=40;fillColor=#dae8fc;strokeColor=#6c8ebf;" vertex="1" parent="1">
          <mxGeometry x="80" y="300" width="80" height="40" as="geometry" />
        </mxCell>
        <mxCell id="eN85J-rcCC1jnokJrJpV-15" value="" style="shape=parallelogram;perimeter=parallelogramPerimeter;whiteSpace=wrap;html=1;fixedSize=1;size=40;" vertex="1" parent="1">
          <mxGeometry x="40" y="340" width="80" height="40" as="geometry" />
        </mxCell>
        <mxCell id="eN85J-rcCC1jnokJrJpV-16" value="" style="shape=parallelogram;perimeter=parallelogramPerimeter;whiteSpace=wrap;html=1;fixedSize=1;size=40;fillColor=#dae8fc;strokeColor=#6c8ebf;" vertex="1" parent="1">
          <mxGeometry x="80" y="340" width="80" height="40" as="geometry" />
        </mxCell>
        <mxCell id="eN85J-rcCC1jnokJrJpV-17" value="" style="shape=parallelogram;perimeter=parallelogramPerimeter;whiteSpace=wrap;html=1;fixedSize=1;size=40;" vertex="1" parent="1">
          <mxGeometry x="120" y="300" width="80" height="40" as="geometry" />
        </mxCell>
        <mxCell id="93Mpq_SkFoiQzX1NDKOi-1" value="" style="shape=parallelogram;perimeter=parallelogramPerimeter;whiteSpace=wrap;html=1;fixedSize=1;size=40;fillColor=#d5e8d4;strokeColor=#82b366;" vertex="1" parent="1">
          <mxGeometry x="280" y="280" width="80" height="40" as="geometry" />
        </mxCell>
        <mxCell id="93Mpq_SkFoiQzX1NDKOi-2" value="" style="shape=parallelogram;perimeter=parallelogramPerimeter;whiteSpace=wrap;html=1;fixedSize=1;size=40;fillColor=#dae8fc;strokeColor=#6c8ebf;" vertex="1" parent="1">
          <mxGeometry x="240" y="320" width="80" height="40" as="geometry" />
        </mxCell>
        <mxCell id="93Mpq_SkFoiQzX1NDKOi-3" value="" style="shape=parallelogram;perimeter=parallelogramPerimeter;whiteSpace=wrap;html=1;fixedSize=1;size=40;" vertex="1" parent="1">
          <mxGeometry x="280" y="320" width="80" height="40" as="geometry" />
        </mxCell>
        <mxCell id="93Mpq_SkFoiQzX1NDKOi-4" value="" style="shape=parallelogram;perimeter=parallelogramPerimeter;whiteSpace=wrap;html=1;fixedSize=1;size=40;fillColor=#ffe6cc;strokeColor=#d79b00;" vertex="1" parent="1">
          <mxGeometry x="320" y="280" width="80" height="40" as="geometry" />
        </mxCell>
        <mxCell id="93Mpq_SkFoiQzX1NDKOi-5" value="" style="shape=parallelogram;perimeter=parallelogramPerimeter;whiteSpace=wrap;html=1;fixedSize=1;size=40;" vertex="1" parent="1">
          <mxGeometry x="200" y="360" width="80" height="40" as="geometry" />
        </mxCell>
        <mxCell id="93Mpq_SkFoiQzX1NDKOi-6" value="" style="shape=parallelogram;perimeter=parallelogramPerimeter;whiteSpace=wrap;html=1;fixedSize=1;size=40;fillColor=#dae8fc;strokeColor=#6c8ebf;" vertex="1" parent="1">
          <mxGeometry x="240" y="360" width="80" height="40" as="geometry" />
        </mxCell>
        <mxCell id="93Mpq_SkFoiQzX1NDKOi-7" value="" style="shape=parallelogram;perimeter=parallelogramPerimeter;whiteSpace=wrap;html=1;fixedSize=1;size=40;fillColor=#d5e8d4;strokeColor=#82b366;" vertex="1" parent="1">
          <mxGeometry x="280" y="360" width="80" height="40" as="geometry" />
        </mxCell>
        <mxCell id="93Mpq_SkFoiQzX1NDKOi-8" value="" style="shape=parallelogram;perimeter=parallelogramPerimeter;whiteSpace=wrap;html=1;fixedSize=1;size=40;fillColor=#ffe6cc;strokeColor=#d79b00;" vertex="1" parent="1">
          <mxGeometry x="320" y="320" width="80" height="40" as="geometry" />
        </mxCell>
        <mxCell id="93Mpq_SkFoiQzX1NDKOi-9" value="" style="shape=parallelogram;perimeter=parallelogramPerimeter;whiteSpace=wrap;html=1;fixedSize=1;size=40;" vertex="1" parent="1">
          <mxGeometry x="360" y="280" width="80" height="40" as="geometry" />
        </mxCell>
        <mxCell id="93Mpq_SkFoiQzX1NDKOi-10" value="" style="endArrow=none;dashed=1;html=1;dashPattern=1 3;strokeWidth=2;rounded=0;" edge="1" parent="1">
          <mxGeometry width="50" height="50" relative="1" as="geometry">
            <mxPoint x="120" y="400" as="sourcePoint" />
            <mxPoint x="120" y="270" as="targetPoint" />
          </mxGeometry>
        </mxCell>
        <mxCell id="93Mpq_SkFoiQzX1NDKOi-11" value="" style="endArrow=none;dashed=1;html=1;dashPattern=1 3;strokeWidth=2;rounded=0;" edge="1" parent="1">
          <mxGeometry width="50" height="50" relative="1" as="geometry">
            <mxPoint x="319.43" y="420" as="sourcePoint" />
            <mxPoint x="319.43" y="260" as="targetPoint" />
          </mxGeometry>
        </mxCell>
        <mxCell id="93Mpq_SkFoiQzX1NDKOi-13" value="" style="endArrow=none;dashed=1;html=1;dashPattern=1 3;strokeWidth=2;rounded=0;fillColor=#dae8fc;strokeColor=#6c8ebf;" edge="1" parent="1">
          <mxGeometry width="50" height="50" relative="1" as="geometry">
            <mxPoint x="280.00000000000006" y="420" as="sourcePoint" />
            <mxPoint x="280" y="300" as="targetPoint" />
          </mxGeometry>
        </mxCell>
        <mxCell id="93Mpq_SkFoiQzX1NDKOi-14" value="" style="endArrow=none;dashed=1;html=1;dashPattern=1 3;strokeWidth=2;rounded=0;" edge="1" parent="1">
          <mxGeometry width="50" height="50" relative="1" as="geometry">
            <mxPoint x="360" y="380" as="sourcePoint" />
            <mxPoint x="359.43" y="260" as="targetPoint" />
          </mxGeometry>
        </mxCell>
        <mxCell id="93Mpq_SkFoiQzX1NDKOi-15" value="2-split" style="text;html=1;align=center;verticalAlign=middle;resizable=0;points=[];autosize=1;strokeColor=none;fillColor=none;" vertex="1" parent="1">
          <mxGeometry x="90" y="440" width="60" height="30" as="geometry" />
        </mxCell>
        <mxCell id="93Mpq_SkFoiQzX1NDKOi-16" value="3-split" style="text;html=1;align=center;verticalAlign=middle;resizable=0;points=[];autosize=1;strokeColor=none;fillColor=none;" vertex="1" parent="1">
          <mxGeometry x="290" y="440" width="60" height="30" as="geometry" />
        </mxCell>
      </root>
    </mxGraphModel>
  </diagram>
  <diagram id="28s1f9QY9YZFYCKbJlfl" name="常数路径">
    <mxGraphModel dx="1124" dy="637" grid="1" gridSize="10" guides="1" tooltips="1" connect="1" arrows="1" fold="1" page="1" pageScale="1" pageWidth="827" pageHeight="1169" math="0" shadow="0">
      <root>
        <mxCell id="0" />
        <mxCell id="1" parent="0" />
        <mxCell id="xzkDWGTS2WMrX_wTlUHZ-3" value="" style="edgeStyle=orthogonalEdgeStyle;rounded=0;orthogonalLoop=1;jettySize=auto;html=1;exitX=0.5;exitY=1;exitDx=0;exitDy=0;entryX=0.5;entryY=0;entryDx=0;entryDy=0;fillColor=#dae8fc;strokeColor=#6c8ebf;" edge="1" parent="1" source="xzkDWGTS2WMrX_wTlUHZ-1" target="xzkDWGTS2WMrX_wTlUHZ-2">
          <mxGeometry relative="1" as="geometry" />
        </mxCell>
        <mxCell id="xzkDWGTS2WMrX_wTlUHZ-5" style="edgeStyle=orthogonalEdgeStyle;rounded=0;orthogonalLoop=1;jettySize=auto;html=1;exitX=0.5;exitY=1;exitDx=0;exitDy=0;entryX=0.5;entryY=0;entryDx=0;entryDy=0;fillColor=#d5e8d4;strokeColor=#82b366;" edge="1" parent="1" source="xzkDWGTS2WMrX_wTlUHZ-1" target="xzkDWGTS2WMrX_wTlUHZ-4">
          <mxGeometry relative="1" as="geometry" />
        </mxCell>
        <mxCell id="xzkDWGTS2WMrX_wTlUHZ-7" style="edgeStyle=orthogonalEdgeStyle;rounded=0;orthogonalLoop=1;jettySize=auto;html=1;exitX=0.5;exitY=1;exitDx=0;exitDy=0;entryX=0.5;entryY=0;entryDx=0;entryDy=0;fillColor=#ffe6cc;strokeColor=#d79b00;" edge="1" parent="1" source="xzkDWGTS2WMrX_wTlUHZ-1" target="xzkDWGTS2WMrX_wTlUHZ-6">
          <mxGeometry relative="1" as="geometry" />
        </mxCell>
        <mxCell id="xzkDWGTS2WMrX_wTlUHZ-1" value="A" style="ellipse;whiteSpace=wrap;html=1;aspect=fixed;" vertex="1" parent="1">
          <mxGeometry x="480" y="120" width="40" height="40" as="geometry" />
        </mxCell>
        <mxCell id="xzkDWGTS2WMrX_wTlUHZ-2" value="" style="ellipse;whiteSpace=wrap;html=1;aspect=fixed;" vertex="1" parent="1">
          <mxGeometry x="240" y="210" width="40" height="40" as="geometry" />
        </mxCell>
        <mxCell id="xzkDWGTS2WMrX_wTlUHZ-13" style="edgeStyle=orthogonalEdgeStyle;rounded=0;orthogonalLoop=1;jettySize=auto;html=1;exitX=0.5;exitY=1;exitDx=0;exitDy=0;fillColor=#dae8fc;strokeColor=#6c8ebf;" edge="1" parent="1" source="xzkDWGTS2WMrX_wTlUHZ-4" target="xzkDWGTS2WMrX_wTlUHZ-12">
          <mxGeometry relative="1" as="geometry" />
        </mxCell>
        <mxCell id="xzkDWGTS2WMrX_wTlUHZ-15" style="edgeStyle=orthogonalEdgeStyle;rounded=0;orthogonalLoop=1;jettySize=auto;html=1;exitX=0.5;exitY=1;exitDx=0;exitDy=0;entryX=0.5;entryY=0;entryDx=0;entryDy=0;fillColor=#ffe6cc;strokeColor=#d79b00;" edge="1" parent="1" source="xzkDWGTS2WMrX_wTlUHZ-4" target="xzkDWGTS2WMrX_wTlUHZ-14">
          <mxGeometry relative="1" as="geometry" />
        </mxCell>
        <mxCell id="xzkDWGTS2WMrX_wTlUHZ-17" style="edgeStyle=orthogonalEdgeStyle;rounded=0;orthogonalLoop=1;jettySize=auto;html=1;exitX=0.5;exitY=1;exitDx=0;exitDy=0;entryX=0.5;entryY=0;entryDx=0;entryDy=0;fillColor=#d5e8d4;strokeColor=#82b366;" edge="1" parent="1" source="xzkDWGTS2WMrX_wTlUHZ-4" target="xzkDWGTS2WMrX_wTlUHZ-16">
          <mxGeometry relative="1" as="geometry" />
        </mxCell>
        <mxCell id="xzkDWGTS2WMrX_wTlUHZ-4" value="" style="ellipse;whiteSpace=wrap;html=1;aspect=fixed;" vertex="1" parent="1">
          <mxGeometry x="480" y="210" width="40" height="40" as="geometry" />
        </mxCell>
        <mxCell id="xzkDWGTS2WMrX_wTlUHZ-6" value="" style="ellipse;whiteSpace=wrap;html=1;aspect=fixed;" vertex="1" parent="1">
          <mxGeometry x="720" y="210" width="40" height="40" as="geometry" />
        </mxCell>
        <mxCell id="xzkDWGTS2WMrX_wTlUHZ-8" value="splitAdd" style="endArrow=classic;html=1;rounded=0;fillColor=#dae8fc;strokeColor=#6c8ebf;" edge="1" parent="1">
          <mxGeometry width="50" height="50" relative="1" as="geometry">
            <mxPoint x="140" y="139.51999999999998" as="sourcePoint" />
            <mxPoint x="220" y="139.51999999999998" as="targetPoint" />
          </mxGeometry>
        </mxCell>
        <mxCell id="xzkDWGTS2WMrX_wTlUHZ-10" value="takeHigh" style="endArrow=classic;html=1;rounded=0;fillColor=#d5e8d4;strokeColor=#82b366;" edge="1" parent="1">
          <mxGeometry width="50" height="50" relative="1" as="geometry">
            <mxPoint x="140.0000000000001" y="159.51999999999998" as="sourcePoint" />
            <mxPoint x="220" y="159.51999999999998" as="targetPoint" />
          </mxGeometry>
        </mxCell>
        <mxCell id="xzkDWGTS2WMrX_wTlUHZ-11" value="takeLow" style="endArrow=classic;html=1;rounded=0;fillColor=#ffe6cc;strokeColor=#d79b00;" edge="1" parent="1">
          <mxGeometry width="50" height="50" relative="1" as="geometry">
            <mxPoint x="140" y="179.51999999999998" as="sourcePoint" />
            <mxPoint x="220" y="179.51999999999998" as="targetPoint" />
          </mxGeometry>
        </mxCell>
        <mxCell id="xzkDWGTS2WMrX_wTlUHZ-12" value="" style="ellipse;whiteSpace=wrap;html=1;aspect=fixed;" vertex="1" parent="1">
          <mxGeometry x="400" y="300" width="40" height="40" as="geometry" />
        </mxCell>
        <mxCell id="xzkDWGTS2WMrX_wTlUHZ-14" value="" style="ellipse;whiteSpace=wrap;html=1;aspect=fixed;" vertex="1" parent="1">
          <mxGeometry x="480" y="300" width="40" height="40" as="geometry" />
        </mxCell>
        <mxCell id="xzkDWGTS2WMrX_wTlUHZ-16" value="" style="ellipse;whiteSpace=wrap;html=1;aspect=fixed;" vertex="1" parent="1">
          <mxGeometry x="560" y="300" width="40" height="40" as="geometry" />
        </mxCell>
        <mxCell id="xzkDWGTS2WMrX_wTlUHZ-23" style="edgeStyle=orthogonalEdgeStyle;rounded=0;orthogonalLoop=1;jettySize=auto;html=1;exitX=0.5;exitY=1;exitDx=0;exitDy=0;fillColor=#dae8fc;strokeColor=#6c8ebf;" edge="1" target="xzkDWGTS2WMrX_wTlUHZ-26" parent="1" source="xzkDWGTS2WMrX_wTlUHZ-2">
          <mxGeometry relative="1" as="geometry">
            <mxPoint x="324" y="320" as="sourcePoint" />
          </mxGeometry>
        </mxCell>
        <mxCell id="xzkDWGTS2WMrX_wTlUHZ-24" style="edgeStyle=orthogonalEdgeStyle;rounded=0;orthogonalLoop=1;jettySize=auto;html=1;exitX=0.5;exitY=1;exitDx=0;exitDy=0;entryX=0.5;entryY=0;entryDx=0;entryDy=0;fillColor=#ffe6cc;strokeColor=#d79b00;" edge="1" target="xzkDWGTS2WMrX_wTlUHZ-27" parent="1" source="xzkDWGTS2WMrX_wTlUHZ-2">
          <mxGeometry relative="1" as="geometry">
            <mxPoint x="324" y="320" as="sourcePoint" />
          </mxGeometry>
        </mxCell>
        <mxCell id="xzkDWGTS2WMrX_wTlUHZ-25" style="edgeStyle=orthogonalEdgeStyle;rounded=0;orthogonalLoop=1;jettySize=auto;html=1;exitX=0.5;exitY=1;exitDx=0;exitDy=0;entryX=0.5;entryY=0;entryDx=0;entryDy=0;fillColor=#d5e8d4;strokeColor=#82b366;" edge="1" target="xzkDWGTS2WMrX_wTlUHZ-28" parent="1" source="xzkDWGTS2WMrX_wTlUHZ-2">
          <mxGeometry relative="1" as="geometry">
            <mxPoint x="324" y="320" as="sourcePoint" />
          </mxGeometry>
        </mxCell>
        <mxCell id="xzkDWGTS2WMrX_wTlUHZ-26" value="" style="ellipse;whiteSpace=wrap;html=1;aspect=fixed;" vertex="1" parent="1">
          <mxGeometry x="240" y="300" width="40" height="40" as="geometry" />
        </mxCell>
        <mxCell id="xzkDWGTS2WMrX_wTlUHZ-27" value="" style="ellipse;whiteSpace=wrap;html=1;aspect=fixed;" vertex="1" parent="1">
          <mxGeometry x="320" y="300" width="40" height="40" as="geometry" />
        </mxCell>
        <mxCell id="xzkDWGTS2WMrX_wTlUHZ-28" value="" style="ellipse;whiteSpace=wrap;html=1;aspect=fixed;" vertex="1" parent="1">
          <mxGeometry x="160" y="300" width="40" height="40" as="geometry" />
        </mxCell>
        <mxCell id="xzkDWGTS2WMrX_wTlUHZ-29" style="edgeStyle=orthogonalEdgeStyle;rounded=0;orthogonalLoop=1;jettySize=auto;html=1;exitX=0.5;exitY=1;exitDx=0;exitDy=0;fillColor=#dae8fc;strokeColor=#6c8ebf;" edge="1" target="xzkDWGTS2WMrX_wTlUHZ-32" parent="1" source="xzkDWGTS2WMrX_wTlUHZ-6">
          <mxGeometry relative="1" as="geometry">
            <mxPoint x="364" y="190" as="sourcePoint" />
          </mxGeometry>
        </mxCell>
        <mxCell id="xzkDWGTS2WMrX_wTlUHZ-30" style="edgeStyle=orthogonalEdgeStyle;rounded=0;orthogonalLoop=1;jettySize=auto;html=1;exitX=0.5;exitY=1;exitDx=0;exitDy=0;entryX=0.5;entryY=0;entryDx=0;entryDy=0;fillColor=#ffe6cc;strokeColor=#d79b00;" edge="1" target="xzkDWGTS2WMrX_wTlUHZ-33" parent="1" source="xzkDWGTS2WMrX_wTlUHZ-6">
          <mxGeometry relative="1" as="geometry">
            <mxPoint x="364" y="190" as="sourcePoint" />
          </mxGeometry>
        </mxCell>
        <mxCell id="xzkDWGTS2WMrX_wTlUHZ-31" style="edgeStyle=orthogonalEdgeStyle;rounded=0;orthogonalLoop=1;jettySize=auto;html=1;exitX=0.5;exitY=1;exitDx=0;exitDy=0;entryX=0.5;entryY=0;entryDx=0;entryDy=0;fillColor=#d5e8d4;strokeColor=#82b366;" edge="1" target="xzkDWGTS2WMrX_wTlUHZ-34" parent="1" source="xzkDWGTS2WMrX_wTlUHZ-6">
          <mxGeometry relative="1" as="geometry">
            <mxPoint x="364" y="190" as="sourcePoint" />
          </mxGeometry>
        </mxCell>
        <mxCell id="xzkDWGTS2WMrX_wTlUHZ-32" value="" style="ellipse;whiteSpace=wrap;html=1;aspect=fixed;" vertex="1" parent="1">
          <mxGeometry x="720" y="300" width="40" height="40" as="geometry" />
        </mxCell>
        <mxCell id="xzkDWGTS2WMrX_wTlUHZ-33" value="" style="ellipse;whiteSpace=wrap;html=1;aspect=fixed;" vertex="1" parent="1">
          <mxGeometry x="800" y="300" width="40" height="40" as="geometry" />
        </mxCell>
        <mxCell id="xzkDWGTS2WMrX_wTlUHZ-34" value="" style="ellipse;whiteSpace=wrap;html=1;aspect=fixed;" vertex="1" parent="1">
          <mxGeometry x="640" y="300" width="40" height="40" as="geometry" />
        </mxCell>
        <mxCell id="xzkDWGTS2WMrX_wTlUHZ-85" value="" style="edgeStyle=orthogonalEdgeStyle;rounded=0;orthogonalLoop=1;jettySize=auto;html=1;exitX=0.5;exitY=1;exitDx=0;exitDy=0;entryX=0.5;entryY=0;entryDx=0;entryDy=0;fillColor=#dae8fc;strokeColor=#6c8ebf;dashed=1;" edge="1" source="xzkDWGTS2WMrX_wTlUHZ-88" target="xzkDWGTS2WMrX_wTlUHZ-89" parent="1">
          <mxGeometry relative="1" as="geometry" />
        </mxCell>
        <mxCell id="xzkDWGTS2WMrX_wTlUHZ-86" style="edgeStyle=orthogonalEdgeStyle;rounded=0;orthogonalLoop=1;jettySize=auto;html=1;exitX=0.5;exitY=1;exitDx=0;exitDy=0;entryX=0.5;entryY=0;entryDx=0;entryDy=0;fillColor=#d5e8d4;strokeColor=#82b366;dashed=1;" edge="1" source="xzkDWGTS2WMrX_wTlUHZ-88" target="xzkDWGTS2WMrX_wTlUHZ-93" parent="1">
          <mxGeometry relative="1" as="geometry" />
        </mxCell>
        <mxCell id="xzkDWGTS2WMrX_wTlUHZ-87" style="edgeStyle=orthogonalEdgeStyle;rounded=0;orthogonalLoop=1;jettySize=auto;html=1;exitX=0.5;exitY=1;exitDx=0;exitDy=0;entryX=0.5;entryY=0;entryDx=0;entryDy=0;fillColor=#ffe6cc;strokeColor=#d79b00;dashed=1;" edge="1" source="xzkDWGTS2WMrX_wTlUHZ-88" target="xzkDWGTS2WMrX_wTlUHZ-94" parent="1">
          <mxGeometry relative="1" as="geometry" />
        </mxCell>
        <mxCell id="xzkDWGTS2WMrX_wTlUHZ-88" value="B" style="ellipse;whiteSpace=wrap;html=1;aspect=fixed;dashed=1;" vertex="1" parent="1">
          <mxGeometry x="520" y="140" width="40" height="40" as="geometry" />
        </mxCell>
        <mxCell id="xzkDWGTS2WMrX_wTlUHZ-89" value="" style="ellipse;whiteSpace=wrap;html=1;aspect=fixed;dashed=1;" vertex="1" parent="1">
          <mxGeometry x="280" y="230" width="40" height="40" as="geometry" />
        </mxCell>
        <mxCell id="xzkDWGTS2WMrX_wTlUHZ-90" style="edgeStyle=orthogonalEdgeStyle;rounded=0;orthogonalLoop=1;jettySize=auto;html=1;exitX=0.5;exitY=1;exitDx=0;exitDy=0;fillColor=#dae8fc;strokeColor=#6c8ebf;dashed=1;" edge="1" source="xzkDWGTS2WMrX_wTlUHZ-93" target="xzkDWGTS2WMrX_wTlUHZ-95" parent="1">
          <mxGeometry relative="1" as="geometry" />
        </mxCell>
        <mxCell id="xzkDWGTS2WMrX_wTlUHZ-91" style="edgeStyle=orthogonalEdgeStyle;rounded=0;orthogonalLoop=1;jettySize=auto;html=1;exitX=0.5;exitY=1;exitDx=0;exitDy=0;entryX=0.5;entryY=0;entryDx=0;entryDy=0;fillColor=#ffe6cc;strokeColor=#d79b00;dashed=1;" edge="1" source="xzkDWGTS2WMrX_wTlUHZ-93" target="xzkDWGTS2WMrX_wTlUHZ-96" parent="1">
          <mxGeometry relative="1" as="geometry" />
        </mxCell>
        <mxCell id="xzkDWGTS2WMrX_wTlUHZ-92" style="edgeStyle=orthogonalEdgeStyle;rounded=0;orthogonalLoop=1;jettySize=auto;html=1;exitX=0.5;exitY=1;exitDx=0;exitDy=0;entryX=0.5;entryY=0;entryDx=0;entryDy=0;fillColor=#d5e8d4;strokeColor=#82b366;dashed=1;" edge="1" source="xzkDWGTS2WMrX_wTlUHZ-93" target="xzkDWGTS2WMrX_wTlUHZ-97" parent="1">
          <mxGeometry relative="1" as="geometry" />
        </mxCell>
        <mxCell id="xzkDWGTS2WMrX_wTlUHZ-93" value="" style="ellipse;whiteSpace=wrap;html=1;aspect=fixed;dashed=1;" vertex="1" parent="1">
          <mxGeometry x="520" y="230" width="40" height="40" as="geometry" />
        </mxCell>
        <mxCell id="xzkDWGTS2WMrX_wTlUHZ-94" value="" style="ellipse;whiteSpace=wrap;html=1;aspect=fixed;dashed=1;" vertex="1" parent="1">
          <mxGeometry x="760" y="230" width="40" height="40" as="geometry" />
        </mxCell>
        <mxCell id="xzkDWGTS2WMrX_wTlUHZ-95" value="" style="ellipse;whiteSpace=wrap;html=1;aspect=fixed;dashed=1;" vertex="1" parent="1">
          <mxGeometry x="440" y="320" width="40" height="40" as="geometry" />
        </mxCell>
        <mxCell id="xzkDWGTS2WMrX_wTlUHZ-96" value="" style="ellipse;whiteSpace=wrap;html=1;aspect=fixed;dashed=1;" vertex="1" parent="1">
          <mxGeometry x="520" y="320" width="40" height="40" as="geometry" />
        </mxCell>
        <mxCell id="xzkDWGTS2WMrX_wTlUHZ-97" value="" style="ellipse;whiteSpace=wrap;html=1;aspect=fixed;dashed=1;" vertex="1" parent="1">
          <mxGeometry x="600" y="320" width="40" height="40" as="geometry" />
        </mxCell>
        <mxCell id="xzkDWGTS2WMrX_wTlUHZ-98" style="edgeStyle=orthogonalEdgeStyle;rounded=0;orthogonalLoop=1;jettySize=auto;html=1;exitX=0.5;exitY=1;exitDx=0;exitDy=0;fillColor=#dae8fc;strokeColor=#6c8ebf;dashed=1;" edge="1" source="xzkDWGTS2WMrX_wTlUHZ-89" target="xzkDWGTS2WMrX_wTlUHZ-101" parent="1">
          <mxGeometry relative="1" as="geometry">
            <mxPoint x="364" y="340" as="sourcePoint" />
          </mxGeometry>
        </mxCell>
        <mxCell id="xzkDWGTS2WMrX_wTlUHZ-99" style="edgeStyle=orthogonalEdgeStyle;rounded=0;orthogonalLoop=1;jettySize=auto;html=1;exitX=0.5;exitY=1;exitDx=0;exitDy=0;entryX=0.5;entryY=0;entryDx=0;entryDy=0;fillColor=#ffe6cc;strokeColor=#d79b00;dashed=1;" edge="1" source="xzkDWGTS2WMrX_wTlUHZ-89" target="xzkDWGTS2WMrX_wTlUHZ-102" parent="1">
          <mxGeometry relative="1" as="geometry">
            <mxPoint x="364" y="340" as="sourcePoint" />
          </mxGeometry>
        </mxCell>
        <mxCell id="xzkDWGTS2WMrX_wTlUHZ-100" style="edgeStyle=orthogonalEdgeStyle;rounded=0;orthogonalLoop=1;jettySize=auto;html=1;exitX=0.5;exitY=1;exitDx=0;exitDy=0;entryX=0.5;entryY=0;entryDx=0;entryDy=0;fillColor=#d5e8d4;strokeColor=#82b366;dashed=1;" edge="1" source="xzkDWGTS2WMrX_wTlUHZ-89" target="xzkDWGTS2WMrX_wTlUHZ-103" parent="1">
          <mxGeometry relative="1" as="geometry">
            <mxPoint x="364" y="340" as="sourcePoint" />
          </mxGeometry>
        </mxCell>
        <mxCell id="xzkDWGTS2WMrX_wTlUHZ-101" value="" style="ellipse;whiteSpace=wrap;html=1;aspect=fixed;dashed=1;" vertex="1" parent="1">
          <mxGeometry x="280" y="320" width="40" height="40" as="geometry" />
        </mxCell>
        <mxCell id="xzkDWGTS2WMrX_wTlUHZ-102" value="" style="ellipse;whiteSpace=wrap;html=1;aspect=fixed;dashed=1;" vertex="1" parent="1">
          <mxGeometry x="360" y="320" width="40" height="40" as="geometry" />
        </mxCell>
        <mxCell id="xzkDWGTS2WMrX_wTlUHZ-103" value="" style="ellipse;whiteSpace=wrap;html=1;aspect=fixed;dashed=1;" vertex="1" parent="1">
          <mxGeometry x="200" y="320" width="40" height="40" as="geometry" />
        </mxCell>
        <mxCell id="xzkDWGTS2WMrX_wTlUHZ-104" style="edgeStyle=orthogonalEdgeStyle;rounded=0;orthogonalLoop=1;jettySize=auto;html=1;exitX=0.5;exitY=1;exitDx=0;exitDy=0;fillColor=#dae8fc;strokeColor=#6c8ebf;dashed=1;" edge="1" source="xzkDWGTS2WMrX_wTlUHZ-94" target="xzkDWGTS2WMrX_wTlUHZ-107" parent="1">
          <mxGeometry relative="1" as="geometry">
            <mxPoint x="404" y="210" as="sourcePoint" />
          </mxGeometry>
        </mxCell>
        <mxCell id="xzkDWGTS2WMrX_wTlUHZ-105" style="edgeStyle=orthogonalEdgeStyle;rounded=0;orthogonalLoop=1;jettySize=auto;html=1;exitX=0.5;exitY=1;exitDx=0;exitDy=0;entryX=0.5;entryY=0;entryDx=0;entryDy=0;fillColor=#ffe6cc;strokeColor=#d79b00;dashed=1;" edge="1" source="xzkDWGTS2WMrX_wTlUHZ-94" target="xzkDWGTS2WMrX_wTlUHZ-108" parent="1">
          <mxGeometry relative="1" as="geometry">
            <mxPoint x="404" y="210" as="sourcePoint" />
          </mxGeometry>
        </mxCell>
        <mxCell id="xzkDWGTS2WMrX_wTlUHZ-106" style="edgeStyle=orthogonalEdgeStyle;rounded=0;orthogonalLoop=1;jettySize=auto;html=1;exitX=0.5;exitY=1;exitDx=0;exitDy=0;entryX=0.5;entryY=0;entryDx=0;entryDy=0;fillColor=#d5e8d4;strokeColor=#82b366;dashed=1;" edge="1" source="xzkDWGTS2WMrX_wTlUHZ-94" target="xzkDWGTS2WMrX_wTlUHZ-109" parent="1">
          <mxGeometry relative="1" as="geometry">
            <mxPoint x="404" y="210" as="sourcePoint" />
          </mxGeometry>
        </mxCell>
        <mxCell id="xzkDWGTS2WMrX_wTlUHZ-107" value="" style="ellipse;whiteSpace=wrap;html=1;aspect=fixed;dashed=1;" vertex="1" parent="1">
          <mxGeometry x="760" y="320" width="40" height="40" as="geometry" />
        </mxCell>
        <mxCell id="xzkDWGTS2WMrX_wTlUHZ-108" value="" style="ellipse;whiteSpace=wrap;html=1;aspect=fixed;dashed=1;" vertex="1" parent="1">
          <mxGeometry x="840" y="320" width="40" height="40" as="geometry" />
        </mxCell>
        <mxCell id="xzkDWGTS2WMrX_wTlUHZ-109" value="" style="ellipse;whiteSpace=wrap;html=1;aspect=fixed;dashed=1;" vertex="1" parent="1">
          <mxGeometry x="680" y="320" width="40" height="40" as="geometry" />
        </mxCell>
        <mxCell id="HbXhrm8WWtCbfaT1E6nk-1" value="" style="shape=sumEllipse;perimeter=ellipsePerimeter;whiteSpace=wrap;html=1;backgroundOutline=1;fontFamily=Helvetica;fontSize=12;fontColor=default;align=center;strokeColor=default;fillColor=default;" vertex="1" parent="1">
          <mxGeometry x="180" y="400" width="40" height="40" as="geometry" />
        </mxCell>
        <mxCell id="HbXhrm8WWtCbfaT1E6nk-2" value="" style="shape=sumEllipse;perimeter=ellipsePerimeter;whiteSpace=wrap;html=1;backgroundOutline=1;fontFamily=Helvetica;fontSize=12;fontColor=default;align=center;strokeColor=default;fillColor=default;" vertex="1" parent="1">
          <mxGeometry x="260" y="400" width="40" height="40" as="geometry" />
        </mxCell>
        <mxCell id="HbXhrm8WWtCbfaT1E6nk-3" value="" style="shape=sumEllipse;perimeter=ellipsePerimeter;whiteSpace=wrap;html=1;backgroundOutline=1;fontFamily=Helvetica;fontSize=12;fontColor=default;align=center;strokeColor=default;fillColor=default;" vertex="1" parent="1">
          <mxGeometry x="340" y="400" width="40" height="40" as="geometry" />
        </mxCell>
        <mxCell id="HbXhrm8WWtCbfaT1E6nk-4" value="" style="shape=sumEllipse;perimeter=ellipsePerimeter;whiteSpace=wrap;html=1;backgroundOutline=1;fontFamily=Helvetica;fontSize=12;fontColor=default;align=center;strokeColor=default;fillColor=default;" vertex="1" parent="1">
          <mxGeometry x="420" y="400" width="40" height="40" as="geometry" />
        </mxCell>
        <mxCell id="HbXhrm8WWtCbfaT1E6nk-5" value="" style="shape=sumEllipse;perimeter=ellipsePerimeter;whiteSpace=wrap;html=1;backgroundOutline=1;fontFamily=Helvetica;fontSize=12;fontColor=default;align=center;strokeColor=default;fillColor=default;" vertex="1" parent="1">
          <mxGeometry x="500" y="400" width="40" height="40" as="geometry" />
        </mxCell>
        <mxCell id="HbXhrm8WWtCbfaT1E6nk-6" value="" style="shape=sumEllipse;perimeter=ellipsePerimeter;whiteSpace=wrap;html=1;backgroundOutline=1;fontFamily=Helvetica;fontSize=12;fontColor=default;align=center;strokeColor=default;fillColor=default;" vertex="1" parent="1">
          <mxGeometry x="580" y="400" width="40" height="40" as="geometry" />
        </mxCell>
      </root>
    </mxGraphModel>
  </diagram>
  <diagram id="VBqqBvdLcYzYVQBigFqJ" name="后向路径">
    <mxGraphModel dx="1967" dy="1114" grid="1" gridSize="10" guides="1" tooltips="1" connect="1" arrows="1" fold="1" page="1" pageScale="1" pageWidth="827" pageHeight="1169" math="0" shadow="0">
      <root>
        <mxCell id="0" />
        <mxCell id="1" parent="0" />
        <mxCell id="0FibKu6OWNroHM9tBGzL-1" style="edgeStyle=orthogonalEdgeStyle;rounded=0;orthogonalLoop=1;jettySize=auto;html=1;exitX=0.5;exitY=1;exitDx=0;exitDy=0;entryX=0.5;entryY=0;entryDx=0;entryDy=0;noEdgeStyle=1;orthogonal=1;" parent="1" source="0FibKu6OWNroHM9tBGzL-3" target="0FibKu6OWNroHM9tBGzL-10" edge="1">
          <mxGeometry relative="1" as="geometry">
            <Array as="points">
              <mxPoint x="27.5" y="52" />
              <mxPoint x="141.0546875" y="128" />
            </Array>
          </mxGeometry>
        </mxCell>
        <mxCell id="0FibKu6OWNroHM9tBGzL-2" style="edgeStyle=orthogonalEdgeStyle;rounded=0;orthogonalLoop=1;jettySize=auto;html=1;exitX=0.5;exitY=1;exitDx=0;exitDy=0;entryX=0.5;entryY=0;entryDx=0;entryDy=0;noEdgeStyle=1;orthogonal=1;" parent="1" source="0FibKu6OWNroHM9tBGzL-3" target="0FibKu6OWNroHM9tBGzL-12" edge="1">
          <mxGeometry relative="1" as="geometry">
            <Array as="points">
              <mxPoint x="12.5" y="52" />
              <mxPoint x="101.0546875" y="90" />
              <mxPoint x="101.0546875" y="230" />
              <mxPoint x="170.791015625" y="268" />
            </Array>
          </mxGeometry>
        </mxCell>
        <mxCell id="0FibKu6OWNroHM9tBGzL-3" value="" style="shape=sumEllipse;perimeter=ellipsePerimeter;whiteSpace=wrap;html=1;backgroundOutline=1;" parent="1" vertex="1">
          <mxGeometry width="40" height="40" as="geometry" />
        </mxCell>
        <mxCell id="0FibKu6OWNroHM9tBGzL-4" style="edgeStyle=orthogonalEdgeStyle;rounded=0;orthogonalLoop=1;jettySize=auto;html=1;exitX=0.5;exitY=1;exitDx=0;exitDy=0;entryX=0.5;entryY=0;entryDx=0;entryDy=0;noEdgeStyle=1;orthogonal=1;" parent="1" source="0FibKu6OWNroHM9tBGzL-5" target="0FibKu6OWNroHM9tBGzL-10" edge="1">
          <mxGeometry relative="1" as="geometry">
            <Array as="points">
              <mxPoint x="90" y="52" />
              <mxPoint x="151.0546875" y="126" />
            </Array>
          </mxGeometry>
        </mxCell>
        <mxCell id="0FibKu6OWNroHM9tBGzL-5" value="" style="shape=sumEllipse;perimeter=ellipsePerimeter;whiteSpace=wrap;html=1;backgroundOutline=1;" parent="1" vertex="1">
          <mxGeometry x="70" width="40" height="40" as="geometry" />
        </mxCell>
        <mxCell id="0FibKu6OWNroHM9tBGzL-6" style="edgeStyle=orthogonalEdgeStyle;rounded=0;orthogonalLoop=1;jettySize=auto;html=1;exitX=0.5;exitY=1;exitDx=0;exitDy=0;entryX=0.5;entryY=0;entryDx=0;entryDy=0;noEdgeStyle=1;orthogonal=1;" parent="1" source="0FibKu6OWNroHM9tBGzL-8" target="0FibKu6OWNroHM9tBGzL-10" edge="1">
          <mxGeometry relative="1" as="geometry">
            <Array as="points">
              <mxPoint x="152.5" y="52" />
              <mxPoint x="161.0546875" y="128" />
            </Array>
          </mxGeometry>
        </mxCell>
        <mxCell id="0FibKu6OWNroHM9tBGzL-7" style="edgeStyle=orthogonalEdgeStyle;rounded=0;orthogonalLoop=1;jettySize=auto;html=1;exitX=0.5;exitY=1;exitDx=0;exitDy=0;entryX=0.5;entryY=0;entryDx=0;entryDy=0;noEdgeStyle=1;orthogonal=1;" parent="1" source="0FibKu6OWNroHM9tBGzL-8" target="0FibKu6OWNroHM9tBGzL-12" edge="1">
          <mxGeometry relative="1" as="geometry">
            <Array as="points">
              <mxPoint x="167.5" y="52" />
              <mxPoint x="201.0546875" y="90" />
              <mxPoint x="201.0546875" y="230" />
              <mxPoint x="190.791015625" y="268" />
            </Array>
          </mxGeometry>
        </mxCell>
        <mxCell id="0FibKu6OWNroHM9tBGzL-8" value="" style="shape=sumEllipse;perimeter=ellipsePerimeter;whiteSpace=wrap;html=1;backgroundOutline=1;" parent="1" vertex="1">
          <mxGeometry x="140" width="40" height="40" as="geometry" />
        </mxCell>
        <mxCell id="0FibKu6OWNroHM9tBGzL-9" style="edgeStyle=orthogonalEdgeStyle;rounded=0;orthogonalLoop=1;jettySize=auto;html=1;exitX=0.5;exitY=1;exitDx=0;exitDy=0;entryX=0.5;entryY=0;entryDx=0;entryDy=0;noEdgeStyle=1;orthogonal=1;" parent="1" source="0FibKu6OWNroHM9tBGzL-10" target="0FibKu6OWNroHM9tBGzL-12" edge="1">
          <mxGeometry relative="1" as="geometry">
            <Array as="points">
              <mxPoint x="151.0546875" y="192" />
              <mxPoint x="180.791015625" y="266" />
            </Array>
          </mxGeometry>
        </mxCell>
        <mxCell id="0FibKu6OWNroHM9tBGzL-10" value="" style="shape=lineEllipse;perimeter=ellipsePerimeter;whiteSpace=wrap;html=1;backgroundOutline=1;" parent="1" vertex="1">
          <mxGeometry x="131.0546875" y="140" width="40" height="40" as="geometry" />
        </mxCell>
        <mxCell id="0FibKu6OWNroHM9tBGzL-11" style="edgeStyle=orthogonalEdgeStyle;rounded=0;orthogonalLoop=1;jettySize=auto;html=1;exitX=0.5;exitY=1;exitDx=0;exitDy=0;entryX=0.5;entryY=0;entryDx=0;entryDy=0;noEdgeStyle=1;orthogonal=1;" parent="1" source="0FibKu6OWNroHM9tBGzL-12" target="0FibKu6OWNroHM9tBGzL-40" edge="1">
          <mxGeometry relative="1" as="geometry">
            <Array as="points">
              <mxPoint x="180.791015625" y="332" />
              <mxPoint x="260" y="408" />
            </Array>
          </mxGeometry>
        </mxCell>
        <mxCell id="0FibKu6OWNroHM9tBGzL-12" value="shift&lt;br&gt;Add" style="ellipse;whiteSpace=wrap;html=1;aspect=fixed;" parent="1" vertex="1">
          <mxGeometry x="160.791015625" y="280" width="40" height="40" as="geometry" />
        </mxCell>
        <mxCell id="0FibKu6OWNroHM9tBGzL-13" style="edgeStyle=orthogonalEdgeStyle;rounded=0;orthogonalLoop=1;jettySize=auto;html=1;exitX=0.5;exitY=1;exitDx=0;exitDy=0;entryX=0.5;entryY=0;entryDx=0;entryDy=0;noEdgeStyle=1;orthogonal=1;" parent="1" source="0FibKu6OWNroHM9tBGzL-15" target="0FibKu6OWNroHM9tBGzL-22" edge="1">
          <mxGeometry relative="1" as="geometry">
            <Array as="points">
              <mxPoint x="237.5" y="52" />
              <mxPoint x="290" y="128" />
            </Array>
          </mxGeometry>
        </mxCell>
        <mxCell id="0FibKu6OWNroHM9tBGzL-14" style="edgeStyle=orthogonalEdgeStyle;rounded=0;orthogonalLoop=1;jettySize=auto;html=1;exitX=0.5;exitY=1;exitDx=0;exitDy=0;entryX=0.5;entryY=0;entryDx=0;entryDy=0;noEdgeStyle=1;orthogonal=1;" parent="1" source="0FibKu6OWNroHM9tBGzL-15" target="0FibKu6OWNroHM9tBGzL-25" edge="1">
          <mxGeometry relative="1" as="geometry">
            <Array as="points">
              <mxPoint x="222.5" y="52" />
              <mxPoint x="250" y="90" />
              <mxPoint x="250" y="230" />
              <mxPoint x="288" y="268" />
            </Array>
          </mxGeometry>
        </mxCell>
        <mxCell id="0FibKu6OWNroHM9tBGzL-15" value="" style="shape=sumEllipse;perimeter=ellipsePerimeter;whiteSpace=wrap;html=1;backgroundOutline=1;" parent="1" vertex="1">
          <mxGeometry x="210" width="40" height="40" as="geometry" />
        </mxCell>
        <mxCell id="0FibKu6OWNroHM9tBGzL-16" style="edgeStyle=orthogonalEdgeStyle;rounded=0;orthogonalLoop=1;jettySize=auto;html=1;exitX=0.5;exitY=1;exitDx=0;exitDy=0;entryX=0.5;entryY=0;entryDx=0;entryDy=0;noEdgeStyle=1;orthogonal=1;" parent="1" source="0FibKu6OWNroHM9tBGzL-17" target="0FibKu6OWNroHM9tBGzL-22" edge="1">
          <mxGeometry relative="1" as="geometry">
            <Array as="points">
              <mxPoint x="300" y="52" />
              <mxPoint x="300" y="126" />
            </Array>
          </mxGeometry>
        </mxCell>
        <mxCell id="0FibKu6OWNroHM9tBGzL-17" value="" style="shape=sumEllipse;perimeter=ellipsePerimeter;whiteSpace=wrap;html=1;backgroundOutline=1;" parent="1" vertex="1">
          <mxGeometry x="280" width="40" height="40" as="geometry" />
        </mxCell>
        <mxCell id="0FibKu6OWNroHM9tBGzL-18" style="edgeStyle=orthogonalEdgeStyle;rounded=0;orthogonalLoop=1;jettySize=auto;html=1;exitX=0.5;exitY=1;exitDx=0;exitDy=0;entryX=0.5;entryY=0;entryDx=0;entryDy=0;noEdgeStyle=1;orthogonal=1;" parent="1" source="0FibKu6OWNroHM9tBGzL-20" target="0FibKu6OWNroHM9tBGzL-22" edge="1">
          <mxGeometry relative="1" as="geometry">
            <Array as="points">
              <mxPoint x="362.5" y="52" />
              <mxPoint x="310" y="128" />
            </Array>
          </mxGeometry>
        </mxCell>
        <mxCell id="0FibKu6OWNroHM9tBGzL-19" style="edgeStyle=orthogonalEdgeStyle;rounded=0;orthogonalLoop=1;jettySize=auto;html=1;exitX=0.5;exitY=1;exitDx=0;exitDy=0;entryX=0.5;entryY=0;entryDx=0;entryDy=0;noEdgeStyle=1;orthogonal=1;" parent="1" source="0FibKu6OWNroHM9tBGzL-20" target="0FibKu6OWNroHM9tBGzL-25" edge="1">
          <mxGeometry relative="1" as="geometry">
            <Array as="points">
              <mxPoint x="377.5" y="52" />
              <mxPoint x="350" y="90" />
              <mxPoint x="350" y="230" />
              <mxPoint x="308" y="268" />
            </Array>
          </mxGeometry>
        </mxCell>
        <mxCell id="0FibKu6OWNroHM9tBGzL-20" value="" style="shape=sumEllipse;perimeter=ellipsePerimeter;whiteSpace=wrap;html=1;backgroundOutline=1;" parent="1" vertex="1">
          <mxGeometry x="350" width="40" height="40" as="geometry" />
        </mxCell>
        <mxCell id="0FibKu6OWNroHM9tBGzL-21" style="edgeStyle=orthogonalEdgeStyle;rounded=0;orthogonalLoop=1;jettySize=auto;html=1;exitX=0.5;exitY=1;exitDx=0;exitDy=0;entryX=0.5;entryY=0;entryDx=0;entryDy=0;noEdgeStyle=1;orthogonal=1;" parent="1" source="0FibKu6OWNroHM9tBGzL-22" target="0FibKu6OWNroHM9tBGzL-25" edge="1">
          <mxGeometry relative="1" as="geometry">
            <Array as="points">
              <mxPoint x="300" y="192" />
              <mxPoint x="298" y="266" />
            </Array>
          </mxGeometry>
        </mxCell>
        <mxCell id="0FibKu6OWNroHM9tBGzL-22" value="" style="shape=lineEllipse;perimeter=ellipsePerimeter;whiteSpace=wrap;html=1;backgroundOutline=1;" parent="1" vertex="1">
          <mxGeometry x="280" y="140" width="40" height="40" as="geometry" />
        </mxCell>
        <mxCell id="0FibKu6OWNroHM9tBGzL-23" style="edgeStyle=orthogonalEdgeStyle;rounded=0;orthogonalLoop=1;jettySize=auto;html=1;exitX=0.5;exitY=1;exitDx=0;exitDy=0;entryX=0.5;entryY=0;entryDx=0;entryDy=0;noEdgeStyle=1;orthogonal=1;" parent="1" source="0FibKu6OWNroHM9tBGzL-25" target="0FibKu6OWNroHM9tBGzL-40" edge="1">
          <mxGeometry relative="1" as="geometry">
            <Array as="points">
              <mxPoint x="290.5" y="332" />
              <mxPoint x="270" y="406" />
            </Array>
          </mxGeometry>
        </mxCell>
        <mxCell id="0FibKu6OWNroHM9tBGzL-24" style="edgeStyle=orthogonalEdgeStyle;rounded=0;orthogonalLoop=1;jettySize=auto;html=1;exitX=0.5;exitY=1;exitDx=0;exitDy=0;entryX=0.5;entryY=0;entryDx=0;entryDy=0;noEdgeStyle=1;orthogonal=1;" parent="1" source="0FibKu6OWNroHM9tBGzL-25" target="0FibKu6OWNroHM9tBGzL-41" edge="1">
          <mxGeometry relative="1" as="geometry">
            <Array as="points">
              <mxPoint x="305.5" y="332" />
              <mxPoint x="320" y="370" />
              <mxPoint x="320" y="510" />
              <mxPoint x="320" y="546" />
            </Array>
          </mxGeometry>
        </mxCell>
        <mxCell id="0FibKu6OWNroHM9tBGzL-25" value="shift&lt;br&gt;Add" style="ellipse;whiteSpace=wrap;html=1;aspect=fixed;" parent="1" vertex="1">
          <mxGeometry x="278" y="280" width="40" height="40" as="geometry" />
        </mxCell>
        <mxCell id="0FibKu6OWNroHM9tBGzL-26" style="edgeStyle=orthogonalEdgeStyle;rounded=0;orthogonalLoop=1;jettySize=auto;html=1;exitX=0.5;exitY=1;exitDx=0;exitDy=0;entryX=0.5;entryY=0;entryDx=0;entryDy=0;noEdgeStyle=1;orthogonal=1;" parent="1" source="0FibKu6OWNroHM9tBGzL-28" target="0FibKu6OWNroHM9tBGzL-35" edge="1">
          <mxGeometry relative="1" as="geometry">
            <Array as="points">
              <mxPoint x="447.5" y="52" />
              <mxPoint x="420" y="128" />
            </Array>
          </mxGeometry>
        </mxCell>
        <mxCell id="0FibKu6OWNroHM9tBGzL-27" style="edgeStyle=orthogonalEdgeStyle;rounded=0;orthogonalLoop=1;jettySize=auto;html=1;exitX=0.5;exitY=1;exitDx=0;exitDy=0;entryX=0.5;entryY=0;entryDx=0;entryDy=0;noEdgeStyle=1;orthogonal=1;" parent="1" source="0FibKu6OWNroHM9tBGzL-28" target="0FibKu6OWNroHM9tBGzL-38" edge="1">
          <mxGeometry relative="1" as="geometry">
            <Array as="points">
              <mxPoint x="432.5" y="52" />
              <mxPoint x="380" y="90" />
              <mxPoint x="380" y="230" />
              <mxPoint x="372" y="268" />
            </Array>
          </mxGeometry>
        </mxCell>
        <mxCell id="0FibKu6OWNroHM9tBGzL-28" value="" style="shape=sumEllipse;perimeter=ellipsePerimeter;whiteSpace=wrap;html=1;backgroundOutline=1;" parent="1" vertex="1">
          <mxGeometry x="420" width="40" height="40" as="geometry" />
        </mxCell>
        <mxCell id="0FibKu6OWNroHM9tBGzL-29" style="edgeStyle=orthogonalEdgeStyle;rounded=0;orthogonalLoop=1;jettySize=auto;html=1;exitX=0.5;exitY=1;exitDx=0;exitDy=0;entryX=0.5;entryY=0;entryDx=0;entryDy=0;noEdgeStyle=1;orthogonal=1;" parent="1" source="0FibKu6OWNroHM9tBGzL-30" target="0FibKu6OWNroHM9tBGzL-35" edge="1">
          <mxGeometry relative="1" as="geometry">
            <Array as="points">
              <mxPoint x="510" y="52" />
              <mxPoint x="430" y="126" />
            </Array>
          </mxGeometry>
        </mxCell>
        <mxCell id="0FibKu6OWNroHM9tBGzL-30" value="" style="shape=sumEllipse;perimeter=ellipsePerimeter;whiteSpace=wrap;html=1;backgroundOutline=1;" parent="1" vertex="1">
          <mxGeometry x="490" width="40" height="40" as="geometry" />
        </mxCell>
        <mxCell id="0FibKu6OWNroHM9tBGzL-31" style="edgeStyle=orthogonalEdgeStyle;rounded=0;orthogonalLoop=1;jettySize=auto;html=1;exitX=0.5;exitY=1;exitDx=0;exitDy=0;entryX=0.5;entryY=0;entryDx=0;entryDy=0;noEdgeStyle=1;orthogonal=1;" parent="1" source="0FibKu6OWNroHM9tBGzL-33" target="0FibKu6OWNroHM9tBGzL-35" edge="1">
          <mxGeometry relative="1" as="geometry">
            <Array as="points">
              <mxPoint x="572.5" y="52" />
              <mxPoint x="440" y="128" />
            </Array>
          </mxGeometry>
        </mxCell>
        <mxCell id="0FibKu6OWNroHM9tBGzL-32" style="edgeStyle=orthogonalEdgeStyle;rounded=0;orthogonalLoop=1;jettySize=auto;html=1;exitX=0.5;exitY=1;exitDx=0;exitDy=0;entryX=0.5;entryY=0;entryDx=0;entryDy=0;noEdgeStyle=1;orthogonal=1;" parent="1" source="0FibKu6OWNroHM9tBGzL-33" target="0FibKu6OWNroHM9tBGzL-38" edge="1">
          <mxGeometry relative="1" as="geometry">
            <Array as="points">
              <mxPoint x="587.5" y="52" />
              <mxPoint x="480" y="90" />
              <mxPoint x="480" y="230" />
              <mxPoint x="392" y="268" />
            </Array>
          </mxGeometry>
        </mxCell>
        <mxCell id="0FibKu6OWNroHM9tBGzL-33" value="" style="shape=sumEllipse;perimeter=ellipsePerimeter;whiteSpace=wrap;html=1;backgroundOutline=1;" parent="1" vertex="1">
          <mxGeometry x="560" width="40" height="40" as="geometry" />
        </mxCell>
        <mxCell id="0FibKu6OWNroHM9tBGzL-34" style="edgeStyle=orthogonalEdgeStyle;rounded=0;orthogonalLoop=1;jettySize=auto;html=1;exitX=0.5;exitY=1;exitDx=0;exitDy=0;entryX=0.5;entryY=0;entryDx=0;entryDy=0;noEdgeStyle=1;orthogonal=1;" parent="1" source="0FibKu6OWNroHM9tBGzL-35" target="0FibKu6OWNroHM9tBGzL-38" edge="1">
          <mxGeometry relative="1" as="geometry">
            <Array as="points">
              <mxPoint x="430" y="192" />
              <mxPoint x="382" y="266" />
            </Array>
          </mxGeometry>
        </mxCell>
        <mxCell id="0FibKu6OWNroHM9tBGzL-35" value="" style="shape=lineEllipse;perimeter=ellipsePerimeter;whiteSpace=wrap;html=1;backgroundOutline=1;" parent="1" vertex="1">
          <mxGeometry x="410" y="140" width="40" height="40" as="geometry" />
        </mxCell>
        <mxCell id="0FibKu6OWNroHM9tBGzL-36" style="edgeStyle=orthogonalEdgeStyle;rounded=0;orthogonalLoop=1;jettySize=auto;html=1;exitX=0.5;exitY=1;exitDx=0;exitDy=0;entryX=0.5;entryY=0;entryDx=0;entryDy=0;noEdgeStyle=1;orthogonal=1;" parent="1" source="0FibKu6OWNroHM9tBGzL-38" target="0FibKu6OWNroHM9tBGzL-40" edge="1">
          <mxGeometry relative="1" as="geometry">
            <Array as="points">
              <mxPoint x="374.5" y="332" />
              <mxPoint x="280" y="408" />
            </Array>
          </mxGeometry>
        </mxCell>
        <mxCell id="0FibKu6OWNroHM9tBGzL-37" style="edgeStyle=orthogonalEdgeStyle;rounded=0;orthogonalLoop=1;jettySize=auto;html=1;exitX=0.5;exitY=1;exitDx=0;exitDy=0;entryX=0.5;entryY=0;entryDx=0;entryDy=0;noEdgeStyle=1;orthogonal=1;" parent="1" source="0FibKu6OWNroHM9tBGzL-38" target="0FibKu6OWNroHM9tBGzL-41" edge="1">
          <mxGeometry relative="1" as="geometry">
            <Array as="points">
              <mxPoint x="389.5" y="332" />
              <mxPoint x="350" y="370" />
              <mxPoint x="350" y="510" />
              <mxPoint x="330" y="548" />
            </Array>
          </mxGeometry>
        </mxCell>
        <mxCell id="0FibKu6OWNroHM9tBGzL-38" value="shift&lt;br&gt;Add" style="ellipse;whiteSpace=wrap;html=1;aspect=fixed;" parent="1" vertex="1">
          <mxGeometry x="362" y="280" width="40" height="40" as="geometry" />
        </mxCell>
        <mxCell id="0FibKu6OWNroHM9tBGzL-39" style="edgeStyle=orthogonalEdgeStyle;rounded=0;orthogonalLoop=1;jettySize=auto;html=1;exitX=0.5;exitY=1;exitDx=0;exitDy=0;entryX=0.5;entryY=0;entryDx=0;entryDy=0;noEdgeStyle=1;orthogonal=1;" parent="1" source="0FibKu6OWNroHM9tBGzL-40" target="0FibKu6OWNroHM9tBGzL-41" edge="1">
          <mxGeometry relative="1" as="geometry">
            <Array as="points">
              <mxPoint x="270" y="472" />
              <mxPoint x="310" y="548" />
            </Array>
          </mxGeometry>
        </mxCell>
        <mxCell id="0FibKu6OWNroHM9tBGzL-40" value="" style="shape=lineEllipse;perimeter=ellipsePerimeter;whiteSpace=wrap;html=1;backgroundOutline=1;" parent="1" vertex="1">
          <mxGeometry x="250" y="420" width="40" height="40" as="geometry" />
        </mxCell>
        <mxCell id="0FibKu6OWNroHM9tBGzL-44" style="edgeStyle=orthogonalEdgeStyle;rounded=0;orthogonalLoop=1;jettySize=auto;html=1;exitX=0.5;exitY=1;exitDx=0;exitDy=0;entryX=0.5;entryY=0;entryDx=0;entryDy=0;" parent="1" source="0FibKu6OWNroHM9tBGzL-41" target="0FibKu6OWNroHM9tBGzL-43" edge="1">
          <mxGeometry relative="1" as="geometry" />
        </mxCell>
        <mxCell id="0FibKu6OWNroHM9tBGzL-41" value="shift&lt;br&gt;Add" style="ellipse;whiteSpace=wrap;html=1;aspect=fixed;" parent="1" vertex="1">
          <mxGeometry x="300" y="560" width="40" height="40" as="geometry" />
        </mxCell>
        <mxCell id="0FibKu6OWNroHM9tBGzL-43" value="out" style="ellipse;whiteSpace=wrap;html=1;aspect=fixed;" parent="1" vertex="1">
          <mxGeometry x="300" y="640" width="40" height="40" as="geometry" />
        </mxCell>
      </root>
    </mxGraphModel>
  </diagram>
  <diagram id="kXFMh48BxVuN1zVuhuqG" name="前向路径">
    <mxGraphModel dx="1357" dy="768" grid="1" gridSize="10" guides="1" tooltips="1" connect="1" arrows="1" fold="1" page="1" pageScale="1" pageWidth="827" pageHeight="1169" math="0" shadow="0">
      <root>
        <mxCell id="0" />
        <mxCell id="1" parent="0" />
        <mxCell id="fbjRNBVHuCys1352WGUO-92" style="edgeStyle=orthogonalEdgeStyle;rounded=0;orthogonalLoop=1;jettySize=auto;html=1;exitX=0.5;exitY=1;exitDx=0;exitDy=0;entryX=0.5;entryY=0;entryDx=0;entryDy=0;noEdgeStyle=1;orthogonal=1;" edge="1" parent="1" source="fbjRNBVHuCys1352WGUO-87" target="fbjRNBVHuCys1352WGUO-88">
          <mxGeometry relative="1" as="geometry">
            <Array as="points">
              <mxPoint x="360" y="52" />
              <mxPoint x="195" y="128" />
            </Array>
          </mxGeometry>
        </mxCell>
        <mxCell id="fbjRNBVHuCys1352WGUO-107" style="edgeStyle=orthogonalEdgeStyle;rounded=0;orthogonalLoop=1;jettySize=auto;html=1;exitX=0.5;exitY=1;exitDx=0;exitDy=0;entryX=0.5;entryY=0;entryDx=0;entryDy=0;noEdgeStyle=1;orthogonal=1;" edge="1" parent="1" source="fbjRNBVHuCys1352WGUO-87" target="fbjRNBVHuCys1352WGUO-103">
          <mxGeometry relative="1" as="geometry">
            <Array as="points">
              <mxPoint x="370" y="54" />
              <mxPoint x="370" y="128" />
            </Array>
          </mxGeometry>
        </mxCell>
        <mxCell id="fbjRNBVHuCys1352WGUO-120" style="edgeStyle=orthogonalEdgeStyle;rounded=0;orthogonalLoop=1;jettySize=auto;html=1;exitX=0.5;exitY=1;exitDx=0;exitDy=0;entryX=0.5;entryY=0;entryDx=0;entryDy=0;noEdgeStyle=1;orthogonal=1;" edge="1" parent="1" source="fbjRNBVHuCys1352WGUO-87" target="fbjRNBVHuCys1352WGUO-117">
          <mxGeometry relative="1" as="geometry">
            <Array as="points">
              <mxPoint x="380" y="52" />
              <mxPoint x="580" y="128" />
            </Array>
          </mxGeometry>
        </mxCell>
        <mxCell id="fbjRNBVHuCys1352WGUO-87" value="A" style="ellipse;whiteSpace=wrap;html=1;aspect=fixed;" vertex="1" parent="1">
          <mxGeometry x="350" width="40" height="40" as="geometry" />
        </mxCell>
        <mxCell id="fbjRNBVHuCys1352WGUO-132" style="edgeStyle=orthogonalEdgeStyle;rounded=0;orthogonalLoop=1;jettySize=auto;html=1;exitX=0.5;exitY=1;exitDx=0;exitDy=0;entryX=0.5;entryY=0;entryDx=0;entryDy=0;noEdgeStyle=1;orthogonal=1;" edge="1" parent="1" source="fbjRNBVHuCys1352WGUO-88" target="fbjRNBVHuCys1352WGUO-111">
          <mxGeometry relative="1" as="geometry">
            <Array as="points">
              <mxPoint x="195" y="192" />
              <mxPoint x="20" y="268" />
            </Array>
          </mxGeometry>
        </mxCell>
        <mxCell id="fbjRNBVHuCys1352WGUO-88" value="" style="shape=orEllipse;perimeter=ellipsePerimeter;whiteSpace=wrap;html=1;backgroundOutline=1;" vertex="1" parent="1">
          <mxGeometry x="175" y="140" width="40" height="40" as="geometry" />
        </mxCell>
        <mxCell id="fbjRNBVHuCys1352WGUO-100" style="edgeStyle=orthogonalEdgeStyle;rounded=0;orthogonalLoop=1;jettySize=auto;html=1;exitX=0.5;exitY=1;exitDx=0;exitDy=0;entryX=0.5;entryY=0;entryDx=0;entryDy=0;noEdgeStyle=1;orthogonal=1;" edge="1" source="fbjRNBVHuCys1352WGUO-103" target="fbjRNBVHuCys1352WGUO-105" parent="1">
          <mxGeometry relative="1" as="geometry">
            <Array as="points">
              <mxPoint x="380" y="192" />
              <mxPoint x="370" y="268" />
            </Array>
          </mxGeometry>
        </mxCell>
        <mxCell id="fbjRNBVHuCys1352WGUO-101" style="edgeStyle=orthogonalEdgeStyle;rounded=0;orthogonalLoop=1;jettySize=auto;html=1;exitX=0.5;exitY=1;exitDx=0;exitDy=0;entryX=0.5;entryY=0;entryDx=0;entryDy=0;noEdgeStyle=1;orthogonal=1;" edge="1" source="fbjRNBVHuCys1352WGUO-103" parent="1" target="fbjRNBVHuCys1352WGUO-121">
          <mxGeometry relative="1" as="geometry">
            <mxPoint x="169.97000000000023" y="980" as="targetPoint" />
            <Array as="points">
              <mxPoint x="360" y="192" />
              <mxPoint x="160" y="268" />
            </Array>
          </mxGeometry>
        </mxCell>
        <mxCell id="fbjRNBVHuCys1352WGUO-102" style="edgeStyle=orthogonalEdgeStyle;rounded=0;orthogonalLoop=1;jettySize=auto;html=1;exitX=0.5;exitY=1;exitDx=0;exitDy=0;entryX=0.5;entryY=0;entryDx=0;entryDy=0;noEdgeStyle=1;orthogonal=1;" edge="1" source="fbjRNBVHuCys1352WGUO-103" parent="1" target="fbjRNBVHuCys1352WGUO-123">
          <mxGeometry relative="1" as="geometry">
            <mxPoint x="459.97000000000025" y="980" as="targetPoint" />
            <Array as="points">
              <mxPoint x="370" y="194" />
              <mxPoint x="230" y="268" />
            </Array>
          </mxGeometry>
        </mxCell>
        <mxCell id="fbjRNBVHuCys1352WGUO-103" value="" style="ellipse;whiteSpace=wrap;html=1;aspect=fixed;" vertex="1" parent="1">
          <mxGeometry x="350" y="140" width="40" height="40" as="geometry" />
        </mxCell>
        <mxCell id="fbjRNBVHuCys1352WGUO-104" style="edgeStyle=orthogonalEdgeStyle;rounded=0;orthogonalLoop=1;jettySize=auto;html=1;exitX=0.5;exitY=1;exitDx=0;exitDy=0;entryX=0.5;entryY=0;entryDx=0;entryDy=0;noEdgeStyle=1;orthogonal=1;" edge="1" source="fbjRNBVHuCys1352WGUO-105" parent="1" target="fbjRNBVHuCys1352WGUO-122">
          <mxGeometry relative="1" as="geometry">
            <mxPoint x="319.97000000000025" y="1010" as="targetPoint" />
            <Array as="points">
              <mxPoint x="370" y="332" />
              <mxPoint x="509.9999999999999" y="408" />
            </Array>
          </mxGeometry>
        </mxCell>
        <mxCell id="fbjRNBVHuCys1352WGUO-105" value="" style="shape=orEllipse;perimeter=ellipsePerimeter;whiteSpace=wrap;html=1;backgroundOutline=1;" vertex="1" parent="1">
          <mxGeometry x="350" y="280" width="40" height="40" as="geometry" />
        </mxCell>
        <mxCell id="fbjRNBVHuCys1352WGUO-108" style="edgeStyle=orthogonalEdgeStyle;rounded=0;orthogonalLoop=1;jettySize=auto;html=1;exitX=0.5;exitY=1;exitDx=0;exitDy=0;entryX=0.5;entryY=0;entryDx=0;entryDy=0;noEdgeStyle=1;orthogonal=1;" edge="1" source="fbjRNBVHuCys1352WGUO-111" target="fbjRNBVHuCys1352WGUO-113" parent="1">
          <mxGeometry relative="1" as="geometry">
            <Array as="points">
              <mxPoint x="10" y="332" />
              <mxPoint x="22.17999999999995" y="408" />
            </Array>
          </mxGeometry>
        </mxCell>
        <mxCell id="fbjRNBVHuCys1352WGUO-109" style="edgeStyle=orthogonalEdgeStyle;rounded=0;orthogonalLoop=1;jettySize=auto;html=1;exitX=0.5;exitY=1;exitDx=0;exitDy=0;entryX=0.5;entryY=0;entryDx=0;entryDy=0;noEdgeStyle=1;orthogonal=1;" edge="1" source="fbjRNBVHuCys1352WGUO-111" parent="1" target="fbjRNBVHuCys1352WGUO-124">
          <mxGeometry relative="1" as="geometry">
            <mxPoint x="589.9400000000003" y="1040" as="targetPoint" />
            <Array as="points">
              <mxPoint x="20" y="334" />
              <mxPoint x="92.17999999999995" y="408" />
            </Array>
          </mxGeometry>
        </mxCell>
        <mxCell id="fbjRNBVHuCys1352WGUO-110" style="edgeStyle=orthogonalEdgeStyle;rounded=0;orthogonalLoop=1;jettySize=auto;html=1;exitX=0.5;exitY=1;exitDx=0;exitDy=0;entryX=0.5;entryY=0;entryDx=0;entryDy=0;noEdgeStyle=1;orthogonal=1;" edge="1" source="fbjRNBVHuCys1352WGUO-111" parent="1" target="fbjRNBVHuCys1352WGUO-126">
          <mxGeometry relative="1" as="geometry">
            <mxPoint x="879.9400000000003" y="1040" as="targetPoint" />
            <Array as="points">
              <mxPoint x="30" y="332" />
              <mxPoint x="162.17999999999995" y="408" />
            </Array>
          </mxGeometry>
        </mxCell>
        <mxCell id="fbjRNBVHuCys1352WGUO-111" value="" style="ellipse;whiteSpace=wrap;html=1;aspect=fixed;" vertex="1" parent="1">
          <mxGeometry y="280" width="40" height="40" as="geometry" />
        </mxCell>
        <mxCell id="fbjRNBVHuCys1352WGUO-112" style="edgeStyle=orthogonalEdgeStyle;rounded=0;orthogonalLoop=1;jettySize=auto;html=1;exitX=0.5;exitY=1;exitDx=0;exitDy=0;entryX=0.5;entryY=0;entryDx=0;entryDy=0;noEdgeStyle=1;orthogonal=1;" edge="1" source="fbjRNBVHuCys1352WGUO-113" parent="1" target="fbjRNBVHuCys1352WGUO-125">
          <mxGeometry relative="1" as="geometry">
            <mxPoint x="739.9400000000003" y="1070" as="targetPoint" />
            <Array as="points">
              <mxPoint x="22.17999999999995" y="472" />
              <mxPoint x="208.12550781249996" y="548" />
            </Array>
          </mxGeometry>
        </mxCell>
        <mxCell id="fbjRNBVHuCys1352WGUO-113" value="" style="shape=orEllipse;perimeter=ellipsePerimeter;whiteSpace=wrap;html=1;backgroundOutline=1;" vertex="1" parent="1">
          <mxGeometry x="2.17999999999995" y="420" width="40" height="40" as="geometry" />
        </mxCell>
        <mxCell id="fbjRNBVHuCys1352WGUO-114" style="edgeStyle=orthogonalEdgeStyle;rounded=0;orthogonalLoop=1;jettySize=auto;html=1;exitX=0.5;exitY=1;exitDx=0;exitDy=0;entryX=0.5;entryY=0;entryDx=0;entryDy=0;noEdgeStyle=1;orthogonal=1;" edge="1" source="fbjRNBVHuCys1352WGUO-117" target="fbjRNBVHuCys1352WGUO-119" parent="1">
          <mxGeometry relative="1" as="geometry">
            <Array as="points">
              <mxPoint x="570" y="192" />
              <mxPoint x="580" y="268" />
            </Array>
          </mxGeometry>
        </mxCell>
        <mxCell id="fbjRNBVHuCys1352WGUO-115" style="edgeStyle=orthogonalEdgeStyle;rounded=0;orthogonalLoop=1;jettySize=auto;html=1;exitX=0.5;exitY=1;exitDx=0;exitDy=0;entryX=0.5;entryY=0;entryDx=0;entryDy=0;noEdgeStyle=1;orthogonal=1;" edge="1" source="fbjRNBVHuCys1352WGUO-117" parent="1" target="fbjRNBVHuCys1352WGUO-127">
          <mxGeometry relative="1" as="geometry">
            <mxPoint x="675.0200000000001" y="830" as="targetPoint" />
            <Array as="points">
              <mxPoint x="580" y="194" />
              <mxPoint x="650" y="268" />
            </Array>
          </mxGeometry>
        </mxCell>
        <mxCell id="fbjRNBVHuCys1352WGUO-116" style="edgeStyle=orthogonalEdgeStyle;rounded=0;orthogonalLoop=1;jettySize=auto;html=1;exitX=0.5;exitY=1;exitDx=0;exitDy=0;entryX=0.5;entryY=0;entryDx=0;entryDy=0;noEdgeStyle=1;orthogonal=1;" edge="1" source="fbjRNBVHuCys1352WGUO-117" parent="1" target="fbjRNBVHuCys1352WGUO-129">
          <mxGeometry relative="1" as="geometry">
            <mxPoint x="965.0200000000006" y="830" as="targetPoint" />
            <Array as="points">
              <mxPoint x="590" y="192" />
              <mxPoint x="720" y="268" />
            </Array>
          </mxGeometry>
        </mxCell>
        <mxCell id="fbjRNBVHuCys1352WGUO-117" value="" style="ellipse;whiteSpace=wrap;html=1;aspect=fixed;" vertex="1" parent="1">
          <mxGeometry x="560" y="140" width="40" height="40" as="geometry" />
        </mxCell>
        <mxCell id="fbjRNBVHuCys1352WGUO-118" style="edgeStyle=orthogonalEdgeStyle;rounded=0;orthogonalLoop=1;jettySize=auto;html=1;exitX=0.5;exitY=1;exitDx=0;exitDy=0;entryX=0.5;entryY=0;entryDx=0;entryDy=0;noEdgeStyle=1;orthogonal=1;" edge="1" source="fbjRNBVHuCys1352WGUO-119" parent="1" target="fbjRNBVHuCys1352WGUO-128">
          <mxGeometry relative="1" as="geometry">
            <mxPoint x="825.0200000000006" y="860" as="targetPoint" />
            <Array as="points">
              <mxPoint x="580" y="332" />
              <mxPoint x="719.9999999999999" y="408" />
            </Array>
          </mxGeometry>
        </mxCell>
        <mxCell id="fbjRNBVHuCys1352WGUO-119" value="" style="shape=orEllipse;perimeter=ellipsePerimeter;whiteSpace=wrap;html=1;backgroundOutline=1;" vertex="1" parent="1">
          <mxGeometry x="560" y="280" width="40" height="40" as="geometry" />
        </mxCell>
        <mxCell id="fbjRNBVHuCys1352WGUO-186" style="edgeStyle=orthogonalEdgeStyle;rounded=0;orthogonalLoop=1;jettySize=auto;html=1;exitX=0.5;exitY=1;exitDx=0;exitDy=0;entryX=0.5;entryY=0;entryDx=0;entryDy=0;noEdgeStyle=1;orthogonal=1;" edge="1" parent="1" source="fbjRNBVHuCys1352WGUO-121" target="fbjRNBVHuCys1352WGUO-172">
          <mxGeometry relative="1" as="geometry">
            <Array as="points">
              <mxPoint x="160" y="332" />
              <mxPoint x="364.4074999999999" y="408" />
            </Array>
          </mxGeometry>
        </mxCell>
        <mxCell id="fbjRNBVHuCys1352WGUO-121" value="" style="ellipse;whiteSpace=wrap;html=1;aspect=fixed;" vertex="1" parent="1">
          <mxGeometry x="140" y="280" width="40" height="40" as="geometry" />
        </mxCell>
        <mxCell id="fbjRNBVHuCys1352WGUO-181" style="edgeStyle=orthogonalEdgeStyle;rounded=0;orthogonalLoop=1;jettySize=auto;html=1;exitX=0.5;exitY=1;exitDx=0;exitDy=0;entryX=0.5;entryY=0;entryDx=0;entryDy=0;noEdgeStyle=1;orthogonal=1;" edge="1" parent="1" source="fbjRNBVHuCys1352WGUO-122" target="fbjRNBVHuCys1352WGUO-170">
          <mxGeometry relative="1" as="geometry">
            <Array as="points">
              <mxPoint x="509.9999999999999" y="472" />
              <mxPoint x="502.22749999999996" y="548" />
            </Array>
          </mxGeometry>
        </mxCell>
        <mxCell id="fbjRNBVHuCys1352WGUO-122" value="" style="ellipse;whiteSpace=wrap;html=1;aspect=fixed;" vertex="1" parent="1">
          <mxGeometry x="489.9999999999999" y="420" width="40" height="40" as="geometry" />
        </mxCell>
        <mxCell id="fbjRNBVHuCys1352WGUO-188" style="edgeStyle=orthogonalEdgeStyle;rounded=0;orthogonalLoop=1;jettySize=auto;html=1;exitX=0.5;exitY=1;exitDx=0;exitDy=0;entryX=0.5;entryY=0;entryDx=0;entryDy=0;noEdgeStyle=1;orthogonal=1;" edge="1" parent="1" source="fbjRNBVHuCys1352WGUO-123" target="fbjRNBVHuCys1352WGUO-173">
          <mxGeometry relative="1" as="geometry">
            <Array as="points">
              <mxPoint x="230" y="332" />
              <mxPoint x="433.3174999999999" y="408" />
            </Array>
          </mxGeometry>
        </mxCell>
        <mxCell id="fbjRNBVHuCys1352WGUO-123" value="" style="ellipse;whiteSpace=wrap;html=1;aspect=fixed;" vertex="1" parent="1">
          <mxGeometry x="210" y="280" width="40" height="40" as="geometry" />
        </mxCell>
        <mxCell id="fbjRNBVHuCys1352WGUO-177" style="edgeStyle=orthogonalEdgeStyle;rounded=0;orthogonalLoop=1;jettySize=auto;html=1;exitX=0.5;exitY=1;exitDx=0;exitDy=0;entryX=0.5;entryY=0;entryDx=0;entryDy=0;noEdgeStyle=1;orthogonal=1;" edge="1" parent="1" source="fbjRNBVHuCys1352WGUO-124" target="fbjRNBVHuCys1352WGUO-176">
          <mxGeometry relative="1" as="geometry">
            <Array as="points">
              <mxPoint x="92.17999999999995" y="472" />
              <mxPoint x="293.5899999999999" y="548" />
            </Array>
          </mxGeometry>
        </mxCell>
        <mxCell id="fbjRNBVHuCys1352WGUO-124" value="" style="ellipse;whiteSpace=wrap;html=1;aspect=fixed;" vertex="1" parent="1">
          <mxGeometry x="72.17999999999995" y="420" width="40" height="40" as="geometry" />
        </mxCell>
        <mxCell id="fbjRNBVHuCys1352WGUO-167" style="edgeStyle=orthogonalEdgeStyle;rounded=0;orthogonalLoop=1;jettySize=auto;html=1;exitX=0.5;exitY=1;exitDx=0;exitDy=0;entryX=0.5;entryY=0;entryDx=0;entryDy=0;noEdgeStyle=1;orthogonal=1;" edge="1" parent="1" source="fbjRNBVHuCys1352WGUO-125" target="fbjRNBVHuCys1352WGUO-166">
          <mxGeometry relative="1" as="geometry">
            <Array as="points">
              <mxPoint x="208.12550781249996" y="612" />
              <mxPoint x="386.843515625" y="688" />
            </Array>
          </mxGeometry>
        </mxCell>
        <mxCell id="fbjRNBVHuCys1352WGUO-125" value="" style="ellipse;whiteSpace=wrap;html=1;aspect=fixed;" vertex="1" parent="1">
          <mxGeometry x="188.12550781249996" y="560" width="40" height="40" as="geometry" />
        </mxCell>
        <mxCell id="fbjRNBVHuCys1352WGUO-179" style="edgeStyle=orthogonalEdgeStyle;rounded=0;orthogonalLoop=1;jettySize=auto;html=1;exitX=0.5;exitY=1;exitDx=0;exitDy=0;entryX=0.5;entryY=0;entryDx=0;entryDy=0;noEdgeStyle=1;orthogonal=1;" edge="1" parent="1" source="fbjRNBVHuCys1352WGUO-126" target="fbjRNBVHuCys1352WGUO-169">
          <mxGeometry relative="1" as="geometry">
            <Array as="points">
              <mxPoint x="162.17999999999995" y="472" />
              <mxPoint x="362.4999999999999" y="548" />
            </Array>
          </mxGeometry>
        </mxCell>
        <mxCell id="fbjRNBVHuCys1352WGUO-126" value="" style="ellipse;whiteSpace=wrap;html=1;aspect=fixed;" vertex="1" parent="1">
          <mxGeometry x="142.17999999999995" y="420" width="40" height="40" as="geometry" />
        </mxCell>
        <mxCell id="fbjRNBVHuCys1352WGUO-191" style="edgeStyle=orthogonalEdgeStyle;rounded=0;orthogonalLoop=1;jettySize=auto;html=1;exitX=0.5;exitY=1;exitDx=0;exitDy=0;entryX=0.5;entryY=0;entryDx=0;entryDy=0;noEdgeStyle=1;orthogonal=1;" edge="1" parent="1" source="fbjRNBVHuCys1352WGUO-127" target="fbjRNBVHuCys1352WGUO-174">
          <mxGeometry relative="1" as="geometry">
            <Array as="points">
              <mxPoint x="650" y="332" />
              <mxPoint x="782.2274999999998" y="408" />
            </Array>
          </mxGeometry>
        </mxCell>
        <mxCell id="fbjRNBVHuCys1352WGUO-127" value="" style="ellipse;whiteSpace=wrap;html=1;aspect=fixed;" vertex="1" parent="1">
          <mxGeometry x="630" y="280" width="40" height="40" as="geometry" />
        </mxCell>
        <mxCell id="fbjRNBVHuCys1352WGUO-183" style="edgeStyle=orthogonalEdgeStyle;rounded=0;orthogonalLoop=1;jettySize=auto;html=1;exitX=0.5;exitY=1;exitDx=0;exitDy=0;entryX=0.5;entryY=0;entryDx=0;entryDy=0;noEdgeStyle=1;orthogonal=1;" edge="1" parent="1" source="fbjRNBVHuCys1352WGUO-128" target="fbjRNBVHuCys1352WGUO-171">
          <mxGeometry relative="1" as="geometry">
            <Array as="points">
              <mxPoint x="719.9999999999999" y="472" />
              <mxPoint x="816.6824999999999" y="548" />
            </Array>
          </mxGeometry>
        </mxCell>
        <mxCell id="fbjRNBVHuCys1352WGUO-128" value="" style="ellipse;whiteSpace=wrap;html=1;aspect=fixed;" vertex="1" parent="1">
          <mxGeometry x="699.9999999999999" y="420" width="40" height="40" as="geometry" />
        </mxCell>
        <mxCell id="fbjRNBVHuCys1352WGUO-193" style="edgeStyle=orthogonalEdgeStyle;rounded=0;orthogonalLoop=1;jettySize=auto;html=1;exitX=0.5;exitY=1;exitDx=0;exitDy=0;entryX=0.5;entryY=0;entryDx=0;entryDy=0;noEdgeStyle=1;orthogonal=1;" edge="1" parent="1" source="fbjRNBVHuCys1352WGUO-129" target="fbjRNBVHuCys1352WGUO-175">
          <mxGeometry relative="1" as="geometry">
            <Array as="points">
              <mxPoint x="720" y="332" />
              <mxPoint x="851.1374999999999" y="408" />
            </Array>
          </mxGeometry>
        </mxCell>
        <mxCell id="fbjRNBVHuCys1352WGUO-129" value="" style="ellipse;whiteSpace=wrap;html=1;aspect=fixed;" vertex="1" parent="1">
          <mxGeometry x="700" y="280" width="40" height="40" as="geometry" />
        </mxCell>
        <mxCell id="fbjRNBVHuCys1352WGUO-133" style="edgeStyle=orthogonalEdgeStyle;rounded=0;orthogonalLoop=1;jettySize=auto;html=1;exitX=0.5;exitY=1;exitDx=0;exitDy=0;entryX=0.5;entryY=0;entryDx=0;entryDy=0;noEdgeStyle=1;orthogonal=1;dashed=1;" edge="1" source="fbjRNBVHuCys1352WGUO-136" target="fbjRNBVHuCys1352WGUO-138" parent="1">
          <mxGeometry relative="1" as="geometry">
            <Array as="points">
              <mxPoint x="431.09375" y="52" />
              <mxPoint x="265.546875" y="128" />
            </Array>
          </mxGeometry>
        </mxCell>
        <mxCell id="fbjRNBVHuCys1352WGUO-134" style="edgeStyle=orthogonalEdgeStyle;rounded=0;orthogonalLoop=1;jettySize=auto;html=1;exitX=0.5;exitY=1;exitDx=0;exitDy=0;entryX=0.5;entryY=0;entryDx=0;entryDy=0;noEdgeStyle=1;orthogonal=1;dashed=1;" edge="1" source="fbjRNBVHuCys1352WGUO-136" target="fbjRNBVHuCys1352WGUO-142" parent="1">
          <mxGeometry relative="1" as="geometry">
            <Array as="points">
              <mxPoint x="441.09375" y="54" />
              <mxPoint x="441.09375" y="128" />
            </Array>
          </mxGeometry>
        </mxCell>
        <mxCell id="fbjRNBVHuCys1352WGUO-135" style="edgeStyle=orthogonalEdgeStyle;rounded=0;orthogonalLoop=1;jettySize=auto;html=1;exitX=0.5;exitY=1;exitDx=0;exitDy=0;entryX=0.5;entryY=0;entryDx=0;entryDy=0;noEdgeStyle=1;orthogonal=1;dashed=1;" edge="1" source="fbjRNBVHuCys1352WGUO-136" target="fbjRNBVHuCys1352WGUO-154" parent="1">
          <mxGeometry relative="1" as="geometry">
            <Array as="points">
              <mxPoint x="451.09375" y="52" />
              <mxPoint x="756.09375" y="128" />
            </Array>
          </mxGeometry>
        </mxCell>
        <mxCell id="fbjRNBVHuCys1352WGUO-136" value="B" style="ellipse;whiteSpace=wrap;html=1;aspect=fixed;dashed=1;" vertex="1" parent="1">
          <mxGeometry x="421.09375" width="40" height="40" as="geometry" />
        </mxCell>
        <mxCell id="fbjRNBVHuCys1352WGUO-137" style="edgeStyle=orthogonalEdgeStyle;rounded=0;orthogonalLoop=1;jettySize=auto;html=1;exitX=0.5;exitY=1;exitDx=0;exitDy=0;entryX=0.5;entryY=0;entryDx=0;entryDy=0;noEdgeStyle=1;orthogonal=1;dashed=1;" edge="1" source="fbjRNBVHuCys1352WGUO-138" target="fbjRNBVHuCys1352WGUO-148" parent="1">
          <mxGeometry relative="1" as="geometry">
            <Array as="points">
              <mxPoint x="265.546875" y="192" />
              <mxPoint x="90" y="268" />
            </Array>
          </mxGeometry>
        </mxCell>
        <mxCell id="fbjRNBVHuCys1352WGUO-138" value="" style="shape=orEllipse;perimeter=ellipsePerimeter;whiteSpace=wrap;html=1;backgroundOutline=1;dashed=1;" vertex="1" parent="1">
          <mxGeometry x="245.546875" y="140" width="40" height="40" as="geometry" />
        </mxCell>
        <mxCell id="fbjRNBVHuCys1352WGUO-139" style="edgeStyle=orthogonalEdgeStyle;rounded=0;orthogonalLoop=1;jettySize=auto;html=1;exitX=0.5;exitY=1;exitDx=0;exitDy=0;entryX=0.5;entryY=0;entryDx=0;entryDy=0;noEdgeStyle=1;orthogonal=1;dashed=1;" edge="1" source="fbjRNBVHuCys1352WGUO-142" target="fbjRNBVHuCys1352WGUO-144" parent="1">
          <mxGeometry relative="1" as="geometry">
            <Array as="points">
              <mxPoint x="451.09375" y="192" />
              <mxPoint x="510" y="268" />
            </Array>
          </mxGeometry>
        </mxCell>
        <mxCell id="fbjRNBVHuCys1352WGUO-140" style="edgeStyle=orthogonalEdgeStyle;rounded=0;orthogonalLoop=1;jettySize=auto;html=1;exitX=0.5;exitY=1;exitDx=0;exitDy=0;entryX=0.5;entryY=0;entryDx=0;entryDy=0;noEdgeStyle=1;orthogonal=1;dashed=1;" edge="1" source="fbjRNBVHuCys1352WGUO-142" target="fbjRNBVHuCys1352WGUO-157" parent="1">
          <mxGeometry relative="1" as="geometry">
            <mxPoint x="211.06000000000023" y="980" as="targetPoint" />
            <Array as="points">
              <mxPoint x="431.09375" y="192" />
              <mxPoint x="300" y="268" />
            </Array>
          </mxGeometry>
        </mxCell>
        <mxCell id="fbjRNBVHuCys1352WGUO-141" style="edgeStyle=orthogonalEdgeStyle;rounded=0;orthogonalLoop=1;jettySize=auto;html=1;exitX=0.5;exitY=1;exitDx=0;exitDy=0;entryX=0.5;entryY=0;entryDx=0;entryDy=0;noEdgeStyle=1;orthogonal=1;dashed=1;" edge="1" source="fbjRNBVHuCys1352WGUO-142" target="fbjRNBVHuCys1352WGUO-159" parent="1">
          <mxGeometry relative="1" as="geometry">
            <mxPoint x="501.06000000000023" y="980" as="targetPoint" />
            <Array as="points">
              <mxPoint x="441.09375" y="194" />
              <mxPoint x="440" y="268" />
            </Array>
          </mxGeometry>
        </mxCell>
        <mxCell id="fbjRNBVHuCys1352WGUO-142" value="" style="ellipse;whiteSpace=wrap;html=1;aspect=fixed;dashed=1;" vertex="1" parent="1">
          <mxGeometry x="421.09375" y="140" width="40" height="40" as="geometry" />
        </mxCell>
        <mxCell id="fbjRNBVHuCys1352WGUO-143" style="edgeStyle=orthogonalEdgeStyle;rounded=0;orthogonalLoop=1;jettySize=auto;html=1;exitX=0.5;exitY=1;exitDx=0;exitDy=0;entryX=0.5;entryY=0;entryDx=0;entryDy=0;noEdgeStyle=1;orthogonal=1;dashed=1;" edge="1" source="fbjRNBVHuCys1352WGUO-144" target="fbjRNBVHuCys1352WGUO-158" parent="1">
          <mxGeometry relative="1" as="geometry">
            <mxPoint x="361.06000000000023" y="1010" as="targetPoint" />
            <Array as="points">
              <mxPoint x="510" y="332" />
              <mxPoint x="649.9999999999999" y="408" />
            </Array>
          </mxGeometry>
        </mxCell>
        <mxCell id="fbjRNBVHuCys1352WGUO-144" value="" style="shape=orEllipse;perimeter=ellipsePerimeter;whiteSpace=wrap;html=1;backgroundOutline=1;dashed=1;" vertex="1" parent="1">
          <mxGeometry x="490" y="280" width="40" height="40" as="geometry" />
        </mxCell>
        <mxCell id="fbjRNBVHuCys1352WGUO-145" style="edgeStyle=orthogonalEdgeStyle;rounded=0;orthogonalLoop=1;jettySize=auto;html=1;exitX=0.5;exitY=1;exitDx=0;exitDy=0;entryX=0.5;entryY=0;entryDx=0;entryDy=0;noEdgeStyle=1;orthogonal=1;dashed=1;" edge="1" source="fbjRNBVHuCys1352WGUO-148" target="fbjRNBVHuCys1352WGUO-150" parent="1">
          <mxGeometry relative="1" as="geometry">
            <Array as="points">
              <mxPoint x="100" y="332" />
              <mxPoint x="579.9999999999999" y="408" />
            </Array>
          </mxGeometry>
        </mxCell>
        <mxCell id="fbjRNBVHuCys1352WGUO-146" style="edgeStyle=orthogonalEdgeStyle;rounded=0;orthogonalLoop=1;jettySize=auto;html=1;exitX=0.5;exitY=1;exitDx=0;exitDy=0;entryX=0.5;entryY=0;entryDx=0;entryDy=0;noEdgeStyle=1;orthogonal=1;dashed=1;" edge="1" source="fbjRNBVHuCys1352WGUO-148" target="fbjRNBVHuCys1352WGUO-160" parent="1">
          <mxGeometry relative="1" as="geometry">
            <mxPoint x="631.0300000000003" y="1040" as="targetPoint" />
            <Array as="points">
              <mxPoint x="80" y="332" />
              <mxPoint x="232.17999999999995" y="408" />
            </Array>
          </mxGeometry>
        </mxCell>
        <mxCell id="fbjRNBVHuCys1352WGUO-147" style="edgeStyle=orthogonalEdgeStyle;rounded=0;orthogonalLoop=1;jettySize=auto;html=1;exitX=0.5;exitY=1;exitDx=0;exitDy=0;entryX=0.5;entryY=0;entryDx=0;entryDy=0;noEdgeStyle=1;orthogonal=1;dashed=1;" edge="1" source="fbjRNBVHuCys1352WGUO-148" target="fbjRNBVHuCys1352WGUO-162" parent="1">
          <mxGeometry relative="1" as="geometry">
            <mxPoint x="921.0300000000003" y="1040" as="targetPoint" />
            <Array as="points">
              <mxPoint x="90" y="334" />
              <mxPoint x="302.17999999999995" y="408" />
            </Array>
          </mxGeometry>
        </mxCell>
        <mxCell id="fbjRNBVHuCys1352WGUO-148" value="" style="ellipse;whiteSpace=wrap;html=1;aspect=fixed;dashed=1;" vertex="1" parent="1">
          <mxGeometry x="70" y="280" width="40" height="40" as="geometry" />
        </mxCell>
        <mxCell id="fbjRNBVHuCys1352WGUO-149" style="edgeStyle=orthogonalEdgeStyle;rounded=0;orthogonalLoop=1;jettySize=auto;html=1;exitX=0.5;exitY=1;exitDx=0;exitDy=0;entryX=0.5;entryY=0;entryDx=0;entryDy=0;noEdgeStyle=1;orthogonal=1;dashed=1;" edge="1" source="fbjRNBVHuCys1352WGUO-150" target="fbjRNBVHuCys1352WGUO-161" parent="1">
          <mxGeometry relative="1" as="geometry">
            <mxPoint x="781.0300000000003" y="1070" as="targetPoint" />
            <Array as="points">
              <mxPoint x="579.9999999999999" y="472" />
              <mxPoint x="578.91" y="548" />
            </Array>
          </mxGeometry>
        </mxCell>
        <mxCell id="fbjRNBVHuCys1352WGUO-150" value="" style="shape=orEllipse;perimeter=ellipsePerimeter;whiteSpace=wrap;html=1;backgroundOutline=1;dashed=1;" vertex="1" parent="1">
          <mxGeometry x="559.9999999999999" y="420" width="40" height="40" as="geometry" />
        </mxCell>
        <mxCell id="fbjRNBVHuCys1352WGUO-151" style="edgeStyle=orthogonalEdgeStyle;rounded=0;orthogonalLoop=1;jettySize=auto;html=1;exitX=0.5;exitY=1;exitDx=0;exitDy=0;entryX=0.5;entryY=0;entryDx=0;entryDy=0;noEdgeStyle=1;orthogonal=1;dashed=1;" edge="1" source="fbjRNBVHuCys1352WGUO-154" target="fbjRNBVHuCys1352WGUO-156" parent="1">
          <mxGeometry relative="1" as="geometry">
            <Array as="points">
              <mxPoint x="766.09375" y="192" />
              <mxPoint x="930" y="268" />
            </Array>
          </mxGeometry>
        </mxCell>
        <mxCell id="fbjRNBVHuCys1352WGUO-152" style="edgeStyle=orthogonalEdgeStyle;rounded=0;orthogonalLoop=1;jettySize=auto;html=1;exitX=0.5;exitY=1;exitDx=0;exitDy=0;entryX=0.5;entryY=0;entryDx=0;entryDy=0;noEdgeStyle=1;orthogonal=1;dashed=1;" edge="1" source="fbjRNBVHuCys1352WGUO-154" target="fbjRNBVHuCys1352WGUO-163" parent="1">
          <mxGeometry relative="1" as="geometry">
            <mxPoint x="716.1100000000001" y="830" as="targetPoint" />
            <Array as="points">
              <mxPoint x="746.09375" y="192" />
              <mxPoint x="790" y="268" />
            </Array>
          </mxGeometry>
        </mxCell>
        <mxCell id="fbjRNBVHuCys1352WGUO-153" style="edgeStyle=orthogonalEdgeStyle;rounded=0;orthogonalLoop=1;jettySize=auto;html=1;exitX=0.5;exitY=1;exitDx=0;exitDy=0;entryX=0.5;entryY=0;entryDx=0;entryDy=0;noEdgeStyle=1;orthogonal=1;dashed=1;" edge="1" source="fbjRNBVHuCys1352WGUO-154" target="fbjRNBVHuCys1352WGUO-165" parent="1">
          <mxGeometry relative="1" as="geometry">
            <mxPoint x="1006.1100000000005" y="830" as="targetPoint" />
            <Array as="points">
              <mxPoint x="756.09375" y="194" />
              <mxPoint x="860" y="268" />
            </Array>
          </mxGeometry>
        </mxCell>
        <mxCell id="fbjRNBVHuCys1352WGUO-154" value="" style="ellipse;whiteSpace=wrap;html=1;aspect=fixed;dashed=1;" vertex="1" parent="1">
          <mxGeometry x="736.09375" y="140" width="40" height="40" as="geometry" />
        </mxCell>
        <mxCell id="fbjRNBVHuCys1352WGUO-155" style="edgeStyle=orthogonalEdgeStyle;rounded=0;orthogonalLoop=1;jettySize=auto;html=1;exitX=0.5;exitY=1;exitDx=0;exitDy=0;entryX=0.5;entryY=0;entryDx=0;entryDy=0;noEdgeStyle=1;orthogonal=1;dashed=1;" edge="1" source="fbjRNBVHuCys1352WGUO-156" target="fbjRNBVHuCys1352WGUO-164" parent="1">
          <mxGeometry relative="1" as="geometry">
            <mxPoint x="866.1100000000006" y="860" as="targetPoint" />
            <Array as="points">
              <mxPoint x="930" y="332" />
              <mxPoint x="927.82" y="408" />
            </Array>
          </mxGeometry>
        </mxCell>
        <mxCell id="fbjRNBVHuCys1352WGUO-156" value="" style="shape=orEllipse;perimeter=ellipsePerimeter;whiteSpace=wrap;html=1;backgroundOutline=1;dashed=1;" vertex="1" parent="1">
          <mxGeometry x="910" y="280" width="40" height="40" as="geometry" />
        </mxCell>
        <mxCell id="fbjRNBVHuCys1352WGUO-187" style="edgeStyle=orthogonalEdgeStyle;rounded=0;orthogonalLoop=1;jettySize=auto;html=1;exitX=0.5;exitY=1;exitDx=0;exitDy=0;entryX=0.5;entryY=0;entryDx=0;entryDy=0;noEdgeStyle=1;orthogonal=1;" edge="1" parent="1" source="fbjRNBVHuCys1352WGUO-157" target="fbjRNBVHuCys1352WGUO-172">
          <mxGeometry relative="1" as="geometry">
            <Array as="points">
              <mxPoint x="300" y="332" />
              <mxPoint x="378.8624999999999" y="408" />
            </Array>
          </mxGeometry>
        </mxCell>
        <mxCell id="fbjRNBVHuCys1352WGUO-157" value="" style="ellipse;whiteSpace=wrap;html=1;aspect=fixed;dashed=1;" vertex="1" parent="1">
          <mxGeometry x="280" y="280" width="40" height="40" as="geometry" />
        </mxCell>
        <mxCell id="fbjRNBVHuCys1352WGUO-182" style="edgeStyle=orthogonalEdgeStyle;rounded=0;orthogonalLoop=1;jettySize=auto;html=1;exitX=0.5;exitY=1;exitDx=0;exitDy=0;entryX=0.5;entryY=0;entryDx=0;entryDy=0;noEdgeStyle=1;orthogonal=1;" edge="1" parent="1" source="fbjRNBVHuCys1352WGUO-158" target="fbjRNBVHuCys1352WGUO-170">
          <mxGeometry relative="1" as="geometry">
            <Array as="points">
              <mxPoint x="649.9999999999999" y="472" />
              <mxPoint x="516.6824999999999" y="548" />
            </Array>
          </mxGeometry>
        </mxCell>
        <mxCell id="fbjRNBVHuCys1352WGUO-158" value="" style="ellipse;whiteSpace=wrap;html=1;aspect=fixed;dashed=1;" vertex="1" parent="1">
          <mxGeometry x="629.9999999999999" y="420" width="40" height="40" as="geometry" />
        </mxCell>
        <mxCell id="fbjRNBVHuCys1352WGUO-190" style="edgeStyle=orthogonalEdgeStyle;rounded=0;orthogonalLoop=1;jettySize=auto;html=1;exitX=0.5;exitY=1;exitDx=0;exitDy=0;entryX=0.5;entryY=0;entryDx=0;entryDy=0;noEdgeStyle=1;orthogonal=1;" edge="1" parent="1" source="fbjRNBVHuCys1352WGUO-159" target="fbjRNBVHuCys1352WGUO-173">
          <mxGeometry relative="1" as="geometry">
            <Array as="points">
              <mxPoint x="440" y="332" />
              <mxPoint x="447.77249999999987" y="408" />
            </Array>
          </mxGeometry>
        </mxCell>
        <mxCell id="fbjRNBVHuCys1352WGUO-159" value="" style="ellipse;whiteSpace=wrap;html=1;aspect=fixed;dashed=1;" vertex="1" parent="1">
          <mxGeometry x="420" y="280" width="40" height="40" as="geometry" />
        </mxCell>
        <mxCell id="fbjRNBVHuCys1352WGUO-178" style="edgeStyle=orthogonalEdgeStyle;rounded=0;orthogonalLoop=1;jettySize=auto;html=1;exitX=0.5;exitY=1;exitDx=0;exitDy=0;entryX=0.5;entryY=0;entryDx=0;entryDy=0;noEdgeStyle=1;orthogonal=1;" edge="1" parent="1" source="fbjRNBVHuCys1352WGUO-160" target="fbjRNBVHuCys1352WGUO-176">
          <mxGeometry relative="1" as="geometry">
            <Array as="points">
              <mxPoint x="232.17999999999995" y="472" />
              <mxPoint x="308.0449999999999" y="548" />
            </Array>
          </mxGeometry>
        </mxCell>
        <mxCell id="fbjRNBVHuCys1352WGUO-160" value="" style="ellipse;whiteSpace=wrap;html=1;aspect=fixed;dashed=1;" vertex="1" parent="1">
          <mxGeometry x="212.17999999999995" y="420" width="40" height="40" as="geometry" />
        </mxCell>
        <mxCell id="fbjRNBVHuCys1352WGUO-168" style="edgeStyle=orthogonalEdgeStyle;rounded=0;orthogonalLoop=1;jettySize=auto;html=1;exitX=0.5;exitY=1;exitDx=0;exitDy=0;entryX=0.5;entryY=0;entryDx=0;entryDy=0;noEdgeStyle=1;orthogonal=1;" edge="1" parent="1" source="fbjRNBVHuCys1352WGUO-161" target="fbjRNBVHuCys1352WGUO-166">
          <mxGeometry relative="1" as="geometry">
            <Array as="points">
              <mxPoint x="578.91" y="612" />
              <mxPoint x="401.29851562500005" y="688" />
            </Array>
          </mxGeometry>
        </mxCell>
        <mxCell id="fbjRNBVHuCys1352WGUO-161" value="" style="ellipse;whiteSpace=wrap;html=1;aspect=fixed;dashed=1;" vertex="1" parent="1">
          <mxGeometry x="558.91" y="560" width="40" height="40" as="geometry" />
        </mxCell>
        <mxCell id="fbjRNBVHuCys1352WGUO-180" style="edgeStyle=orthogonalEdgeStyle;rounded=0;orthogonalLoop=1;jettySize=auto;html=1;exitX=0.5;exitY=1;exitDx=0;exitDy=0;entryX=0.5;entryY=0;entryDx=0;entryDy=0;noEdgeStyle=1;orthogonal=1;" edge="1" parent="1" source="fbjRNBVHuCys1352WGUO-162" target="fbjRNBVHuCys1352WGUO-169">
          <mxGeometry relative="1" as="geometry">
            <Array as="points">
              <mxPoint x="302.17999999999995" y="472" />
              <mxPoint x="376.95499999999987" y="548" />
            </Array>
          </mxGeometry>
        </mxCell>
        <mxCell id="fbjRNBVHuCys1352WGUO-162" value="" style="ellipse;whiteSpace=wrap;html=1;aspect=fixed;dashed=1;" vertex="1" parent="1">
          <mxGeometry x="282.17999999999995" y="420" width="40" height="40" as="geometry" />
        </mxCell>
        <mxCell id="fbjRNBVHuCys1352WGUO-192" style="edgeStyle=orthogonalEdgeStyle;rounded=0;orthogonalLoop=1;jettySize=auto;html=1;exitX=0.5;exitY=1;exitDx=0;exitDy=0;entryX=0.5;entryY=0;entryDx=0;entryDy=0;noEdgeStyle=1;orthogonal=1;" edge="1" parent="1" source="fbjRNBVHuCys1352WGUO-163" target="fbjRNBVHuCys1352WGUO-174">
          <mxGeometry relative="1" as="geometry">
            <Array as="points">
              <mxPoint x="790" y="332" />
              <mxPoint x="796.6824999999999" y="408" />
            </Array>
          </mxGeometry>
        </mxCell>
        <mxCell id="fbjRNBVHuCys1352WGUO-163" value="" style="ellipse;whiteSpace=wrap;html=1;aspect=fixed;dashed=1;" vertex="1" parent="1">
          <mxGeometry x="770" y="280" width="40" height="40" as="geometry" />
        </mxCell>
        <mxCell id="fbjRNBVHuCys1352WGUO-184" style="edgeStyle=orthogonalEdgeStyle;rounded=0;orthogonalLoop=1;jettySize=auto;html=1;exitX=0.5;exitY=1;exitDx=0;exitDy=0;entryX=0.5;entryY=0;entryDx=0;entryDy=0;noEdgeStyle=1;orthogonal=1;" edge="1" parent="1" source="fbjRNBVHuCys1352WGUO-164" target="fbjRNBVHuCys1352WGUO-171">
          <mxGeometry relative="1" as="geometry">
            <Array as="points">
              <mxPoint x="927.82" y="472" />
              <mxPoint x="831.1374999999998" y="548" />
            </Array>
          </mxGeometry>
        </mxCell>
        <mxCell id="fbjRNBVHuCys1352WGUO-164" value="" style="ellipse;whiteSpace=wrap;html=1;aspect=fixed;dashed=1;" vertex="1" parent="1">
          <mxGeometry x="907.82" y="420" width="40" height="40" as="geometry" />
        </mxCell>
        <mxCell id="fbjRNBVHuCys1352WGUO-194" style="edgeStyle=orthogonalEdgeStyle;rounded=0;orthogonalLoop=1;jettySize=auto;html=1;exitX=0.5;exitY=1;exitDx=0;exitDy=0;entryX=0.5;entryY=0;entryDx=0;entryDy=0;noEdgeStyle=1;orthogonal=1;" edge="1" parent="1" source="fbjRNBVHuCys1352WGUO-165" target="fbjRNBVHuCys1352WGUO-175">
          <mxGeometry relative="1" as="geometry">
            <Array as="points">
              <mxPoint x="860" y="332" />
              <mxPoint x="865.5925" y="408" />
            </Array>
          </mxGeometry>
        </mxCell>
        <mxCell id="fbjRNBVHuCys1352WGUO-165" value="" style="ellipse;whiteSpace=wrap;html=1;aspect=fixed;dashed=1;" vertex="1" parent="1">
          <mxGeometry x="840" y="280" width="40" height="40" as="geometry" />
        </mxCell>
        <mxCell id="fbjRNBVHuCys1352WGUO-166" value="" style="shape=sumEllipse;perimeter=ellipsePerimeter;whiteSpace=wrap;html=1;backgroundOutline=1;" vertex="1" parent="1">
          <mxGeometry x="374.616015625" y="700" width="38.91" height="40" as="geometry" />
        </mxCell>
        <mxCell id="fbjRNBVHuCys1352WGUO-169" value="" style="shape=sumEllipse;perimeter=ellipsePerimeter;whiteSpace=wrap;html=1;backgroundOutline=1;" vertex="1" parent="1">
          <mxGeometry x="350.2724999999999" y="560" width="38.91" height="40" as="geometry" />
        </mxCell>
        <mxCell id="fbjRNBVHuCys1352WGUO-170" value="" style="shape=sumEllipse;perimeter=ellipsePerimeter;whiteSpace=wrap;html=1;backgroundOutline=1;" vertex="1" parent="1">
          <mxGeometry x="490" y="560" width="38.91" height="40" as="geometry" />
        </mxCell>
        <mxCell id="fbjRNBVHuCys1352WGUO-171" value="" style="shape=sumEllipse;perimeter=ellipsePerimeter;whiteSpace=wrap;html=1;backgroundOutline=1;" vertex="1" parent="1">
          <mxGeometry x="804.4549999999999" y="560" width="38.91" height="40" as="geometry" />
        </mxCell>
        <mxCell id="fbjRNBVHuCys1352WGUO-172" value="" style="shape=sumEllipse;perimeter=ellipsePerimeter;whiteSpace=wrap;html=1;backgroundOutline=1;" vertex="1" parent="1">
          <mxGeometry x="352.17999999999995" y="420" width="38.91" height="40" as="geometry" />
        </mxCell>
        <mxCell id="fbjRNBVHuCys1352WGUO-173" value="" style="shape=sumEllipse;perimeter=ellipsePerimeter;whiteSpace=wrap;html=1;backgroundOutline=1;" vertex="1" parent="1">
          <mxGeometry x="421.0899999999999" y="420" width="38.91" height="40" as="geometry" />
        </mxCell>
        <mxCell id="fbjRNBVHuCys1352WGUO-174" value="" style="shape=sumEllipse;perimeter=ellipsePerimeter;whiteSpace=wrap;html=1;backgroundOutline=1;" vertex="1" parent="1">
          <mxGeometry x="769.9999999999999" y="420" width="38.91" height="40" as="geometry" />
        </mxCell>
        <mxCell id="fbjRNBVHuCys1352WGUO-175" value="" style="shape=sumEllipse;perimeter=ellipsePerimeter;whiteSpace=wrap;html=1;backgroundOutline=1;" vertex="1" parent="1">
          <mxGeometry x="838.91" y="420" width="38.91" height="40" as="geometry" />
        </mxCell>
        <mxCell id="fbjRNBVHuCys1352WGUO-176" value="" style="shape=sumEllipse;perimeter=ellipsePerimeter;whiteSpace=wrap;html=1;backgroundOutline=1;" vertex="1" parent="1">
          <mxGeometry x="281.36249999999995" y="560" width="38.91" height="40" as="geometry" />
        </mxCell>
      </root>
    </mxGraphModel>
  </diagram>
  <diagram id="tUHYMs8Pw1NTXP1nOmQE" name="前向优化">
    <mxGraphModel dx="1124" dy="637" grid="1" gridSize="10" guides="1" tooltips="1" connect="1" arrows="1" fold="1" page="1" pageScale="1" pageWidth="827" pageHeight="1169" math="0" shadow="0">
      <root>
        <mxCell id="0" />
        <mxCell id="1" parent="0" />
        <mxCell id="MgtrMQk-lhwbNSyezBko-90" style="edgeStyle=orthogonalEdgeStyle;rounded=0;orthogonalLoop=1;jettySize=auto;html=1;exitX=0.5;exitY=1;exitDx=0;exitDy=0;entryX=0.5;entryY=0;entryDx=0;entryDy=0;noEdgeStyle=1;orthogonal=1;" parent="1" source="rLGh8ox-mbcigMz0RDbb-1" target="MgtrMQk-lhwbNSyezBko-52" edge="1">
          <mxGeometry relative="1" as="geometry" />
        </mxCell>
        <mxCell id="MgtrMQk-lhwbNSyezBko-91" style="edgeStyle=orthogonalEdgeStyle;rounded=0;orthogonalLoop=1;jettySize=auto;html=1;exitX=0.5;exitY=1;exitDx=0;exitDy=0;entryX=0.5;entryY=0;entryDx=0;entryDy=0;noEdgeStyle=1;orthogonal=1;" parent="1" source="rLGh8ox-mbcigMz0RDbb-1" target="MgtrMQk-lhwbNSyezBko-62" edge="1">
          <mxGeometry relative="1" as="geometry">
            <mxPoint x="590.0000000000002" y="100" as="targetPoint" />
          </mxGeometry>
        </mxCell>
        <mxCell id="MgtrMQk-lhwbNSyezBko-92" style="edgeStyle=orthogonalEdgeStyle;rounded=0;orthogonalLoop=1;jettySize=auto;html=1;exitX=0.5;exitY=1;exitDx=0;exitDy=0;entryX=0.5;entryY=0;entryDx=0;entryDy=0;noEdgeStyle=1;orthogonal=1;" parent="1" source="rLGh8ox-mbcigMz0RDbb-1" target="MgtrMQk-lhwbNSyezBko-63" edge="1">
          <mxGeometry relative="1" as="geometry">
            <mxPoint x="760" y="130" as="targetPoint" />
          </mxGeometry>
        </mxCell>
        <mxCell id="MgtrMQk-lhwbNSyezBko-94" style="edgeStyle=orthogonalEdgeStyle;rounded=0;orthogonalLoop=1;jettySize=auto;html=1;exitX=0.5;exitY=1;exitDx=0;exitDy=0;entryX=0.5;entryY=0;entryDx=0;entryDy=0;noEdgeStyle=1;orthogonal=1;" parent="1" source="rLGh8ox-mbcigMz0RDbb-1" target="MgtrMQk-lhwbNSyezBko-66" edge="1">
          <mxGeometry relative="1" as="geometry" />
        </mxCell>
        <mxCell id="MgtrMQk-lhwbNSyezBko-95" style="edgeStyle=orthogonalEdgeStyle;rounded=0;orthogonalLoop=1;jettySize=auto;html=1;exitX=0.5;exitY=1;exitDx=0;exitDy=0;entryX=0.5;entryY=0;entryDx=0;entryDy=0;noEdgeStyle=1;orthogonal=1;" parent="1" source="rLGh8ox-mbcigMz0RDbb-1" target="MgtrMQk-lhwbNSyezBko-68" edge="1">
          <mxGeometry relative="1" as="geometry" />
        </mxCell>
        <mxCell id="MgtrMQk-lhwbNSyezBko-96" style="edgeStyle=orthogonalEdgeStyle;rounded=0;orthogonalLoop=1;jettySize=auto;html=1;exitX=0.5;exitY=1;exitDx=0;exitDy=0;entryX=0.5;entryY=0;entryDx=0;entryDy=0;noEdgeStyle=1;orthogonal=1;" parent="1" source="rLGh8ox-mbcigMz0RDbb-1" target="MgtrMQk-lhwbNSyezBko-77" edge="1">
          <mxGeometry relative="1" as="geometry" />
        </mxCell>
        <mxCell id="MgtrMQk-lhwbNSyezBko-97" style="edgeStyle=orthogonalEdgeStyle;rounded=0;orthogonalLoop=1;jettySize=auto;html=1;exitX=0.5;exitY=1;exitDx=0;exitDy=0;entryX=0.5;entryY=0;entryDx=0;entryDy=0;noEdgeStyle=1;orthogonal=1;" parent="1" source="rLGh8ox-mbcigMz0RDbb-1" target="MgtrMQk-lhwbNSyezBko-75" edge="1">
          <mxGeometry relative="1" as="geometry" />
        </mxCell>
        <mxCell id="rLGh8ox-mbcigMz0RDbb-1" value="" style="rounded=0;whiteSpace=wrap;html=1;" parent="1" vertex="1">
          <mxGeometry x="870" width="160" height="10" as="geometry" />
        </mxCell>
        <mxCell id="MgtrMQk-lhwbNSyezBko-1" style="edgeStyle=orthogonalEdgeStyle;rounded=0;orthogonalLoop=1;jettySize=auto;html=1;exitX=0.5;exitY=1;exitDx=0;exitDy=0;entryX=0.5;entryY=0;entryDx=0;entryDy=0;noEdgeStyle=1;orthogonal=1;" parent="1" source="MgtrMQk-lhwbNSyezBko-4" target="MgtrMQk-lhwbNSyezBko-6" edge="1">
          <mxGeometry relative="1" as="geometry">
            <Array as="points">
              <mxPoint x="151.09375" y="52" />
              <mxPoint x="91.09375" y="128" />
            </Array>
          </mxGeometry>
        </mxCell>
        <mxCell id="MgtrMQk-lhwbNSyezBko-2" style="edgeStyle=orthogonalEdgeStyle;rounded=0;orthogonalLoop=1;jettySize=auto;html=1;exitX=0.5;exitY=1;exitDx=0;exitDy=0;entryX=0.5;entryY=0;entryDx=0;entryDy=0;noEdgeStyle=1;orthogonal=1;" parent="1" source="MgtrMQk-lhwbNSyezBko-4" target="MgtrMQk-lhwbNSyezBko-10" edge="1">
          <mxGeometry relative="1" as="geometry">
            <Array as="points">
              <mxPoint x="161.09375" y="54" />
              <mxPoint x="161.09375" y="128" />
            </Array>
          </mxGeometry>
        </mxCell>
        <mxCell id="MgtrMQk-lhwbNSyezBko-3" style="edgeStyle=orthogonalEdgeStyle;rounded=0;orthogonalLoop=1;jettySize=auto;html=1;exitX=0.5;exitY=1;exitDx=0;exitDy=0;entryX=0.5;entryY=0;entryDx=0;entryDy=0;noEdgeStyle=1;orthogonal=1;" parent="1" source="MgtrMQk-lhwbNSyezBko-4" target="MgtrMQk-lhwbNSyezBko-22" edge="1">
          <mxGeometry relative="1" as="geometry">
            <Array as="points">
              <mxPoint x="171.09375" y="52" />
              <mxPoint x="318.59375" y="128" />
            </Array>
          </mxGeometry>
        </mxCell>
        <mxCell id="MgtrMQk-lhwbNSyezBko-4" value="A" style="ellipse;whiteSpace=wrap;html=1;aspect=fixed;" parent="1" vertex="1">
          <mxGeometry x="141.09375" width="40" height="40" as="geometry" />
        </mxCell>
        <mxCell id="MgtrMQk-lhwbNSyezBko-5" style="edgeStyle=orthogonalEdgeStyle;rounded=0;orthogonalLoop=1;jettySize=auto;html=1;exitX=0.5;exitY=1;exitDx=0;exitDy=0;entryX=0.5;entryY=0;entryDx=0;entryDy=0;noEdgeStyle=1;orthogonal=1;" parent="1" source="MgtrMQk-lhwbNSyezBko-6" target="MgtrMQk-lhwbNSyezBko-16" edge="1">
          <mxGeometry relative="1" as="geometry">
            <Array as="points">
              <mxPoint x="91.09375" y="192" />
              <mxPoint x="20" y="268" />
            </Array>
          </mxGeometry>
        </mxCell>
        <mxCell id="MgtrMQk-lhwbNSyezBko-6" value="" style="shape=orEllipse;perimeter=ellipsePerimeter;whiteSpace=wrap;html=1;backgroundOutline=1;" parent="1" vertex="1">
          <mxGeometry x="71.09375" y="140" width="40" height="40" as="geometry" />
        </mxCell>
        <mxCell id="MgtrMQk-lhwbNSyezBko-7" style="edgeStyle=orthogonalEdgeStyle;rounded=0;orthogonalLoop=1;jettySize=auto;html=1;exitX=0.5;exitY=1;exitDx=0;exitDy=0;entryX=0.5;entryY=0;entryDx=0;entryDy=0;noEdgeStyle=1;orthogonal=1;" parent="1" source="MgtrMQk-lhwbNSyezBko-10" target="MgtrMQk-lhwbNSyezBko-12" edge="1">
          <mxGeometry relative="1" as="geometry">
            <Array as="points">
              <mxPoint x="151.09375" y="192" />
              <mxPoint x="90" y="268" />
            </Array>
          </mxGeometry>
        </mxCell>
        <mxCell id="MgtrMQk-lhwbNSyezBko-8" style="edgeStyle=orthogonalEdgeStyle;rounded=0;orthogonalLoop=1;jettySize=auto;html=1;exitX=0.5;exitY=1;exitDx=0;exitDy=0;entryX=0.5;entryY=0;entryDx=0;entryDy=0;noEdgeStyle=1;orthogonal=1;" parent="1" source="MgtrMQk-lhwbNSyezBko-10" target="MgtrMQk-lhwbNSyezBko-26" edge="1">
          <mxGeometry relative="1" as="geometry">
            <mxPoint x="429.97000000000025" y="1030" as="targetPoint" />
            <Array as="points">
              <mxPoint x="161.09375" y="194" />
              <mxPoint x="160" y="268" />
            </Array>
          </mxGeometry>
        </mxCell>
        <mxCell id="MgtrMQk-lhwbNSyezBko-9" style="edgeStyle=orthogonalEdgeStyle;rounded=0;orthogonalLoop=1;jettySize=auto;html=1;exitX=0.5;exitY=1;exitDx=0;exitDy=0;entryX=0.5;entryY=0;entryDx=0;entryDy=0;noEdgeStyle=1;orthogonal=1;" parent="1" source="MgtrMQk-lhwbNSyezBko-10" target="MgtrMQk-lhwbNSyezBko-30" edge="1">
          <mxGeometry relative="1" as="geometry">
            <mxPoint x="719.9700000000003" y="1030" as="targetPoint" />
            <Array as="points">
              <mxPoint x="171.09375" y="192" />
              <mxPoint x="230" y="268" />
            </Array>
          </mxGeometry>
        </mxCell>
        <mxCell id="MgtrMQk-lhwbNSyezBko-10" value="" style="ellipse;whiteSpace=wrap;html=1;aspect=fixed;" parent="1" vertex="1">
          <mxGeometry x="141.09375" y="140" width="40" height="40" as="geometry" />
        </mxCell>
        <mxCell id="MgtrMQk-lhwbNSyezBko-11" style="edgeStyle=orthogonalEdgeStyle;rounded=0;orthogonalLoop=1;jettySize=auto;html=1;exitX=0.5;exitY=1;exitDx=0;exitDy=0;entryX=0.5;entryY=0;entryDx=0;entryDy=0;noEdgeStyle=1;orthogonal=1;" parent="1" source="MgtrMQk-lhwbNSyezBko-12" target="MgtrMQk-lhwbNSyezBko-28" edge="1">
          <mxGeometry relative="1" as="geometry">
            <mxPoint x="579.9700000000003" y="1060" as="targetPoint" />
            <Array as="points">
              <mxPoint x="90" y="332" />
              <mxPoint x="265" y="408" />
            </Array>
          </mxGeometry>
        </mxCell>
        <mxCell id="MgtrMQk-lhwbNSyezBko-12" value="" style="shape=orEllipse;perimeter=ellipsePerimeter;whiteSpace=wrap;html=1;backgroundOutline=1;" parent="1" vertex="1">
          <mxGeometry x="70" y="280" width="40" height="40" as="geometry" />
        </mxCell>
        <mxCell id="MgtrMQk-lhwbNSyezBko-13" style="edgeStyle=orthogonalEdgeStyle;rounded=0;orthogonalLoop=1;jettySize=auto;html=1;exitX=0.5;exitY=1;exitDx=0;exitDy=0;entryX=0.5;entryY=0;entryDx=0;entryDy=0;noEdgeStyle=1;orthogonal=1;" parent="1" source="MgtrMQk-lhwbNSyezBko-16" target="MgtrMQk-lhwbNSyezBko-18" edge="1">
          <mxGeometry relative="1" as="geometry">
            <Array as="points">
              <mxPoint x="10" y="332" />
              <mxPoint x="21.09375" y="408" />
            </Array>
          </mxGeometry>
        </mxCell>
        <mxCell id="MgtrMQk-lhwbNSyezBko-14" style="edgeStyle=orthogonalEdgeStyle;rounded=0;orthogonalLoop=1;jettySize=auto;html=1;exitX=0.5;exitY=1;exitDx=0;exitDy=0;entryX=0.5;entryY=0;entryDx=0;entryDy=0;noEdgeStyle=1;orthogonal=1;" parent="1" source="MgtrMQk-lhwbNSyezBko-16" target="MgtrMQk-lhwbNSyezBko-32" edge="1">
          <mxGeometry relative="1" as="geometry">
            <mxPoint x="849.9400000000003" y="1090" as="targetPoint" />
            <Array as="points">
              <mxPoint x="20" y="334" />
              <mxPoint x="125" y="408" />
            </Array>
          </mxGeometry>
        </mxCell>
        <mxCell id="MgtrMQk-lhwbNSyezBko-15" style="edgeStyle=orthogonalEdgeStyle;rounded=0;orthogonalLoop=1;jettySize=auto;html=1;exitX=0.5;exitY=1;exitDx=0;exitDy=0;entryX=0.5;entryY=0;entryDx=0;entryDy=0;noEdgeStyle=1;orthogonal=1;" parent="1" source="MgtrMQk-lhwbNSyezBko-16" target="MgtrMQk-lhwbNSyezBko-36" edge="1">
          <mxGeometry relative="1" as="geometry">
            <mxPoint x="1139.9400000000003" y="1090" as="targetPoint" />
            <Array as="points">
              <mxPoint x="30" y="332" />
              <mxPoint x="195" y="408" />
            </Array>
          </mxGeometry>
        </mxCell>
        <mxCell id="MgtrMQk-lhwbNSyezBko-16" value="" style="ellipse;whiteSpace=wrap;html=1;aspect=fixed;" parent="1" vertex="1">
          <mxGeometry y="280" width="40" height="40" as="geometry" />
        </mxCell>
        <mxCell id="MgtrMQk-lhwbNSyezBko-17" style="edgeStyle=orthogonalEdgeStyle;rounded=0;orthogonalLoop=1;jettySize=auto;html=1;exitX=0.5;exitY=1;exitDx=0;exitDy=0;entryX=0.5;entryY=0;entryDx=0;entryDy=0;noEdgeStyle=1;orthogonal=1;" parent="1" source="MgtrMQk-lhwbNSyezBko-18" target="MgtrMQk-lhwbNSyezBko-34" edge="1">
          <mxGeometry relative="1" as="geometry">
            <mxPoint x="999.9400000000003" y="1120" as="targetPoint" />
            <Array as="points">
              <mxPoint x="21.09375" y="472" />
              <mxPoint x="21.09375" y="548" />
            </Array>
          </mxGeometry>
        </mxCell>
        <mxCell id="MgtrMQk-lhwbNSyezBko-18" value="" style="shape=orEllipse;perimeter=ellipsePerimeter;whiteSpace=wrap;html=1;backgroundOutline=1;" parent="1" vertex="1">
          <mxGeometry x="1.09375" y="420" width="40" height="40" as="geometry" />
        </mxCell>
        <mxCell id="MgtrMQk-lhwbNSyezBko-19" style="edgeStyle=orthogonalEdgeStyle;rounded=0;orthogonalLoop=1;jettySize=auto;html=1;exitX=0.5;exitY=1;exitDx=0;exitDy=0;entryX=0.5;entryY=0;entryDx=0;entryDy=0;noEdgeStyle=1;orthogonal=1;" parent="1" source="MgtrMQk-lhwbNSyezBko-22" target="MgtrMQk-lhwbNSyezBko-24" edge="1">
          <mxGeometry relative="1" as="geometry">
            <Array as="points">
              <mxPoint x="308.59375" y="192" />
              <mxPoint x="300" y="268" />
            </Array>
          </mxGeometry>
        </mxCell>
        <mxCell id="MgtrMQk-lhwbNSyezBko-20" style="edgeStyle=orthogonalEdgeStyle;rounded=0;orthogonalLoop=1;jettySize=auto;html=1;exitX=0.5;exitY=1;exitDx=0;exitDy=0;entryX=0.5;entryY=0;entryDx=0;entryDy=0;noEdgeStyle=1;orthogonal=1;" parent="1" source="MgtrMQk-lhwbNSyezBko-22" target="MgtrMQk-lhwbNSyezBko-38" edge="1">
          <mxGeometry relative="1" as="geometry">
            <mxPoint x="935.0200000000001" y="880" as="targetPoint" />
            <Array as="points">
              <mxPoint x="318.59375" y="194" />
              <mxPoint x="370" y="268" />
            </Array>
          </mxGeometry>
        </mxCell>
        <mxCell id="MgtrMQk-lhwbNSyezBko-21" style="edgeStyle=orthogonalEdgeStyle;rounded=0;orthogonalLoop=1;jettySize=auto;html=1;exitX=0.5;exitY=1;exitDx=0;exitDy=0;entryX=0.5;entryY=0;entryDx=0;entryDy=0;noEdgeStyle=1;orthogonal=1;" parent="1" source="MgtrMQk-lhwbNSyezBko-22" target="MgtrMQk-lhwbNSyezBko-42" edge="1">
          <mxGeometry relative="1" as="geometry">
            <mxPoint x="1225.0200000000004" y="880" as="targetPoint" />
            <Array as="points">
              <mxPoint x="328.59375" y="192" />
              <mxPoint x="440" y="268" />
            </Array>
          </mxGeometry>
        </mxCell>
        <mxCell id="MgtrMQk-lhwbNSyezBko-22" value="" style="ellipse;whiteSpace=wrap;html=1;aspect=fixed;" parent="1" vertex="1">
          <mxGeometry x="298.59375" y="140" width="40" height="40" as="geometry" />
        </mxCell>
        <mxCell id="MgtrMQk-lhwbNSyezBko-23" style="edgeStyle=orthogonalEdgeStyle;rounded=0;orthogonalLoop=1;jettySize=auto;html=1;exitX=0.5;exitY=1;exitDx=0;exitDy=0;entryX=0.5;entryY=0;entryDx=0;entryDy=0;noEdgeStyle=1;orthogonal=1;" parent="1" source="MgtrMQk-lhwbNSyezBko-24" target="MgtrMQk-lhwbNSyezBko-40" edge="1">
          <mxGeometry relative="1" as="geometry">
            <mxPoint x="1085.0200000000004" y="910" as="targetPoint" />
            <Array as="points">
              <mxPoint x="300" y="332" />
              <mxPoint x="335" y="408" />
            </Array>
          </mxGeometry>
        </mxCell>
        <mxCell id="MgtrMQk-lhwbNSyezBko-24" value="" style="shape=orEllipse;perimeter=ellipsePerimeter;whiteSpace=wrap;html=1;backgroundOutline=1;" parent="1" vertex="1">
          <mxGeometry x="280" y="280" width="40" height="40" as="geometry" />
        </mxCell>
        <mxCell id="MgtrMQk-lhwbNSyezBko-26" value="" style="ellipse;whiteSpace=wrap;html=1;aspect=fixed;" parent="1" vertex="1">
          <mxGeometry x="140" y="280" width="40" height="40" as="geometry" />
        </mxCell>
        <mxCell id="MgtrMQk-lhwbNSyezBko-28" value="" style="ellipse;whiteSpace=wrap;html=1;aspect=fixed;" parent="1" vertex="1">
          <mxGeometry x="245" y="420" width="40" height="40" as="geometry" />
        </mxCell>
        <mxCell id="MgtrMQk-lhwbNSyezBko-30" value="" style="ellipse;whiteSpace=wrap;html=1;aspect=fixed;" parent="1" vertex="1">
          <mxGeometry x="210" y="280" width="40" height="40" as="geometry" />
        </mxCell>
        <mxCell id="MgtrMQk-lhwbNSyezBko-32" value="" style="ellipse;whiteSpace=wrap;html=1;aspect=fixed;" parent="1" vertex="1">
          <mxGeometry x="105" y="420" width="40" height="40" as="geometry" />
        </mxCell>
        <mxCell id="MgtrMQk-lhwbNSyezBko-34" value="" style="ellipse;whiteSpace=wrap;html=1;aspect=fixed;" parent="1" vertex="1">
          <mxGeometry x="1.09375" y="560" width="40" height="40" as="geometry" />
        </mxCell>
        <mxCell id="MgtrMQk-lhwbNSyezBko-36" value="" style="ellipse;whiteSpace=wrap;html=1;aspect=fixed;" parent="1" vertex="1">
          <mxGeometry x="175" y="420" width="40" height="40" as="geometry" />
        </mxCell>
        <mxCell id="MgtrMQk-lhwbNSyezBko-38" value="" style="ellipse;whiteSpace=wrap;html=1;aspect=fixed;" parent="1" vertex="1">
          <mxGeometry x="350" y="280" width="40" height="40" as="geometry" />
        </mxCell>
        <mxCell id="MgtrMQk-lhwbNSyezBko-40" value="" style="ellipse;whiteSpace=wrap;html=1;aspect=fixed;" parent="1" vertex="1">
          <mxGeometry x="315" y="420" width="40" height="40" as="geometry" />
        </mxCell>
        <mxCell id="MgtrMQk-lhwbNSyezBko-42" value="" style="ellipse;whiteSpace=wrap;html=1;aspect=fixed;" parent="1" vertex="1">
          <mxGeometry x="420" y="280" width="40" height="40" as="geometry" />
        </mxCell>
        <mxCell id="MgtrMQk-lhwbNSyezBko-104" style="edgeStyle=orthogonalEdgeStyle;rounded=0;orthogonalLoop=1;jettySize=auto;html=1;exitX=0.5;exitY=1;exitDx=0;exitDy=0;entryX=0.5;entryY=0;entryDx=0;entryDy=0;noEdgeStyle=1;orthogonal=1;" parent="1" source="MgtrMQk-lhwbNSyezBko-52" target="MgtrMQk-lhwbNSyezBko-72" edge="1">
          <mxGeometry relative="1" as="geometry" />
        </mxCell>
        <mxCell id="MgtrMQk-lhwbNSyezBko-105" style="edgeStyle=orthogonalEdgeStyle;rounded=0;orthogonalLoop=1;jettySize=auto;html=1;exitX=0.5;exitY=1;exitDx=0;exitDy=0;entryX=0.5;entryY=0;entryDx=0;entryDy=0;noEdgeStyle=1;orthogonal=1;" parent="1" source="MgtrMQk-lhwbNSyezBko-52" target="MgtrMQk-lhwbNSyezBko-73" edge="1">
          <mxGeometry relative="1" as="geometry" />
        </mxCell>
        <mxCell id="MgtrMQk-lhwbNSyezBko-106" style="edgeStyle=orthogonalEdgeStyle;rounded=0;orthogonalLoop=1;jettySize=auto;html=1;exitX=0.5;exitY=1;exitDx=0;exitDy=0;entryX=0.5;entryY=0;entryDx=0;entryDy=0;noEdgeStyle=1;orthogonal=1;" parent="1" source="MgtrMQk-lhwbNSyezBko-52" target="MgtrMQk-lhwbNSyezBko-82" edge="1">
          <mxGeometry relative="1" as="geometry" />
        </mxCell>
        <mxCell id="MgtrMQk-lhwbNSyezBko-52" value="+" style="rounded=0;whiteSpace=wrap;html=1;" parent="1" vertex="1">
          <mxGeometry x="580" y="60" width="160" height="40" as="geometry" />
        </mxCell>
        <mxCell id="MgtrMQk-lhwbNSyezBko-98" style="edgeStyle=orthogonalEdgeStyle;rounded=0;orthogonalLoop=1;jettySize=auto;html=1;exitX=0.5;exitY=1;exitDx=0;exitDy=0;entryX=0.5;entryY=0;entryDx=0;entryDy=0;noEdgeStyle=1;orthogonal=1;" parent="1" source="MgtrMQk-lhwbNSyezBko-62" target="MgtrMQk-lhwbNSyezBko-70" edge="1">
          <mxGeometry relative="1" as="geometry" />
        </mxCell>
        <mxCell id="MgtrMQk-lhwbNSyezBko-62" value="+" style="rounded=0;whiteSpace=wrap;html=1;" parent="1" vertex="1">
          <mxGeometry x="800" y="60" width="80" height="40" as="geometry" />
        </mxCell>
        <mxCell id="MgtrMQk-lhwbNSyezBko-100" style="edgeStyle=orthogonalEdgeStyle;rounded=0;orthogonalLoop=1;jettySize=auto;html=1;exitX=0.5;exitY=1;exitDx=0;exitDy=0;entryX=0.5;entryY=0;entryDx=0;entryDy=0;noEdgeStyle=1;orthogonal=1;" parent="1" source="MgtrMQk-lhwbNSyezBko-63" target="MgtrMQk-lhwbNSyezBko-76" edge="1">
          <mxGeometry relative="1" as="geometry" />
        </mxCell>
        <mxCell id="MgtrMQk-lhwbNSyezBko-63" value="+" style="rounded=0;whiteSpace=wrap;html=1;" parent="1" vertex="1">
          <mxGeometry x="920" y="60" width="80" height="40" as="geometry" />
        </mxCell>
        <mxCell id="MgtrMQk-lhwbNSyezBko-66" value="" style="rounded=0;whiteSpace=wrap;html=1;" parent="1" vertex="1">
          <mxGeometry x="1040" y="60" width="40" height="10" as="geometry" />
        </mxCell>
        <mxCell id="MgtrMQk-lhwbNSyezBko-68" value="" style="rounded=0;whiteSpace=wrap;html=1;" parent="1" vertex="1">
          <mxGeometry x="1120" y="60" width="40" height="10" as="geometry" />
        </mxCell>
        <mxCell id="MgtrMQk-lhwbNSyezBko-70" value="" style="rounded=0;whiteSpace=wrap;html=1;" parent="1" vertex="1">
          <mxGeometry x="820" y="150" width="40" height="10" as="geometry" />
        </mxCell>
        <mxCell id="MgtrMQk-lhwbNSyezBko-72" value="" style="rounded=0;whiteSpace=wrap;html=1;" parent="1" vertex="1">
          <mxGeometry x="540" y="150" width="40" height="10" as="geometry" />
        </mxCell>
        <mxCell id="MgtrMQk-lhwbNSyezBko-73" value="" style="rounded=0;whiteSpace=wrap;html=1;" parent="1" vertex="1">
          <mxGeometry x="620" y="150" width="40" height="10" as="geometry" />
        </mxCell>
        <mxCell id="MgtrMQk-lhwbNSyezBko-75" value="" style="rounded=0;whiteSpace=wrap;html=1;" parent="1" vertex="1">
          <mxGeometry x="1280" y="60" width="40" height="10" as="geometry" />
        </mxCell>
        <mxCell id="MgtrMQk-lhwbNSyezBko-76" value="" style="rounded=0;whiteSpace=wrap;html=1;" parent="1" vertex="1">
          <mxGeometry x="940" y="150" width="40" height="10" as="geometry" />
        </mxCell>
        <mxCell id="MgtrMQk-lhwbNSyezBko-77" value="" style="rounded=0;whiteSpace=wrap;html=1;" parent="1" vertex="1">
          <mxGeometry x="1200" y="60" width="40" height="10" as="geometry" />
        </mxCell>
        <mxCell id="MgtrMQk-lhwbNSyezBko-86" style="edgeStyle=orthogonalEdgeStyle;rounded=0;orthogonalLoop=1;jettySize=auto;html=1;exitX=0.5;exitY=1;exitDx=0;exitDy=0;entryX=0.5;entryY=0;entryDx=0;entryDy=0;noEdgeStyle=1;orthogonal=1;" parent="1" source="MgtrMQk-lhwbNSyezBko-82" target="MgtrMQk-lhwbNSyezBko-85" edge="1">
          <mxGeometry relative="1" as="geometry" />
        </mxCell>
        <mxCell id="MgtrMQk-lhwbNSyezBko-82" value="+" style="rounded=0;whiteSpace=wrap;html=1;" parent="1" vertex="1">
          <mxGeometry x="700" y="150" width="80" height="40" as="geometry" />
        </mxCell>
        <mxCell id="MgtrMQk-lhwbNSyezBko-85" value="" style="rounded=0;whiteSpace=wrap;html=1;" parent="1" vertex="1">
          <mxGeometry x="720" y="240" width="40" height="10" as="geometry" />
        </mxCell>
      </root>
    </mxGraphModel>
  </diagram>
  <diagram id="Zc8EhW5Fjr46TnHKYx86" name="第 7 页">
    <mxGraphModel dx="1357" dy="768" grid="1" gridSize="10" guides="1" tooltips="1" connect="1" arrows="1" fold="1" page="1" pageScale="1" pageWidth="827" pageHeight="1169" math="0" shadow="0">
      <root>
        <mxCell id="0" />
        <mxCell id="1" parent="0" />
        <mxCell id="mLswMVx_uxKZkXQUVEUu-1" style="edgeStyle=orthogonalEdgeStyle;rounded=0;orthogonalLoop=1;jettySize=auto;html=1;exitX=0.5;exitY=1;exitDx=0;exitDy=0;entryX=0.5;entryY=0;entryDx=0;entryDy=0;noEdgeStyle=1;orthogonal=1;" parent="1" source="mLswMVx_uxKZkXQUVEUu-8" target="mLswMVx_uxKZkXQUVEUu-12" edge="1">
          <mxGeometry relative="1" as="geometry" />
        </mxCell>
        <mxCell id="mLswMVx_uxKZkXQUVEUu-2" style="edgeStyle=orthogonalEdgeStyle;rounded=0;orthogonalLoop=1;jettySize=auto;html=1;exitX=0.5;exitY=1;exitDx=0;exitDy=0;entryX=0.5;entryY=0;entryDx=0;entryDy=0;noEdgeStyle=1;orthogonal=1;" parent="1" source="mLswMVx_uxKZkXQUVEUu-8" target="mLswMVx_uxKZkXQUVEUu-14" edge="1">
          <mxGeometry relative="1" as="geometry">
            <mxPoint x="1180.0000000000002" y="1100" as="targetPoint" />
          </mxGeometry>
        </mxCell>
        <mxCell id="mLswMVx_uxKZkXQUVEUu-3" style="edgeStyle=orthogonalEdgeStyle;rounded=0;orthogonalLoop=1;jettySize=auto;html=1;exitX=0.5;exitY=1;exitDx=0;exitDy=0;entryX=0.5;entryY=0;entryDx=0;entryDy=0;noEdgeStyle=1;orthogonal=1;" parent="1" source="mLswMVx_uxKZkXQUVEUu-8" target="mLswMVx_uxKZkXQUVEUu-16" edge="1">
          <mxGeometry relative="1" as="geometry">
            <mxPoint x="1350" y="1130" as="targetPoint" />
          </mxGeometry>
        </mxCell>
        <mxCell id="mLswMVx_uxKZkXQUVEUu-4" style="edgeStyle=orthogonalEdgeStyle;rounded=0;orthogonalLoop=1;jettySize=auto;html=1;exitX=0.5;exitY=1;exitDx=0;exitDy=0;entryX=0.5;entryY=0;entryDx=0;entryDy=0;noEdgeStyle=1;orthogonal=1;" parent="1" source="mLswMVx_uxKZkXQUVEUu-8" target="mLswMVx_uxKZkXQUVEUu-17" edge="1">
          <mxGeometry relative="1" as="geometry" />
        </mxCell>
        <mxCell id="mLswMVx_uxKZkXQUVEUu-5" style="edgeStyle=orthogonalEdgeStyle;rounded=0;orthogonalLoop=1;jettySize=auto;html=1;exitX=0.5;exitY=1;exitDx=0;exitDy=0;entryX=0.5;entryY=0;entryDx=0;entryDy=0;noEdgeStyle=1;orthogonal=1;" parent="1" source="mLswMVx_uxKZkXQUVEUu-8" target="mLswMVx_uxKZkXQUVEUu-18" edge="1">
          <mxGeometry relative="1" as="geometry" />
        </mxCell>
        <mxCell id="mLswMVx_uxKZkXQUVEUu-6" style="edgeStyle=orthogonalEdgeStyle;rounded=0;orthogonalLoop=1;jettySize=auto;html=1;exitX=0.5;exitY=1;exitDx=0;exitDy=0;entryX=0.5;entryY=0;entryDx=0;entryDy=0;noEdgeStyle=1;orthogonal=1;" parent="1" source="mLswMVx_uxKZkXQUVEUu-8" target="mLswMVx_uxKZkXQUVEUu-24" edge="1">
          <mxGeometry relative="1" as="geometry" />
        </mxCell>
        <mxCell id="mLswMVx_uxKZkXQUVEUu-7" style="edgeStyle=orthogonalEdgeStyle;rounded=0;orthogonalLoop=1;jettySize=auto;html=1;exitX=0.5;exitY=1;exitDx=0;exitDy=0;entryX=0.5;entryY=0;entryDx=0;entryDy=0;noEdgeStyle=1;orthogonal=1;" parent="1" source="mLswMVx_uxKZkXQUVEUu-8" target="mLswMVx_uxKZkXQUVEUu-22" edge="1">
          <mxGeometry relative="1" as="geometry" />
        </mxCell>
        <mxCell id="mLswMVx_uxKZkXQUVEUu-8" value="" style="rounded=0;whiteSpace=wrap;html=1;" parent="1" vertex="1">
          <mxGeometry x="350" width="160" height="10" as="geometry" />
        </mxCell>
        <mxCell id="mLswMVx_uxKZkXQUVEUu-9" style="edgeStyle=orthogonalEdgeStyle;rounded=0;orthogonalLoop=1;jettySize=auto;html=1;exitX=0.5;exitY=1;exitDx=0;exitDy=0;entryX=0.5;entryY=0;entryDx=0;entryDy=0;noEdgeStyle=1;orthogonal=1;" parent="1" source="mLswMVx_uxKZkXQUVEUu-12" target="mLswMVx_uxKZkXQUVEUu-20" edge="1">
          <mxGeometry relative="1" as="geometry" />
        </mxCell>
        <mxCell id="mLswMVx_uxKZkXQUVEUu-10" style="edgeStyle=orthogonalEdgeStyle;rounded=0;orthogonalLoop=1;jettySize=auto;html=1;exitX=0.5;exitY=1;exitDx=0;exitDy=0;entryX=0.5;entryY=0;entryDx=0;entryDy=0;noEdgeStyle=1;orthogonal=1;" parent="1" source="mLswMVx_uxKZkXQUVEUu-12" target="mLswMVx_uxKZkXQUVEUu-21" edge="1">
          <mxGeometry relative="1" as="geometry" />
        </mxCell>
        <mxCell id="mLswMVx_uxKZkXQUVEUu-11" style="edgeStyle=orthogonalEdgeStyle;rounded=0;orthogonalLoop=1;jettySize=auto;html=1;exitX=0.5;exitY=1;exitDx=0;exitDy=0;entryX=0.5;entryY=0;entryDx=0;entryDy=0;noEdgeStyle=1;orthogonal=1;" parent="1" source="mLswMVx_uxKZkXQUVEUu-12" target="mLswMVx_uxKZkXQUVEUu-26" edge="1">
          <mxGeometry relative="1" as="geometry" />
        </mxCell>
        <mxCell id="mLswMVx_uxKZkXQUVEUu-12" value="+" style="rounded=0;whiteSpace=wrap;html=1;" parent="1" vertex="1">
          <mxGeometry x="60" y="60" width="160" height="80" as="geometry" />
        </mxCell>
        <mxCell id="mLswMVx_uxKZkXQUVEUu-13" style="edgeStyle=orthogonalEdgeStyle;rounded=0;orthogonalLoop=1;jettySize=auto;html=1;exitX=0.5;exitY=1;exitDx=0;exitDy=0;entryX=0.5;entryY=0;entryDx=0;entryDy=0;noEdgeStyle=1;orthogonal=1;" parent="1" source="mLswMVx_uxKZkXQUVEUu-14" target="mLswMVx_uxKZkXQUVEUu-19" edge="1">
          <mxGeometry relative="1" as="geometry" />
        </mxCell>
        <mxCell id="mLswMVx_uxKZkXQUVEUu-14" value="+" style="rounded=0;whiteSpace=wrap;html=1;" parent="1" vertex="1">
          <mxGeometry x="280" y="60" width="80" height="40" as="geometry" />
        </mxCell>
        <mxCell id="mLswMVx_uxKZkXQUVEUu-15" style="edgeStyle=orthogonalEdgeStyle;rounded=0;orthogonalLoop=1;jettySize=auto;html=1;exitX=0.5;exitY=1;exitDx=0;exitDy=0;entryX=0.5;entryY=0;entryDx=0;entryDy=0;noEdgeStyle=1;orthogonal=1;" parent="1" source="mLswMVx_uxKZkXQUVEUu-16" target="mLswMVx_uxKZkXQUVEUu-23" edge="1">
          <mxGeometry relative="1" as="geometry" />
        </mxCell>
        <mxCell id="mLswMVx_uxKZkXQUVEUu-16" value="+" style="rounded=0;whiteSpace=wrap;html=1;" parent="1" vertex="1">
          <mxGeometry x="400" y="60" width="80" height="40" as="geometry" />
        </mxCell>
        <mxCell id="mLswMVx_uxKZkXQUVEUu-17" value="" style="rounded=0;whiteSpace=wrap;html=1;" parent="1" vertex="1">
          <mxGeometry x="520" y="60" width="40" height="10" as="geometry" />
        </mxCell>
        <mxCell id="mLswMVx_uxKZkXQUVEUu-18" value="" style="rounded=0;whiteSpace=wrap;html=1;" parent="1" vertex="1">
          <mxGeometry x="600" y="60" width="40" height="10" as="geometry" />
        </mxCell>
        <mxCell id="mLswMVx_uxKZkXQUVEUu-19" value="" style="rounded=0;whiteSpace=wrap;html=1;" parent="1" vertex="1">
          <mxGeometry x="300" y="150" width="40" height="10" as="geometry" />
        </mxCell>
        <mxCell id="mLswMVx_uxKZkXQUVEUu-20" value="" style="rounded=0;whiteSpace=wrap;html=1;" parent="1" vertex="1">
          <mxGeometry x="20" y="190" width="40" height="10" as="geometry" />
        </mxCell>
        <mxCell id="mLswMVx_uxKZkXQUVEUu-21" value="" style="rounded=0;whiteSpace=wrap;html=1;" parent="1" vertex="1">
          <mxGeometry x="100" y="190" width="40" height="10" as="geometry" />
        </mxCell>
        <mxCell id="mLswMVx_uxKZkXQUVEUu-22" value="" style="rounded=0;whiteSpace=wrap;html=1;" parent="1" vertex="1">
          <mxGeometry x="760" y="60" width="40" height="10" as="geometry" />
        </mxCell>
        <mxCell id="mLswMVx_uxKZkXQUVEUu-23" value="" style="rounded=0;whiteSpace=wrap;html=1;" parent="1" vertex="1">
          <mxGeometry x="420" y="150" width="40" height="10" as="geometry" />
        </mxCell>
        <mxCell id="mLswMVx_uxKZkXQUVEUu-24" value="" style="rounded=0;whiteSpace=wrap;html=1;" parent="1" vertex="1">
          <mxGeometry x="680" y="60" width="40" height="10" as="geometry" />
        </mxCell>
        <mxCell id="mLswMVx_uxKZkXQUVEUu-25" style="edgeStyle=orthogonalEdgeStyle;rounded=0;orthogonalLoop=1;jettySize=auto;html=1;exitX=0.5;exitY=1;exitDx=0;exitDy=0;entryX=0.5;entryY=0;entryDx=0;entryDy=0;noEdgeStyle=1;orthogonal=1;" parent="1" source="mLswMVx_uxKZkXQUVEUu-26" target="mLswMVx_uxKZkXQUVEUu-27" edge="1">
          <mxGeometry relative="1" as="geometry" />
        </mxCell>
        <mxCell id="mLswMVx_uxKZkXQUVEUu-26" value="+" style="rounded=0;whiteSpace=wrap;html=1;" parent="1" vertex="1">
          <mxGeometry x="180" y="190" width="80" height="40" as="geometry" />
        </mxCell>
        <mxCell id="mLswMVx_uxKZkXQUVEUu-27" value="" style="rounded=0;whiteSpace=wrap;html=1;" parent="1" vertex="1">
          <mxGeometry x="200" y="280" width="40" height="10" as="geometry" />
        </mxCell>
        <mxCell id="WbnDl0Rq932RoVf_pGNX-5" value="" style="group" parent="1" vertex="1" connectable="0">
          <mxGeometry x="60" y="60" width="160" height="80" as="geometry" />
        </mxCell>
        <mxCell id="WbnDl0Rq932RoVf_pGNX-1" value="+" style="rounded=0;whiteSpace=wrap;html=1;" parent="WbnDl0Rq932RoVf_pGNX-5" vertex="1">
          <mxGeometry y="40" width="80" height="40" as="geometry" />
        </mxCell>
        <mxCell id="WbnDl0Rq932RoVf_pGNX-2" value="+" style="rounded=0;whiteSpace=wrap;html=1;" parent="WbnDl0Rq932RoVf_pGNX-5" vertex="1">
          <mxGeometry x="80" width="80" height="40" as="geometry" />
        </mxCell>
        <mxCell id="WbnDl0Rq932RoVf_pGNX-3" value="" style="rounded=0;whiteSpace=wrap;html=1;dashed=1;" parent="WbnDl0Rq932RoVf_pGNX-5" vertex="1">
          <mxGeometry width="80" height="40" as="geometry" />
        </mxCell>
        <mxCell id="WbnDl0Rq932RoVf_pGNX-4" value="" style="rounded=0;whiteSpace=wrap;html=1;dashed=1;" parent="WbnDl0Rq932RoVf_pGNX-5" vertex="1">
          <mxGeometry x="80" y="40" width="80" height="40" as="geometry" />
        </mxCell>
      </root>
    </mxGraphModel>
  </diagram>
  <diagram id="9PZ9058TcZEYDhQlOASH" name="第 8 页">
    <mxGraphModel dx="1124" dy="637" grid="1" gridSize="10" guides="1" tooltips="1" connect="1" arrows="1" fold="1" page="1" pageScale="1" pageWidth="827" pageHeight="1169" math="0" shadow="0">
      <root>
        <mxCell id="0" />
        <mxCell id="1" parent="0" />
        <mxCell id="KE76SieG4LrPoFF-wdMZ-1" value="" style="rounded=0;whiteSpace=wrap;html=1;fillColor=#dae8fc;strokeColor=#6c8ebf;" vertex="1" parent="1">
          <mxGeometry x="400" y="280" width="120" height="40" as="geometry" />
        </mxCell>
        <mxCell id="KE76SieG4LrPoFF-wdMZ-2" value="" style="rounded=0;whiteSpace=wrap;html=1;fillColor=#dae8fc;strokeColor=#6c8ebf;" vertex="1" parent="1">
          <mxGeometry x="280" y="280" width="120" height="40" as="geometry" />
        </mxCell>
        <mxCell id="KE76SieG4LrPoFF-wdMZ-3" value="" style="rounded=0;whiteSpace=wrap;html=1;fillColor=#dae8fc;strokeColor=#6c8ebf;" vertex="1" parent="1">
          <mxGeometry x="200" y="280" width="80" height="40" as="geometry" />
        </mxCell>
        <mxCell id="KE76SieG4LrPoFF-wdMZ-4" value="" style="rounded=0;whiteSpace=wrap;html=1;fillColor=#d5e8d4;strokeColor=#82b366;" vertex="1" parent="1">
          <mxGeometry x="280" y="360" width="80" height="40" as="geometry" />
        </mxCell>
        <mxCell id="KE76SieG4LrPoFF-wdMZ-5" value="" style="rounded=0;whiteSpace=wrap;html=1;fillColor=#d5e8d4;strokeColor=#82b366;" vertex="1" parent="1">
          <mxGeometry x="200" y="360" width="80" height="40" as="geometry" />
        </mxCell>
        <mxCell id="KE76SieG4LrPoFF-wdMZ-6" value="" style="rounded=0;whiteSpace=wrap;html=1;fillColor=#ffe6cc;strokeColor=#d79b00;" vertex="1" parent="1">
          <mxGeometry x="360" y="360" width="40" height="40" as="geometry" />
        </mxCell>
        <mxCell id="KE76SieG4LrPoFF-wdMZ-7" value="" style="rounded=0;whiteSpace=wrap;html=1;fillColor=#ffe6cc;strokeColor=#d79b00;" vertex="1" parent="1">
          <mxGeometry x="400" y="360" width="120" height="40" as="geometry" />
        </mxCell>
      </root>
    </mxGraphModel>
  </diagram>
</mxfile>
